<svg width="25" height="24" viewBox="0 0 25 24" fill="none" xmlns="http://www.w3.org/2000/svg">
<path fill-rule="evenodd" clip-rule="evenodd" d="M22.5281 7.62358L21.9057 6.54349C21.3791 5.62957 20.2121 5.31429 19.297 5.83869V5.83869C18.8613 6.09531 18.3415 6.16812 17.8521 6.04106C17.3628 5.91399 16.944 5.59749 16.6883 5.16134C16.5237 4.88412 16.4353 4.56836 16.432 4.24601V4.24601C16.4468 3.72919 16.2518 3.22837 15.8915 2.85764C15.5311 2.48691 15.036 2.27783 14.5189 2.27805H13.2649C12.7584 2.27804 12.2727 2.47988 11.9154 2.83891C11.5581 3.19795 11.3586 3.68456 11.361 4.19109V4.19109C11.346 5.23689 10.4939 6.07678 9.448 6.07667C9.12565 6.07332 8.80989 5.98491 8.53267 5.82038V5.82038C7.6175 5.29598 6.45055 5.61126 5.92397 6.52519L5.25578 7.62358C4.72985 8.53636 5.04084 9.70258 5.95143 10.2323V10.2323C6.54334 10.574 6.90797 11.2056 6.90797 11.889C6.90797 12.5725 6.54334 13.204 5.95143 13.5458V13.5458C5.04199 14.0719 4.73066 15.2353 5.25578 16.1453V16.1453L5.88736 17.2346C6.13408 17.6798 6.54804 18.0083 7.03763 18.1474C7.52722 18.2866 8.05208 18.2249 8.49606 17.976V17.976C8.93252 17.7213 9.45262 17.6515 9.94078 17.7822C10.4289 17.9128 10.8447 18.233 11.0956 18.6716C11.2601 18.9489 11.3485 19.2646 11.3519 19.587V19.587C11.3519 20.6435 12.2084 21.5 13.2649 21.5H14.5189C15.5719 21.5 16.4269 20.6491 16.432 19.5961V19.5961C16.4295 19.088 16.6303 18.6 16.9896 18.2407C17.3489 17.8814 17.8369 17.6806 18.345 17.6831C18.6666 17.6917 18.9811 17.7797 19.2604 17.9394V17.9394C20.1731 18.4653 21.3394 18.1543 21.8691 17.2437V17.2437L22.5281 16.1453C22.7832 15.7075 22.8532 15.186 22.7226 14.6963C22.5921 14.2067 22.2717 13.7893 21.8324 13.5366V13.5366C21.3932 13.2839 21.0728 12.8665 20.9422 12.3769C20.8117 11.8873 20.8817 11.3658 21.1368 10.9279C21.3027 10.6383 21.5428 10.3982 21.8324 10.2323V10.2323C22.7376 9.70286 23.0478 8.54346 22.5281 7.63274V7.63274V7.62358Z" stroke="#212121" stroke-width="1.5" stroke-linecap="round" stroke-linejoin="round"/>
<circle cx="13.8965" cy="11.889" r="2.63616" stroke="#212121" stroke-width="1.5" stroke-linecap="round" stroke-linejoin="round"/>
</svg>
