<svg width="24" height="25" viewBox="0 0 24 25" fill="none" xmlns="http://www.w3.org/2000/svg">
<path fill-rule="evenodd" clip-rule="evenodd" d="M24 12.5C24 19.1275 18.6275 24.5 12 24.5C5.37259 24.5 0 19.1275 0 12.5C0 5.87259 5.37259 0.5 12 0.5C18.6275 0.5 24 5.87259 24 12.5ZM6.12377 14.5C6.04208 13.8448 6 13.1773 6 12.5C6 11.8227 6.04209 11.1552 6.1238 10.5H2.20004C2.06887 11.1462 2 11.8151 2 12.5C2 13.1849 2.06887 13.8537 2.20004 14.5H6.12377ZM6.50405 16.5H2.83209C4.0096 19.1951 6.34063 21.2707 9.20108 22.1031C7.96156 20.4536 7.03345 18.5568 6.50405 16.5ZM8.57976 16.5H15.4203C14.7623 18.7109 13.5728 20.6929 12 22.298C10.4272 20.6929 9.23776 18.7109 8.57976 16.5ZM15.8583 14.5H8.14179C8.04836 13.8468 8 13.179 8 12.5C8 11.821 8.04836 11.1532 8.14179 10.5H15.8583C15.9516 11.1532 16 11.821 16 12.5C16 13.179 15.9516 13.8468 15.8583 14.5ZM17.8763 14.5C17.9579 13.8448 18 13.1773 18 12.5C18 11.8227 17.9579 11.1552 17.8763 10.5H21.8C21.9312 11.1462 22 11.8151 22 12.5C22 13.1849 21.9312 13.8537 21.8 14.5H17.8763ZM17.496 16.5H21.1679C19.9904 19.1951 17.6593 21.2707 14.7989 22.1031C16.0384 20.4536 16.9665 18.5568 17.496 16.5ZM12 2.70204C10.4272 4.30704 9.23776 6.28908 8.57976 8.5H15.4203C14.7623 6.28908 13.5728 4.30704 12 2.70204ZM14.7989 2.89697C16.0384 4.54639 16.9665 6.44316 17.4959 8.5H21.1679C19.9904 5.80497 17.6593 3.72927 14.7989 2.89697ZM2.83209 8.5H6.50408C7.03348 6.44316 7.9616 4.54639 9.20111 2.89697C6.34064 3.72927 4.0096 5.80497 2.83209 8.5Z" fill="white"/>
</svg>
