<svg width="16" height="16" viewBox="0 0 16 16" fill="none" xmlns="http://www.w3.org/2000/svg">
<path d="M8.74999 2.75006C8.74999 2.33585 8.4142 2.00006 7.99999 2.00006C7.58578 2.00006 7.24999 2.33585 7.24999 2.75006V7.25003H2.75C2.33579 7.25003 2 7.58581 2 8.00003C2 8.41424 2.33579 8.75003 2.75 8.75003H7.24999L7.25 13.25C7.25 13.6642 7.58579 14 8 14C8.41421 14 8.75 13.6642 8.75 13.25L8.74999 8.75003H13.25C13.6642 8.75003 14 8.41424 14 8.00003C14 7.58581 13.6642 7.25003 13.25 7.25003H8.74999V2.75006Z" fill="white"/>
</svg>
