<svg width="16" height="16" viewBox="0 0 16 16" fill="none" xmlns="http://www.w3.org/2000/svg">
<path d="M6.53061 2.4694L11.5306 7.4694C11.6005 7.53908 11.656 7.62187 11.6939 7.71304C11.7317 7.8042 11.7512 7.90194 11.7512 8.00065C11.7512 8.09936 11.7317 8.1971 11.6939 8.28827C11.656 8.37943 11.6005 8.46222 11.5306 8.5319L6.53061 13.5319C6.38972 13.6728 6.19862 13.752 5.99936 13.752C5.80011 13.752 5.60901 13.6728 5.46811 13.5319C5.32722 13.391 5.24806 13.1999 5.24806 13.0007C5.24806 12.8014 5.32722 12.6103 5.46811 12.4694L9.93749 8.00003L5.46749 3.53065C5.32659 3.38976 5.24744 3.19866 5.24744 2.9994C5.24744 2.80015 5.32659 2.60905 5.46749 2.46815C5.60838 2.32726 5.79948 2.2481 5.99874 2.2481C6.198 2.2481 6.38909 2.32726 6.52999 2.46815L6.53061 2.4694Z" fill="black" fill-opacity="0.6"/>
</svg>
