<svg width="92" height="38" viewBox="0 0 92 38" fill="none" xmlns="http://www.w3.org/2000/svg">
<g clip-path="url(#clip0_1_4518)">
<path d="M86.8141 36.8682L73.3318 0.0321946L73.3226 0.0078125H73.0566L70.2802 7.57747L65.2258 21.3582L65.214 21.3473C63.4622 19.8134 60.9908 18.8546 57.8782 18.4975L56.9289 18.4002L57.8707 18.2804C63.0036 17.3651 66.454 14.1481 66.454 10.2722C66.454 4.95729 61.4165 1.24751 54.2006 1.24751H39.1869V1.51661H43.5494V28.9799L32.9544 0.0321043L32.9448 0.0078125H32.6788L29.9024 7.57747L19.194 36.7734L19.1281 36.7809C18.9451 36.8033 18.7641 36.8211 18.585 36.8346C18.3157 36.8555 18.0479 36.8681 17.7792 36.8681H6.95934L27.5265 1.51652L27.6794 1.25085H2.52491V12.1867H2.79182C2.83914 6.86 5.96517 1.51652 12.8719 1.51652H21.2043L0.481689 37.1329H28.399V26.6557H28.1321C28.0957 31.2984 25.4436 35.7081 19.6764 36.7038L19.493 36.7349L23.8853 24.7547H36.1892L40.6227 36.8682H36.2492V37.133H53.415V36.8682H49.0228V18.5956H54.0908C59.2482 18.5956 62.2062 20.8821 62.2062 24.8668V28.1081C62.2062 28.4653 62.2306 28.9874 62.2577 29.4241V29.44L59.5337 36.8665H55.9751V37.1313H63.3413V36.8665H59.821L62.3016 30.1039C62.3067 30.1693 62.3093 30.2087 62.3093 30.2087L62.3777 30.8181L62.4436 31.2212C62.8575 33.7148 63.8186 35.5479 65.2993 36.6694L65.5122 36.8228C66.6372 37.599 68.0352 37.9921 69.6695 37.9921C71.8344 37.9921 73.2779 37.4565 74.4697 36.1959L74.3134 36.05C73.2153 37.0558 72.2939 37.4633 71.1393 37.4633C69.172 37.4633 68.1425 35.0953 68.1425 32.7601V28.2188C68.1529 27.0919 67.9751 25.9712 67.6162 24.9021L67.5673 24.7613V24.7562H76.5668L81.0003 36.8698H76.6268V37.1347H91.4817V36.8698L86.8141 36.8682ZM23.9832 24.4897L30.0444 7.96479L36.0921 24.4897H23.9832ZM49.0255 18.3298V1.51652H52.8939C58.0615 1.51652 60.7897 4.56501 60.7897 10.3293C60.7897 16.4598 59.2236 18.3298 54.0908 18.3298H49.0255ZM67.4624 24.4897L67.4362 24.4244C67.0363 23.4577 66.454 22.5758 65.7207 21.8259L65.4673 21.5744L65.4403 21.5493L70.4186 7.96479L76.4663 24.4897H67.4624Z" fill="white"/>
</g>
<defs>
<clipPath id="clip0_1_4518">
<rect width="91" height="38" fill="white" transform="translate(0.481689)"/>
</clipPath>
</defs>
</svg>
