<svg width="360" height="155" viewBox="0 0 360 155" fill="none" xmlns="http://www.w3.org/2000/svg">
<path d="M77.6293 141.424H87.8033V96.6328H77.8853L77.7573 98.2325C77.5014 101.944 75.7737 103.672 71.9985 103.864L66.6876 104.119V112.31H77.6293V141.424ZM104.509 129.202C100.094 129.202 97.0864 131.954 97.0864 135.665C97.0864 138.928 99.5819 141.552 103.293 141.552C104.765 141.552 106.109 141.104 107.004 140.336C106.173 143.791 102.973 145.391 97.8542 144.751V149.102C107.004 150.254 112.443 145.903 112.443 138.161C112.443 132.402 109.244 129.202 104.509 129.202ZM141.244 142.064C155.194 142.064 165.623 132.21 165.623 119.028C165.623 105.911 155.194 95.9929 141.244 95.9929C127.295 95.9929 116.865 105.911 116.865 119.028C116.865 132.21 127.295 142.064 141.244 142.064ZM141.244 132.53C133.502 132.53 128.063 126.963 128.063 119.028C128.063 111.158 133.502 105.591 141.244 105.591C148.987 105.591 154.426 111.158 154.426 119.028C154.426 126.963 148.987 132.53 141.244 132.53ZM195.295 142.064C209.245 142.064 219.675 132.21 219.675 119.028C219.675 105.911 209.245 95.9929 195.295 95.9929C181.346 95.9929 170.916 105.911 170.916 119.028C170.916 132.21 181.346 142.064 195.295 142.064ZM195.295 132.53C187.553 132.53 182.114 126.963 182.114 119.028C182.114 111.158 187.553 105.591 195.295 105.591C203.038 105.591 208.477 111.158 208.477 119.028C208.477 126.963 203.038 132.53 195.295 132.53ZM249.347 142.064C263.297 142.064 273.727 132.21 273.727 119.028C273.727 105.911 263.297 95.9929 249.347 95.9929C235.398 95.9929 224.968 105.911 224.968 119.028C224.968 132.21 235.398 142.064 249.347 142.064ZM249.347 132.53C241.605 132.53 236.166 126.963 236.166 119.028C236.166 111.158 241.605 105.591 249.347 105.591C257.09 105.591 262.529 111.158 262.529 119.028C262.529 126.963 257.09 132.53 249.347 132.53ZM314.539 115.253H302.254V103.096H293.488V115.253H281.266V124.147H293.488V136.305H302.254V124.147H314.539V115.253Z" fill="#050038"/>
</svg>
