<svg width="361" height="155" viewBox="0 0 361 155" fill="none" xmlns="http://www.w3.org/2000/svg">
<path d="M131.89 113.314H119.924V99.3644H109.494V113.314H100.984V96.165H90.5543V121.504H109.302V140.956H119.924V121.504H131.89V113.314ZM156.716 109.858C152.684 109.858 149.357 111.01 146.798 113.122L147.182 105.123H169.833V96.165H138.735L138.031 121.184H148.269C149.741 119.328 151.853 118.433 154.412 118.433C158.827 118.433 161.899 121.12 161.899 125.471C161.899 129.694 158.955 132.574 154.412 132.574C149.869 132.574 146.798 129.758 146.606 125.023H135.664C135.536 135.005 143.15 141.596 154.22 141.596C165.354 141.596 172.84 134.941 172.84 125.215C172.84 115.937 166.122 109.858 156.716 109.858ZM180.687 140.956H190.861V106.915L191.245 106.851L200.587 137.117H209.865L219.271 106.851L219.655 106.915V140.956H229.829V96.165H213.704L205.386 126.111H205.13L196.811 96.165H180.687V140.956ZM271.907 114.785H259.622V102.628H250.855V114.785H238.634V123.679H250.855V135.837H259.622V123.679H271.907V114.785Z" fill="#050038"/>
</svg>
