<svg width="361" height="153" viewBox="0 0 361 153" fill="none" xmlns="http://www.w3.org/2000/svg">
<path d="M126.654 94.5563C115.456 94.5563 107.842 101.531 107.842 111.321C107.842 120.535 114.624 126.998 123.774 126.998C125.118 126.998 126.27 126.806 127.358 126.486L115.008 139.987H127.166L138.044 127.19C140.795 123.926 145.53 118.423 145.53 111.001C145.53 101.403 137.852 94.5563 126.654 94.5563ZM126.718 119.191C122.111 119.191 118.911 116.056 118.911 111.449C118.911 106.842 122.175 103.706 126.718 103.706C131.389 103.706 134.524 106.906 134.524 111.449C134.524 115.992 131.389 119.191 126.718 119.191ZM169.395 94.5563C158.197 94.5563 150.583 101.531 150.583 111.321C150.583 120.535 157.366 126.998 166.516 126.998C167.859 126.998 169.011 126.806 170.099 126.486L157.75 139.987H169.907L180.785 127.19C183.536 123.926 188.271 118.423 188.271 111.001C188.271 101.403 180.593 94.5563 169.395 94.5563ZM169.459 119.191C164.852 119.191 161.653 116.056 161.653 111.449C161.653 106.842 164.916 103.706 169.459 103.706C174.13 103.706 177.266 106.906 177.266 111.449C177.266 115.992 174.13 119.191 169.459 119.191ZM206.646 118.679C213.812 118.679 219.187 113.496 219.187 106.65C219.187 99.7392 213.812 94.5563 206.646 94.5563C199.479 94.5563 194.168 99.7392 194.168 106.65C194.168 113.496 199.479 118.679 206.646 118.679ZM202.166 139.987H212.532L245.422 95.1961H234.992L202.166 139.987ZM206.646 111.001C204.214 111.001 202.486 109.209 202.486 106.65C202.486 104.026 204.214 102.235 206.646 102.235C209.141 102.235 210.869 104.026 210.869 106.65C210.869 109.209 209.141 111.001 206.646 111.001ZM240.879 140.627C248.045 140.627 253.42 135.508 253.42 128.597C253.42 121.751 248.045 116.568 240.879 116.568C233.776 116.568 228.401 121.751 228.401 128.597C228.401 135.508 233.776 140.627 240.879 140.627ZM240.879 133.012C238.447 133.012 236.719 131.157 236.719 128.597C236.719 126.038 238.447 124.182 240.879 124.182C243.374 124.182 245.102 126.038 245.102 128.597C245.102 131.157 243.374 133.012 240.879 133.012Z" fill="#050038"/>
</svg>
