<svg width="60" height="32" viewBox="0 0 60 32" fill="none" xmlns="http://www.w3.org/2000/svg">
<g clip-path="url(#clip0_1_48)">
<path d="M8.37931 19.0433C8.31697 19.1056 8.21311 19.1834 8.06789 19.2768C7.9224 19.3703 7.7331 19.4637 7.49954 19.5572C7.26599 19.6505 6.98035 19.7308 6.64315 19.7985C6.30564 19.8658 5.91912 19.8997 5.48314 19.8997C4.64223 19.8997 3.91553 19.7646 3.30315 19.4949C2.69051 19.2252 2.1845 18.8486 1.78496 18.366C1.38527 17.8833 1.0921 17.3125 0.90525 16.6531C0.718399 15.994 0.625 15.27 0.625 14.481C0.625 13.6923 0.726192 12.9628 0.928627 12.2933C1.13101 11.6237 1.43464 11.0452 1.83946 10.5571C2.24433 10.0693 2.75039 9.68779 3.35769 9.41261C3.96495 9.13775 4.67852 9 5.49867 9C5.90354 9 6.26945 9.03645 6.59645 9.10898C6.92346 9.18167 7.20883 9.26739 7.4529 9.36591C7.69665 9.4647 7.89913 9.56829 8.06015 9.67733C8.22096 9.78631 8.34291 9.87736 8.42611 9.94979C8.51951 10.033 8.59984 10.1316 8.66746 10.2456C8.73487 10.36 8.76865 10.4846 8.76865 10.6194C8.76865 10.8271 8.69078 11.0347 8.5351 11.2422C8.37941 11.45 8.20809 11.642 8.02119 11.8184C7.89662 11.6938 7.75652 11.5668 7.60084 11.4369C7.4451 11.3072 7.27117 11.1931 7.07919 11.0943C6.88701 10.9958 6.66899 10.9128 6.42519 10.8452C6.18118 10.7778 5.90872 10.7439 5.60776 10.7439C5.07832 10.7439 4.63459 10.8505 4.27642 11.0632C3.9183 11.2761 3.63021 11.5536 3.41224 11.8962C3.19427 12.2388 3.03854 12.6307 2.94509 13.0718C2.85169 13.5131 2.80498 13.962 2.80498 14.4187C2.80498 14.9068 2.85169 15.3739 2.94509 15.8201C3.03848 16.2664 3.19929 16.661 3.42782 17.0034C3.65599 17.346 3.95454 17.6212 4.32312 17.8287C4.69144 18.0365 5.1508 18.1401 5.70116 18.1401C5.99161 18.1401 6.25905 18.1039 6.50306 18.0312C6.7468 17.9586 6.96237 17.8703 7.14922 17.7663C7.33607 17.6628 7.4996 17.5539 7.6397 17.4395C7.77985 17.3253 7.89662 17.2268 7.99008 17.1436C8.05236 17.2164 8.12484 17.3047 8.20804 17.4084C8.29168 17.5131 8.36964 17.6223 8.44159 17.7354C8.51413 17.8497 8.57641 17.9638 8.62844 18.0778C8.68027 18.1922 8.70626 18.2959 8.70626 18.3892C8.70626 18.5243 8.68027 18.6384 8.62844 18.7318C8.57636 18.8253 8.49337 18.9292 8.37931 19.0433ZM16.4037 17.8491C16.4037 18.6741 16.5236 19.2746 16.7639 19.6506C16.576 19.7235 16.401 19.7758 16.2392 19.8072C16.0771 19.8385 15.9075 19.8541 15.7301 19.8541C15.3542 19.8541 15.0695 19.781 14.8764 19.6348C14.6831 19.4888 14.5604 19.2799 14.5083 19.0082C14.2784 19.2487 13.9756 19.4522 13.5997 19.6194C13.2237 19.7861 12.7641 19.8699 12.2212 19.8699C11.9392 19.8699 11.6573 19.8308 11.3753 19.753C11.0933 19.6745 10.8373 19.5472 10.6077 19.3705C10.3778 19.1934 10.1899 18.9565 10.0438 18.6598C9.89739 18.3631 9.82444 18.0014 9.82444 17.5747C9.82444 17.0438 9.95225 16.6116 10.2082 16.2786C10.4641 15.9454 10.7852 15.6826 11.1717 15.4899C11.5579 15.2975 11.9757 15.165 12.4249 15.0919C12.8738 15.019 13.2864 14.9723 13.6623 14.9512C13.7878 14.9409 13.9103 14.9355 14.0305 14.9355H14.3673V14.6504C14.3673 14.249 14.2601 13.9638 14.0461 13.795C13.8319 13.6261 13.4846 13.5414 13.0044 13.5414C12.5553 13.5414 12.1558 13.6145 11.8061 13.7607C11.4561 13.907 11.1141 14.074 10.78 14.262C10.6337 14.0845 10.5161 13.8887 10.4276 13.6745C10.3388 13.4606 10.2944 13.3013 10.2944 13.1968C10.2944 13.0506 10.3752 12.9097 10.5372 12.7738C10.699 12.6382 10.921 12.5153 11.203 12.4057C11.485 12.296 11.8086 12.2074 12.1743 12.1394C12.5397 12.0716 12.9261 12.0376 13.3335 12.0376C13.8974 12.0376 14.3751 12.0951 14.7667 12.2099C15.1584 12.3249 15.4768 12.5024 15.7223 12.7425C15.9676 12.9829 16.1426 13.2829 16.247 13.6432C16.3513 14.0035 16.4037 14.424 16.4037 14.9042V17.8491ZM14.3985 16.032H14.1793C14.106 16.032 14.0329 16.0374 13.96 16.0477C13.6987 16.0688 13.4402 16.1 13.1846 16.1416C12.9285 16.1835 12.7014 16.2566 12.5032 16.361C12.3047 16.4655 12.1429 16.6013 12.0176 16.7682C11.8922 16.9354 11.8295 17.1496 11.8295 17.4106C11.8295 17.703 11.913 17.9509 12.0801 18.1546C12.2471 18.3583 12.5291 18.4601 12.9261 18.4601C13.1243 18.4601 13.3124 18.4341 13.49 18.3816C13.6675 18.3297 13.8241 18.2617 13.96 18.1782C14.0956 18.0946 14.2028 18.0033 14.2811 17.9039C14.3594 17.8048 14.3986 17.7135 14.3986 17.6299V16.032H14.3985ZM20.304 12.9461C20.4704 12.7478 20.7309 12.5466 21.0847 12.3429C21.4387 12.1393 21.8863 12.0375 22.4277 12.0375C22.8131 12.0375 23.18 12.1028 23.5288 12.2333C23.8773 12.364 24.1872 12.5755 24.4578 12.8677C24.7286 13.1602 24.9446 13.5467 25.106 14.0269C25.2674 14.5074 25.3481 15.0975 25.3481 15.797C25.3481 16.6115 25.2543 17.2827 25.067 17.8099C24.8794 18.3375 24.6376 18.7552 24.341 19.0632C24.0443 19.3713 23.7136 19.588 23.3494 19.7132C22.9849 19.8385 22.6205 19.9013 22.2563 19.9013C21.9543 19.9013 21.6913 19.8673 21.4677 19.7995C21.2437 19.7314 21.0538 19.656 20.8976 19.5723C20.7415 19.4888 20.6218 19.4054 20.5386 19.3216C20.4554 19.2382 20.4032 19.1806 20.3825 19.1492V23H18.252V12.2567C18.3044 12.2465 18.3676 12.236 18.4414 12.2255C18.5046 12.2152 18.5783 12.2073 18.6625 12.2019C18.7466 12.1968 18.8466 12.1942 18.9623 12.1942C19.3094 12.1942 19.604 12.2517 19.8461 12.3665C20.088 12.4815 20.2408 12.6746 20.304 12.9461ZM23.1237 15.844C23.1237 15.5307 23.0977 15.2385 23.0458 14.9668C22.9939 14.6954 22.9083 14.4604 22.7888 14.2619C22.6694 14.0636 22.5083 13.9094 22.3059 13.7997C22.1032 13.6901 21.8568 13.6354 21.5662 13.6354C21.1301 13.6354 20.8263 13.719 20.6549 13.8859C20.4837 14.0531 20.398 14.236 20.398 14.4342V17.7552C20.4809 17.8389 20.6287 17.9379 20.8417 18.0528C21.0547 18.1678 21.3011 18.225 21.5816 18.225C22.1112 18.225 22.5006 18.0164 22.7499 17.5985C22.9991 17.1809 23.1237 16.5959 23.1237 15.844ZM26.9924 18.5384C26.9192 18.3297 26.8722 18.1102 26.8514 17.8804C26.8304 17.6508 26.8201 17.4211 26.8201 17.1911V9.9227C26.893 9.91245 26.9714 9.90194 27.055 9.89137C27.1279 9.88112 27.2063 9.87333 27.29 9.86789C27.3735 9.86277 27.4569 9.8601 27.5406 9.8601C27.7075 9.8601 27.8748 9.87579 28.0419 9.90706C28.2088 9.93844 28.3603 10.0011 28.4963 10.095C28.6319 10.189 28.7415 10.3171 28.8251 10.4788C28.9087 10.6408 28.9504 10.8524 28.9504 11.1132V12.2254H31.1436V13.8076H28.9504V17.1481C28.9504 17.8766 29.2481 18.2407 29.8434 18.2407C29.9895 18.2407 30.1278 18.2173 30.2585 18.1702C30.389 18.1232 30.5064 18.0711 30.611 18.0136C30.7153 17.9562 30.8068 17.8962 30.8851 17.8335C30.9634 17.7708 31.0182 17.7239 31.0495 17.6925C31.2062 17.9224 31.3261 18.1214 31.4098 18.2893C31.4933 18.4575 31.5351 18.6152 31.5351 18.7627C31.5351 18.8998 31.4804 19.0343 31.3707 19.166C31.2609 19.2977 31.1068 19.4191 30.9085 19.5297C30.7101 19.6403 30.47 19.7299 30.188 19.7985C29.906 19.867 29.5978 19.9013 29.2637 19.9013C28.6161 19.9013 28.1123 19.7759 27.752 19.5254C27.3918 19.2746 27.1384 18.9456 26.9924 18.5384ZM36.5392 18.3347C36.8011 18.3347 37.0317 18.3061 37.231 18.2485C37.43 18.1913 37.6081 18.1208 37.7654 18.0372C37.9224 17.9538 38.0588 17.8623 38.1741 17.7631C38.2894 17.6639 38.3941 17.5726 38.4887 17.4889C38.6142 17.6454 38.7452 17.8467 38.8815 18.0919C39.0177 18.3375 39.0859 18.5384 39.0859 18.695C39.0859 18.9248 38.9552 19.1337 38.6943 19.3216C38.475 19.4888 38.1641 19.6324 37.7623 19.7524C37.3601 19.8724 36.8874 19.9325 36.3446 19.9325C35.8535 19.9325 35.3706 19.8699 34.8956 19.7446C34.4203 19.6193 33.9973 19.3999 33.6267 19.0866C33.2559 18.7734 32.9556 18.3531 32.7259 17.8257C32.4962 17.2983 32.3813 16.6327 32.3813 15.8284C32.3813 15.1704 32.4832 14.6041 32.6867 14.1288C32.8904 13.6537 33.1618 13.2594 33.5015 12.9461C33.8406 12.6328 34.2244 12.4032 34.6527 12.2568C35.0808 12.1107 35.5195 12.0375 35.9686 12.0375C36.5534 12.0375 37.0494 12.1291 37.4567 12.3117C37.8641 12.4945 38.1954 12.74 38.4515 13.0479C38.7072 13.356 38.8925 13.7085 39.0075 14.1053C39.1223 14.5023 39.1798 14.9198 39.1798 15.3584V15.5777C39.1798 15.6615 39.1772 15.75 39.172 15.844C39.1667 15.9381 39.1615 16.0296 39.1564 16.1181C39.151 16.2071 39.1431 16.2775 39.133 16.3297H34.5117C34.5536 16.9041 34.7317 17.3818 35.0461 17.7631C35.3602 18.1444 35.858 18.3347 36.5392 18.3347ZM37.2531 15.1547C37.2531 14.6535 37.1558 14.2462 36.9615 13.9329C36.7672 13.6197 36.4178 13.4629 35.9139 13.4629C35.4831 13.4629 35.1392 13.6118 34.8819 13.9094C34.6244 14.2071 34.4961 14.6222 34.4961 15.1547H37.2531ZM42.8873 12.9856C42.9498 12.8925 43.0333 12.7889 43.1379 12.6748C43.2421 12.5608 43.3702 12.4572 43.5217 12.364C43.673 12.2708 43.8401 12.1929 44.023 12.1308C44.2055 12.0686 44.4014 12.0375 44.6105 12.0375C44.7357 12.0375 44.8689 12.048 45.0098 12.0686C45.1508 12.0894 45.2812 12.1283 45.4014 12.1851C45.5214 12.2422 45.6181 12.3197 45.6912 12.4181C45.7642 12.5166 45.8009 12.6382 45.8009 12.7831C45.8009 13.011 45.7433 13.2726 45.6286 13.5681C45.5135 13.8637 45.3989 14.1158 45.284 14.3246C45.1063 14.1784 44.9288 14.0662 44.7513 13.9878C44.5737 13.9095 44.3648 13.8703 44.1247 13.8703C43.801 13.8703 43.5295 13.9646 43.3103 14.153C43.0908 14.3415 42.9812 14.5667 42.9812 14.8285V19.8996H40.8509V12.2567C40.903 12.2465 40.9656 12.236 41.0388 12.2255C41.1014 12.2152 41.1745 12.2073 41.2581 12.2019C41.3416 12.1968 41.4407 12.1942 41.5557 12.1942C41.8898 12.1942 42.1796 12.2589 42.4251 12.3883C42.6703 12.5174 42.8246 12.7167 42.8873 12.9856ZM48.9443 12.9856C49.0069 12.8925 49.0904 12.7889 49.1949 12.6748C49.2992 12.5608 49.4272 12.4572 49.5787 12.364C49.73 12.2708 49.8971 12.1929 50.08 12.1308C50.2626 12.0686 50.4584 12.0375 50.6674 12.0375C50.7927 12.0375 50.9258 12.048 51.0668 12.0686C51.2077 12.0894 51.3383 12.1283 51.4584 12.1851C51.5785 12.2422 51.675 12.3197 51.7484 12.4181C51.8213 12.5166 51.858 12.6382 51.858 12.7831C51.858 13.011 51.8003 13.2726 51.6857 13.5681C51.5705 13.8637 51.4558 14.1158 51.341 14.3246C51.1634 14.1784 50.9857 14.0662 50.8083 13.9878C50.6308 13.9095 50.4219 13.8703 50.1818 13.8703C49.858 13.8703 49.5865 13.9646 49.3672 14.153C49.1479 14.3415 49.0383 14.5667 49.0383 14.8285V19.8996H46.9079V12.2567C46.96 12.2465 47.0227 12.236 47.0959 12.2255C47.1586 12.2152 47.2316 12.2073 47.3152 12.2019C47.3986 12.1968 47.4977 12.1942 47.6127 12.1942C47.947 12.1942 48.2367 12.2589 48.4821 12.3883C48.7274 12.5174 48.8815 12.7167 48.9443 12.9856ZM59.1108 17.8491C59.1108 18.6741 59.2308 19.2746 59.4711 19.6506C59.2831 19.7235 59.1082 19.7758 58.9464 19.8072C58.7844 19.8385 58.6147 19.8541 58.4373 19.8541C58.0612 19.8541 57.7767 19.781 57.5836 19.6348C57.3901 19.4888 57.2676 19.2799 57.2154 19.0082C56.9856 19.2487 56.6828 19.4522 56.3068 19.6194C55.9309 19.7861 55.4712 19.8699 54.9284 19.8699C54.6464 19.8699 54.3645 19.8308 54.0824 19.753C53.8005 19.6745 53.5444 19.5472 53.3149 19.3705C53.085 19.1934 52.8971 18.9565 52.7509 18.6598C52.6046 18.3631 52.5317 18.0014 52.5317 17.5747C52.5317 17.0438 52.6593 16.6116 52.9155 16.2786C53.1712 15.9454 53.4924 15.6826 53.8789 15.4899C54.2651 15.2975 54.6828 15.165 55.1321 15.0919C55.5809 15.019 55.9936 14.9723 56.3695 14.9512C56.4949 14.9409 56.6175 14.9355 56.7378 14.9355H57.0745V14.6504C57.0745 14.249 56.9672 13.9638 56.7533 13.795C56.539 13.6261 56.1918 13.5414 55.7116 13.5414C55.2625 13.5414 54.8631 13.6145 54.5133 13.7607C54.1633 13.907 53.8213 14.074 53.4872 14.262C53.3409 14.0845 53.2232 13.8887 53.1347 13.6745C53.046 13.4606 53.0016 13.3013 53.0016 13.1968C53.0016 13.0506 53.0824 12.9097 53.2444 12.7738C53.4062 12.6382 53.6282 12.5153 53.9101 12.4057C54.1922 12.296 54.5157 12.2074 54.8813 12.1394C55.2468 12.0716 55.6333 12.0376 56.0406 12.0376C56.6045 12.0376 57.0823 12.0951 57.4739 12.2099C57.8655 12.3249 58.1839 12.5024 58.4294 12.7425C58.6747 12.9829 58.8496 13.2829 58.9542 13.6432C59.0584 14.0035 59.1108 14.424 59.1108 14.9042V17.8491ZM57.1057 16.032H56.8864C56.8132 16.032 56.7401 16.0374 56.6672 16.0477C56.406 16.0688 56.1474 16.1 55.8917 16.1416C55.6357 16.1835 55.4086 16.2566 55.2103 16.361C55.0118 16.4655 54.85 16.6013 54.7247 16.7682C54.5994 16.9354 54.5367 17.1496 54.5367 17.4106C54.5367 17.703 54.6202 17.9509 54.7873 18.1546C54.9543 18.3583 55.2364 18.4601 55.6333 18.4601C55.8316 18.4601 56.0196 18.4341 56.1972 18.3816C56.3747 18.3297 56.5313 18.2617 56.6672 18.1782C56.8027 18.0946 56.91 18.0033 56.9883 17.9039C57.0666 17.8048 57.1058 17.7135 57.1058 17.6299V16.032H57.1057Z" fill="#050038"/>
</g>
<defs>
<clipPath id="clip0_1_48">
<rect width="59" height="32" fill="white" transform="translate(0.625)"/>
</clipPath>
</defs>
</svg>
