<svg width="224" height="64" viewBox="0 0 224 64" fill="none" xmlns="http://www.w3.org/2000/svg">
<path fill-rule="evenodd" clip-rule="evenodd" d="M97.7555 49.0962V37.0112H100.964V49.0962H97.7555ZM112.37 39.9384C112.324 39.9251 111.013 39.5736 109.936 39.5736C108.688 39.5736 108.01 39.9789 108.01 40.5538C108.01 41.2829 108.926 41.5376 109.438 41.6949L110.296 41.9603C112.317 42.5838 113.237 43.9263 113.237 45.3845C113.237 48.3916 110.513 49.403 108.13 49.403C106.474 49.403 104.923 49.1064 104.77 49.0756V46.3196C105.045 46.3867 106.349 46.7648 107.71 46.7648C109.259 46.7648 109.971 46.3257 109.971 45.6478C109.971 45.0407 109.354 44.6902 108.582 44.456C108.395 44.3935 108.111 44.3069 107.917 44.247C106.184 43.7146 104.738 42.7247 104.738 40.7444C104.738 38.5048 106.466 37.002 109.336 37.002C110.852 37.002 112.277 37.3591 112.369 37.3827V39.9379L112.37 39.9384ZM141.978 43.2017C141.978 46.6275 139.254 49.402 135.46 49.402C131.665 49.402 128.944 46.6275 128.944 43.2007C128.944 39.7822 131.666 37.0046 135.46 37.0046C139.254 37.0046 141.978 39.7821 141.978 43.2017ZM135.46 40.0537C133.613 40.0537 132.241 41.4643 132.241 43.2017C132.241 44.9443 133.613 46.3524 135.46 46.3524C137.304 46.3524 138.68 44.9443 138.68 43.2017C138.68 41.4643 137.304 40.0537 135.46 40.0537ZM93.1715 40.6481C93.0462 40.5845 92.0458 40.0096 90.5561 40.0096C88.5406 40.0096 87.1445 41.3685 87.1445 43.2023C87.1445 44.9812 88.4824 46.3974 90.5576 46.3974C92.0203 46.3974 93.0379 45.8333 93.1715 45.7626V48.9757C92.7852 49.0818 91.7224 49.402 90.3319 49.402C86.8346 49.402 83.7637 47.0594 83.7637 43.2007C83.7637 39.6274 86.544 37.0046 90.333 37.0046C91.7977 37.0046 92.8788 37.3489 93.1715 37.4339V40.6481ZM125.666 40.6481C125.539 40.5845 124.536 40.0096 123.049 40.0096C121.034 40.0096 119.639 41.3685 119.639 43.2023C119.639 44.9812 120.974 46.3974 123.048 46.3974C124.511 46.3974 125.529 45.8333 125.666 45.7626V48.9757C125.276 49.0818 124.211 49.402 122.83 49.402C119.328 49.402 116.254 47.0594 116.254 43.2007C116.254 39.6274 119.035 37.0046 122.83 37.0046C124.289 37.0046 125.372 37.3489 125.666 37.4339V40.6481Z" fill="#050038"/>
<path fill-rule="evenodd" clip-rule="evenodd" d="M148 20.6704C147.998 19.8419 147.307 19.1712 146.458 19.1722C145.607 19.1712 144.917 19.8419 144.915 20.6709V23.8133C144.901 24.358 145.192 24.8673 145.675 25.1429C146.158 25.4196 146.756 25.4196 147.24 25.1429C147.723 24.8662 148.013 24.3569 147.999 23.8133V20.6704H148ZM139.522 16.5463C139.522 15.7208 138.834 15.0486 137.962 15.0486C137.113 15.0471 136.424 15.7167 136.422 16.5442V16.5453V23.8138C136.422 24.6413 137.11 25.312 137.959 25.312H137.962C138.833 25.312 139.522 24.6423 139.522 23.8128V16.5437V16.5458V16.5463ZM131.029 10.9025C131.028 10.0745 130.338 9.40426 129.489 9.40528H129.488C128.639 9.40374 127.949 10.0734 127.947 10.9014V10.9019V26.7989C127.921 27.3502 128.209 27.8713 128.696 28.1531C129.184 28.4355 129.792 28.4344 130.279 28.1506C130.765 27.8693 131.053 27.3502 131.028 26.8V10.9025H131.029ZM122.533 16.5463C122.532 15.7188 121.842 15.0486 120.993 15.0496C120.144 15.0481 119.454 15.7183 119.452 16.5458V16.5463V23.8133C119.454 24.6408 120.143 25.311 120.993 25.3095C121.842 25.311 122.532 24.6408 122.533 23.8133V16.5442V16.5463ZM114.04 20.6704C114.038 19.8444 113.35 19.1763 112.503 19.1773C111.655 19.1753 110.965 19.8424 110.959 20.6694V23.8138C110.96 24.6413 111.65 25.3115 112.499 25.31C113.349 25.312 114.039 24.6418 114.04 23.8143V23.8138V20.6709V20.6704ZM105.561 16.5463C105.559 15.7152 104.867 15.0435 104.015 15.0445C103.163 15.0435 102.47 15.7152 102.469 16.5463V23.8133C102.47 24.6434 103.162 25.3151 104.014 25.3141H104.015C104.866 25.3156 105.558 24.6439 105.56 23.8138V23.8133V16.5442V16.5463H105.561ZM97.0704 10.9025C97.0704 10.0775 96.3762 9.40733 95.525 9.40733C94.6728 9.40733 93.9786 10.076 93.9786 10.9025V26.7989C93.9802 27.6295 94.6723 28.3017 95.5245 28.3002C96.3767 28.3017 97.0688 27.6295 97.0704 26.7989V10.9025ZM88.5813 16.5463C88.5798 15.7152 87.8877 15.0435 87.0349 15.0445C86.1827 15.0435 85.4906 15.7152 85.4891 16.5463V23.8133C85.4906 24.6434 86.1822 25.3151 87.0339 25.3141H87.0344C87.8866 25.3156 88.5782 24.6439 88.5803 23.8138V23.8133V16.5442V16.5463H88.5813ZM80.0912 20.6709C80.0912 19.8465 79.3971 19.1768 78.5459 19.1768C77.6947 19.1768 77 19.8465 77 20.6699V23.8128C77.0016 24.6434 77.6936 25.3156 78.5459 25.3141C79.3976 25.3156 80.0902 24.6439 80.0917 23.8133V20.6704L80.0912 20.6709Z" fill="#050038"/>
</svg>
