<svg width="224" height="64" viewBox="0 0 224 64" fill="none" xmlns="http://www.w3.org/2000/svg">
<path d="M154.912 40.4565C154.912 39.0517 156.053 37.9121 157.457 37.9121C158.861 37.9121 160 39.0518 160 40.4565C160 41.8612 158.861 43.0001 157.457 43.0001C156.053 43.0001 154.912 41.8612 154.912 40.4565Z" fill="#050038"/>
<path d="M73.7654 33.7182C73.7654 32.1066 73.454 30.911 72.8312 30.132C72.2075 29.3538 71.263 28.9651 69.993 28.9651H68.642V38.8203H69.6756C71.0862 38.8203 72.1198 38.4021 72.7781 37.5628C73.4356 36.725 73.7654 35.4432 73.7654 33.7182ZM78.5833 33.5503C78.5833 36.4864 77.794 38.7488 76.2156 40.3369C74.6371 41.9257 72.4181 42.7201 69.5578 42.7201H64V25.1264H69.9458C72.7038 25.1264 74.833 25.8486 76.3333 27.2924C77.8331 28.7369 78.5833 30.8219 78.5833 33.5503ZM93.9784 42.7199H98.401V25.0525H93.9784V42.7199ZM104.614 36.1299C104.614 37.2563 104.761 38.1155 105.055 38.706C105.349 39.2972 105.843 39.5924 106.536 39.5924C107.222 39.5924 107.707 39.2972 107.99 38.706C108.273 38.1155 108.413 37.2564 108.413 36.1299C108.413 35.0093 108.271 34.1642 107.984 33.5936C107.697 33.0215 107.207 32.7351 106.513 32.7351C105.834 32.7351 105.349 33.02 105.055 33.5869C104.761 34.1546 104.614 35.002 104.614 36.1299ZM112.915 36.1299C112.915 38.276 112.352 39.9502 111.224 41.1502C110.097 42.351 108.519 42.9518 106.491 42.9518C104.546 42.9518 102.998 42.3378 101.848 41.1097C100.698 39.8817 100.123 38.2222 100.123 36.1299C100.123 33.9904 100.686 32.328 101.814 31.1426C102.942 29.9573 104.523 29.3646 106.56 29.3646C107.818 29.3646 108.931 29.6392 109.895 30.1877C110.861 30.7363 111.606 31.5218 112.129 32.5452C112.653 33.567 112.915 34.7627 112.915 36.1299ZM114.671 42.72H119.094V35.9584V29.5966H114.671V42.72ZM114.671 28.0093H119.094V25.0518H114.671V28.0093ZM128.056 39.3727C128.653 39.3727 129.364 39.221 130.194 38.9199V42.2219C129.597 42.484 129.03 42.6718 128.492 42.783C127.953 42.8956 127.32 42.9516 126.597 42.9516C125.112 42.9516 124.041 42.5783 123.384 41.8332C122.729 41.0881 122.401 39.944 122.401 38.4002V32.9904H120.852V29.5978H122.401V26.2465L126.858 25.4712V29.5978H129.68V32.9904H126.858V38.0983C126.858 38.9479 127.258 39.3727 128.056 39.3727ZM138.293 39.3727C138.89 39.3727 139.601 39.221 140.431 38.9199V42.2219C139.835 42.484 139.267 42.6718 138.729 42.783C138.189 42.8956 137.559 42.9516 136.834 42.9516C135.349 42.9516 134.278 42.5783 133.622 41.8332C132.966 41.0881 132.638 39.944 132.638 38.4002V32.9904H131.088V29.5978H132.638V26.1957L137.094 25.4712V29.5978H139.918V32.9904H137.094V38.0983C137.094 38.9479 137.494 39.3727 138.293 39.3727ZM146.012 34.5312C146.072 33.8126 146.278 33.2862 146.628 32.9497C146.98 32.614 147.414 32.4462 147.934 32.4462C148.501 32.4462 148.952 32.6346 149.286 33.0145C149.622 33.3922 149.797 33.898 149.812 34.5312H146.012ZM152.249 30.9118C151.198 29.8811 149.706 29.365 147.777 29.365C145.748 29.365 144.188 29.9577 143.093 31.143C142 32.3284 141.453 34.0291 141.453 36.2451C141.453 38.3912 142.044 40.0462 143.224 41.208C144.404 42.3698 146.061 42.9514 148.196 42.9514C149.22 42.9514 150.102 42.8815 150.842 42.7424C151.576 42.6047 152.288 42.3558 152.977 41.9966L152.298 39.0391C151.796 39.2438 151.319 39.4014 150.869 39.5052C150.218 39.6561 149.504 39.7319 148.726 39.7319C147.874 39.7319 147.201 39.5236 146.707 39.1069C146.214 38.6894 145.951 38.1137 145.921 37.3804H153.827V35.3653C153.827 33.4268 153.301 31.9418 152.249 30.9118ZM84.4531 34.5312C84.5135 33.8126 84.719 33.2862 85.0693 32.9497C85.4205 32.614 85.8556 32.4462 86.3761 32.4462C86.9415 32.4462 87.3922 32.6346 87.7271 33.0145C88.0636 33.3922 88.238 33.898 88.2535 34.5312H84.4531ZM90.6913 30.9118C89.6393 29.8811 88.1484 29.365 86.2179 29.365C84.1889 29.365 82.6288 29.9577 81.5354 31.143C80.4421 32.3284 79.8944 34.0291 79.8944 36.2451C79.8944 38.3912 80.4848 40.0462 81.6658 41.208C82.8452 42.3698 84.5025 42.9514 86.6368 42.9514C87.6616 42.9514 88.5437 42.8815 89.2828 42.7424C90.0176 42.6047 90.7288 42.3558 91.4193 41.9966L90.739 39.0391C90.2376 39.2438 89.7605 39.4014 89.3107 39.5052C88.6584 39.6561 87.9451 39.7319 87.1674 39.7319C86.3156 39.7319 85.642 39.5236 85.1487 39.1069C84.6546 38.6894 84.3926 38.1137 84.3624 37.3804H92.2681V35.3653C92.2681 33.4268 91.7424 31.9418 90.6911 30.9118" fill="#050038"/>
</svg>
