<svg width="134" height="46" viewBox="0 0 134 46" fill="none" xmlns="http://www.w3.org/2000/svg">
<g clip-path="url(#clip0_1_435)">
<path d="M126.18 1.05371H7.44444C3.58995 1.05371 0.465271 4.17839 0.465271 8.03288V37.8107C0.465271 41.6651 3.58995 44.7898 7.44444 44.7898H126.18C130.034 44.7898 133.159 41.6651 133.159 37.8107V8.03288C133.159 4.17839 130.034 1.05371 126.18 1.05371Z" fill="#050038"/>
<path d="M27.6594 23.2576C27.6714 22.3255 27.919 21.4116 28.3791 20.601C28.8391 19.7903 29.4969 19.1092 30.2909 18.6211C29.7864 17.9006 29.121 17.3078 28.3473 16.8895C27.5737 16.4713 26.7131 16.2392 25.8341 16.2117C23.9589 16.0149 22.1411 17.3337 21.1855 17.3337C20.2115 17.3337 18.7403 16.2312 17.1561 16.2638C16.1313 16.2969 15.1326 16.5949 14.2573 17.1287C13.382 17.6626 12.6598 18.414 12.1613 19.31C10.0017 23.0489 11.6126 28.5441 13.6813 31.5665C14.7164 33.0464 15.926 34.6997 17.5088 34.641C19.0577 34.5767 19.6362 33.6534 21.5058 33.6534C23.3581 33.6534 23.9008 34.641 25.5157 34.6037C27.1777 34.5767 28.2249 33.1172 29.2236 31.6232C29.9673 30.5687 30.5395 29.4032 30.9192 28.1699C29.9536 27.7615 29.1296 27.078 28.5499 26.2044C27.9703 25.3308 27.6605 24.3059 27.6594 23.2576Z" fill="white"/>
<path d="M24.6083 14.224C25.5145 13.1361 25.9609 11.7378 25.8528 10.3262C24.4683 10.4715 23.1895 11.1332 22.271 12.1794C21.822 12.6904 21.4781 13.285 21.2589 13.929C21.0398 14.573 20.9497 15.254 20.9939 15.9329C21.6863 15.94 22.3714 15.7899 22.9975 15.4939C23.6236 15.1979 24.1744 14.7637 24.6083 14.224Z" fill="white"/>
<path d="M47.2391 30.8946H41.9535L40.6842 34.6426H38.4454L43.4518 20.7759H45.7778L50.7843 34.6426H48.5073L47.2391 30.8946ZM42.5009 29.1651H46.6906L44.6253 23.0824H44.5675L42.5009 29.1651Z" fill="white"/>
<path d="M61.5962 29.588C61.5962 32.7297 59.9146 34.7482 57.3771 34.7482C56.7343 34.7818 56.095 34.6337 55.5325 34.321C54.9699 34.0081 54.5068 33.5432 54.1962 32.9794H54.1482V37.9869H52.0729V24.5325H54.0816V26.214H54.1198C54.4447 25.6529 54.9156 25.1905 55.4825 24.8757C56.0494 24.5609 56.6909 24.4058 57.339 24.4267C59.9048 24.4267 61.5962 26.455 61.5962 29.588ZM59.4632 29.588C59.4632 27.5411 58.4055 26.1955 56.7915 26.1955C55.2059 26.1955 54.1394 27.5695 54.1394 29.588C54.1394 31.6251 55.2059 32.9893 56.7915 32.9893C58.4055 32.9893 59.4632 31.6534 59.4632 29.588Z" fill="white"/>
<path d="M72.7248 29.588C72.7248 32.7297 71.0432 34.7482 68.5056 34.7482C67.8628 34.7818 67.2235 34.6337 66.661 34.3209C66.0984 34.0081 65.6353 33.5432 65.3246 32.9794H65.2766V37.9869H63.2015V24.5325H65.2101V26.214H65.2483C65.5732 25.6529 66.0441 25.1904 66.6109 24.8757C67.1778 24.5609 67.8194 24.4058 68.4674 24.4267C71.0334 24.4267 72.7248 26.455 72.7248 29.588ZM70.5918 29.588C70.5918 27.5411 69.5339 26.1955 67.92 26.1955C66.3345 26.1955 65.268 27.5695 65.268 29.588C65.268 31.6251 66.3345 32.9893 67.92 32.9893C69.534 32.9893 70.5918 31.6534 70.5918 29.588Z" fill="white"/>
<path d="M80.0783 30.779C80.2321 32.1541 81.5679 33.057 83.3934 33.057C85.1426 33.057 86.401 32.1541 86.401 30.9142C86.401 29.8379 85.642 29.1934 83.8449 28.7517L82.0477 28.3188C79.5015 27.7038 78.3194 26.513 78.3194 24.5806C78.3194 22.188 80.4044 20.5447 83.365 20.5447C86.2952 20.5447 88.3039 22.188 88.3715 24.5806H86.2767C86.1513 23.1968 85.0074 22.3615 83.3356 22.3615C81.6639 22.3615 80.52 23.2066 80.52 24.4367C80.52 25.4171 81.2506 25.9939 83.0379 26.4355L84.5656 26.8107C87.4107 27.4835 88.5929 28.6264 88.5929 30.6546C88.5929 33.2489 86.5264 34.8737 83.2396 34.8737C80.1645 34.8737 78.0881 33.2871 77.954 30.7789L80.0783 30.779Z" fill="white"/>
<path d="M93.0723 22.1401V24.5327H94.9949V26.176H93.0723V31.7495C93.0723 32.6154 93.4567 33.0189 94.3016 33.0189C94.5305 33.0149 94.7585 32.9989 94.9846 32.9709V34.6045C94.605 34.6755 94.2188 34.7076 93.8317 34.7004C91.7852 34.7004 90.9869 33.9316 90.9869 31.9709V26.176H89.517V24.5327H90.9869V22.1401H93.0723Z" fill="white"/>
<path d="M96.1069 29.588C96.1069 26.4071 97.981 24.4082 100.902 24.4082C103.833 24.4082 105.698 26.407 105.698 29.588C105.698 32.7777 103.844 34.7679 100.902 34.7679C97.9624 34.7679 96.1069 32.7777 96.1069 29.588ZM103.584 29.588C103.584 27.406 102.584 26.1181 100.902 26.1181C99.2205 26.1181 98.222 27.4158 98.222 29.588C98.222 31.7789 99.2205 33.0569 100.902 33.0569C102.584 33.0569 103.584 31.7789 103.584 29.588Z" fill="white"/>
<path d="M107.408 24.5329H109.388V26.2535H109.435C109.569 25.7161 109.885 25.2412 110.328 24.9086C110.77 24.5759 111.314 24.4059 111.868 24.427C112.107 24.4262 112.345 24.4522 112.579 24.5045V26.4455C112.276 26.3533 111.962 26.3109 111.646 26.3201C111.345 26.3079 111.044 26.361 110.765 26.4759C110.486 26.5908 110.235 26.7647 110.03 26.9857C109.824 27.2067 109.669 27.4695 109.575 27.7561C109.481 28.0427 109.449 28.3464 109.484 28.6461V34.6428H107.408V24.5329Z" fill="white"/>
<path d="M122.148 31.673C121.868 33.5084 120.082 34.7679 117.794 34.7679C114.854 34.7679 113.028 32.7973 113.028 29.6361C113.028 26.4649 114.863 24.4082 117.707 24.4082C120.504 24.4082 122.263 26.3296 122.263 29.395V30.106H115.123V30.2314C115.09 30.6035 115.137 30.9783 115.26 31.331C115.382 31.6838 115.579 32.0062 115.836 32.277C116.093 32.5479 116.406 32.7609 116.751 32.9019C117.097 33.0429 117.47 33.1088 117.843 33.095C118.333 33.141 118.825 33.0275 119.246 32.7712C119.667 32.515 119.993 32.1299 120.178 31.673H122.148ZM115.133 28.6556H120.187C120.205 28.3211 120.155 27.9864 120.038 27.6723C119.922 27.3583 119.741 27.0718 119.508 26.8309C119.275 26.59 118.995 26.3998 118.685 26.2722C118.375 26.1447 118.042 26.0826 117.707 26.0897C117.369 26.0878 117.034 26.1526 116.721 26.2808C116.409 26.4089 116.125 26.5977 115.885 26.8363C115.646 27.0748 115.456 27.3584 115.327 27.6707C115.198 27.9829 115.132 28.3177 115.133 28.6557V28.6556Z" fill="white"/>
<path d="M42.2407 10.3381C42.6757 10.3069 43.1123 10.3726 43.5189 10.5305C43.9255 10.6885 44.2919 10.9347 44.5919 11.2514C44.8918 11.5681 45.1177 11.9474 45.2533 12.3621C45.3888 12.7766 45.4307 13.2161 45.3758 13.6488C45.3758 15.7775 44.2254 17.0011 42.2407 17.0011H39.8339V10.3381H42.2407ZM40.8688 16.0588H42.125C42.4359 16.0774 42.7471 16.0264 43.0358 15.9096C43.3244 15.7927 43.5835 15.6131 43.794 15.3835C44.0045 15.1539 44.1611 14.8803 44.2525 14.5827C44.344 14.2849 44.3678 13.9705 44.3224 13.6624C44.3645 13.3555 44.3382 13.0431 44.2454 12.7476C44.1526 12.4521 43.9956 12.1807 43.7855 11.953C43.5756 11.7253 43.3177 11.5468 43.0307 11.4304C42.7436 11.314 42.4344 11.2625 42.125 11.2797H40.8688V16.0588Z" fill="white"/>
<path d="M46.5444 14.4847C46.5128 14.1543 46.5507 13.8209 46.6554 13.5059C46.7602 13.1909 46.9297 12.9013 47.1529 12.6557C47.3761 12.4101 47.6483 12.2138 47.9519 12.0794C48.2554 11.9452 48.5837 11.8757 48.9157 11.8757C49.2477 11.8757 49.576 11.9452 49.8795 12.0794C50.1831 12.2138 50.4552 12.4101 50.6785 12.6557C50.9017 12.9013 51.0712 13.1909 51.176 13.5059C51.2808 13.8209 51.3186 14.1543 51.287 14.4847C51.3192 14.8155 51.2819 15.1493 51.1773 15.4649C51.0728 15.7803 50.9034 16.0705 50.6801 16.3166C50.4568 16.5628 50.1845 16.7594 49.8806 16.894C49.5767 17.0286 49.2481 17.0981 48.9157 17.0981C48.5834 17.0981 48.2547 17.0286 47.9509 16.894C47.6469 16.7594 47.3746 16.5628 47.1512 16.3166C46.928 16.0705 46.7586 15.7803 46.654 15.4649C46.5495 15.1493 46.5122 14.8155 46.5444 14.4847ZM50.2663 14.4847C50.2663 13.3948 49.7766 12.7573 48.9173 12.7573C48.0548 12.7573 47.5695 13.3948 47.5695 14.4847C47.5695 15.5834 48.0548 16.2158 48.9173 16.2158C49.7767 16.2158 50.2663 15.5791 50.2663 14.4847Z" fill="white"/>
<path d="M57.5915 17.0012H56.5621L55.5229 13.2978H55.4444L54.4095 17.0012H53.3899L52.0039 11.9729H53.0104L53.9112 15.8098H53.9853L55.0191 11.9729H55.971L57.0049 15.8098H57.0833L57.9797 11.9729H58.9721L57.5915 17.0012Z" fill="white"/>
<path d="M60.1371 11.9729H61.0925V12.7717H61.1666C61.2923 12.4848 61.5045 12.2442 61.7735 12.0837C62.0425 11.9231 62.3548 11.8504 62.667 11.8758C62.9118 11.8574 63.1575 11.8943 63.3859 11.9838C63.6144 12.0732 63.8197 12.2129 63.9869 12.3925C64.1541 12.572 64.2787 12.787 64.3514 13.0213C64.4243 13.2556 64.4434 13.5033 64.4075 13.7459V17.001H63.4151V13.9951C63.4151 13.1871 63.064 12.7852 62.3301 12.7852C62.164 12.7775 61.9982 12.8058 61.8441 12.8682C61.6899 12.9305 61.551 13.0254 61.4369 13.1465C61.323 13.2675 61.2364 13.4118 61.1834 13.5693C61.1302 13.727 61.1119 13.8942 61.1295 14.0595V17.0011H60.1371V11.9729Z" fill="white"/>
<path d="M65.9895 10.01H66.9818V17.0012H65.9895V10.01Z" fill="white"/>
<path d="M68.3616 14.4848C68.3301 14.1544 68.3678 13.821 68.4726 13.506C68.5775 13.191 68.7469 12.9014 68.9703 12.6557C69.1935 12.4101 69.4657 12.2138 69.7693 12.0794C70.0729 11.9452 70.4012 11.8757 70.7331 11.8757C71.0651 11.8757 71.3934 11.9452 71.697 12.0794C72.0006 12.2138 72.2727 12.4101 72.4961 12.6557C72.7193 12.9014 72.8888 13.191 72.9936 13.506C73.0984 13.821 73.1363 14.1544 73.1046 14.4848C73.1368 14.8156 73.0994 15.1494 72.9949 15.465C72.8904 15.7804 72.721 16.0706 72.4976 16.3167C72.2743 16.5628 72.0019 16.7595 71.698 16.894C71.3942 17.0287 71.0655 17.0982 70.7331 17.0982C70.4008 17.0982 70.0721 17.0287 69.7682 16.894C69.4643 16.7595 69.1919 16.5628 68.9686 16.3167C68.7453 16.0706 68.5759 15.7804 68.4713 15.465C68.3668 15.1494 68.3294 14.8156 68.3616 14.4848ZM72.0835 14.4848C72.0835 13.3949 71.5938 12.7574 70.7345 12.7574C69.8719 12.7574 69.3867 13.3949 69.3867 14.4848C69.3867 15.5835 69.872 16.2159 70.7345 16.2159C71.5938 16.2159 72.0835 15.5792 72.0835 14.4848Z" fill="white"/>
<path d="M74.1481 15.5791C74.1481 14.6739 74.8221 14.1522 76.0184 14.078L77.3804 13.9995V13.5654C77.3804 13.0344 77.0292 12.7345 76.3509 12.7345C75.797 12.7345 75.4131 12.9379 75.303 13.2934H74.3422C74.4437 12.4297 75.2561 11.8757 76.3967 11.8757C77.6573 11.8757 78.3684 12.5033 78.3684 13.5654V17.001H77.4131V16.2945H77.3345C77.1752 16.5479 76.9514 16.7545 76.6861 16.8933C76.4207 17.0319 76.1233 17.0977 75.8242 17.084C75.6132 17.1059 75.3998 17.0834 75.198 17.0178C74.9961 16.9523 74.8102 16.8452 74.6523 16.7034C74.4944 16.5615 74.3679 16.3883 74.2811 16.1946C74.1943 16.001 74.149 15.7913 74.1481 15.5791ZM77.3804 15.1494V14.729L76.1525 14.8075C75.46 14.8539 75.146 15.0894 75.146 15.5327C75.146 15.9853 75.5386 16.2486 76.0784 16.2486C76.2366 16.2646 76.3964 16.2487 76.5482 16.2017C76.7001 16.1547 76.841 16.0776 76.9624 15.975C77.0838 15.8725 77.1835 15.7466 77.2553 15.6047C77.3271 15.4628 77.3696 15.308 77.3804 15.1494Z" fill="white"/>
<path d="M79.6733 14.4849C79.6733 12.896 80.4902 11.8895 81.7606 11.8895C82.0748 11.875 82.3867 11.9503 82.6598 12.1065C82.9328 12.2627 83.1558 12.4934 83.3025 12.7716H83.3767V10.01H84.369V17.0012H83.4182V16.2068H83.3396C83.1815 16.483 82.9508 16.7109 82.6724 16.8656C82.3941 17.0202 82.0787 17.0957 81.7606 17.084C80.4814 17.0841 79.6733 16.0775 79.6733 14.4849ZM80.6984 14.4849C80.6984 15.5514 81.2012 16.1931 82.042 16.1931C82.8784 16.1931 83.3953 15.5421 83.3953 14.4892C83.3953 13.4412 82.873 12.781 82.042 12.781C81.2066 12.781 80.6984 13.4271 80.6984 14.4849Z" fill="white"/>
<path d="M88.474 14.4847C88.4423 14.1543 88.4802 13.8209 88.585 13.5059C88.6898 13.1909 88.8592 12.9013 89.0825 12.6557C89.3057 12.4101 89.5779 12.2138 89.8814 12.0794C90.185 11.9452 90.5133 11.8757 90.8452 11.8757C91.1772 11.8757 91.5055 11.9452 91.8091 12.0794C92.1126 12.2138 92.3847 12.4101 92.6081 12.6557C92.8313 12.9013 93.0008 13.1909 93.1058 13.5059C93.21 13.8209 93.2482 14.1543 93.2166 14.4847C93.2491 14.8155 93.211 15.1493 93.1068 15.4649C93.0023 15.7803 92.833 16.0705 92.6096 16.3166C92.3863 16.5628 92.114 16.7594 91.8101 16.894C91.5063 17.0286 91.1776 17.0981 90.8452 17.0981C90.5129 17.0981 90.1843 17.0286 89.8803 16.894C89.5765 16.7594 89.3041 16.5628 89.0808 16.3166C88.8575 16.0705 88.6881 15.7803 88.5836 15.4649C88.4791 15.1493 88.4418 14.8155 88.474 14.4847ZM92.1958 14.4847C92.1958 13.3948 91.7062 12.7573 90.8469 12.7573C89.9844 12.7573 89.4991 13.3948 89.4991 14.4847C89.4991 15.5834 89.9844 16.2158 90.8469 16.2158C91.7062 16.2158 92.1958 15.5791 92.1958 14.4847Z" fill="white"/>
<path d="M94.5491 11.9729H95.5048V12.7717H95.5792C95.7048 12.4848 95.917 12.2442 96.1859 12.0837C96.4548 11.9231 96.7675 11.8504 97.0792 11.8758C97.324 11.8574 97.5697 11.8943 97.7986 11.9838C98.0266 12.0732 98.2322 12.2129 98.3997 12.3925C98.5663 12.572 98.691 12.787 98.7636 13.0213C98.8371 13.2556 98.8557 13.5033 98.8203 13.7459V17.001H97.8274V13.9951C97.8274 13.1871 97.4766 12.7852 96.7424 12.7852C96.5767 12.7775 96.4102 12.8058 96.2566 12.8682C96.1022 12.9305 95.9635 13.0254 95.8491 13.1465C95.7355 13.2675 95.649 13.4118 95.5959 13.5693C95.5429 13.727 95.5243 13.8942 95.542 14.0595V17.0011H94.5491V11.9729Z" fill="white"/>
<path d="M104.427 10.7209V11.9958H105.517V12.8316H104.427V15.4172C104.427 15.9439 104.645 16.1746 105.138 16.1746C105.264 16.1741 105.391 16.1665 105.517 16.1517V16.9782C105.339 17.0101 105.157 17.027 104.977 17.0289C103.873 17.0289 103.434 16.6407 103.434 15.6713V12.8316H102.636V11.9957H103.434V10.7209H104.427Z" fill="white"/>
<path d="M106.872 10.01H107.856V12.7809H107.934C108.066 12.4914 108.284 12.2495 108.559 12.0883C108.833 11.9271 109.15 11.8545 109.468 11.8802C109.711 11.8669 109.954 11.9076 110.18 11.9993C110.406 12.0908 110.609 12.2312 110.774 12.4102C110.94 12.5892 111.064 12.8026 111.137 13.0351C111.211 13.2674 111.231 13.5132 111.2 13.7548V17.0012H110.206V13.9996C110.206 13.1964 109.832 12.7897 109.131 12.7897C108.96 12.7757 108.788 12.7992 108.627 12.8583C108.467 12.9176 108.321 13.0112 108.201 13.1327C108.08 13.2541 107.988 13.4004 107.93 13.5613C107.872 13.7223 107.85 13.894 107.864 14.0644V17.0012H106.872V10.01Z" fill="white"/>
<path d="M116.984 15.6434C116.849 16.103 116.557 16.5006 116.158 16.7664C115.76 17.0324 115.281 17.1498 114.805 17.0982C114.474 17.1069 114.145 17.0435 113.84 16.9123C113.536 16.7811 113.263 16.5852 113.043 16.3382C112.821 16.0912 112.658 15.7992 112.561 15.4823C112.464 15.1653 112.437 14.8311 112.483 14.5029C112.438 14.1735 112.465 13.8386 112.562 13.5208C112.659 13.2029 112.822 12.9095 113.042 12.6604C113.262 12.4113 113.532 12.2123 113.836 12.0769C114.139 11.9416 114.469 11.873 114.801 11.8758C116.199 11.8758 117.043 12.8317 117.043 14.4106V14.7569H113.493V14.8126C113.478 14.9971 113.501 15.1828 113.561 15.3579C113.622 15.5329 113.719 15.6933 113.844 15.829C113.971 15.9646 114.123 16.0723 114.294 16.1454C114.464 16.2184 114.647 16.2551 114.832 16.2531C115.07 16.2815 115.31 16.2388 115.523 16.1302C115.736 16.0217 115.912 15.8523 116.028 15.6434H116.984ZM113.493 14.023H116.033C116.046 13.8543 116.023 13.6847 115.966 13.5254C115.909 13.366 115.819 13.2203 115.702 13.0976C115.586 12.975 115.445 12.878 115.288 12.8131C115.133 12.7481 114.965 12.7166 114.795 12.7204C114.624 12.7182 114.454 12.7505 114.295 12.8152C114.135 12.8799 113.991 12.9758 113.869 13.0972C113.748 13.2186 113.652 13.363 113.587 13.5221C113.523 13.6811 113.491 13.8514 113.493 14.023Z" fill="white"/>
<path d="M126.18 1.05371H7.44444C3.58995 1.05371 0.465271 4.17839 0.465271 8.03288V37.8107C0.465271 41.6651 3.58995 44.7898 7.44444 44.7898H126.18C130.034 44.7898 133.159 41.6651 133.159 37.8107V8.03288C133.159 4.17839 130.034 1.05371 126.18 1.05371Z" stroke="#A6A6A6" stroke-width="0.930556"/>
</g>
<defs>
<clipPath id="clip0_1_435">
<rect width="134" height="45" fill="white" transform="translate(0 0.421875)"/>
</clipPath>
</defs>
</svg>
