<svg width="45" height="46" viewBox="0 0 45 46" fill="none" xmlns="http://www.w3.org/2000/svg">
<g clip-path="url(#clip0_1_498)">
<path d="M35.25 0.421875H9.75C4.36522 0.421875 0 4.7871 0 10.1719V35.6719C0 41.0566 4.36522 45.4219 9.75 45.4219H35.25C40.6348 45.4219 45 41.0566 45 35.6719V10.1719C45 4.7871 40.6348 0.421875 35.25 0.421875Z" fill="#FFD02F"/>
<path fill-rule="evenodd" clip-rule="evenodd" d="M31.2577 6.04688H26.3186L30.4344 13.279L21.3796 6.04688H16.4406L20.968 14.8862L11.5015 6.04688H6.5625L11.5015 17.2969L6.5625 39.7969H11.5015L20.968 15.6897L16.4406 39.7969H21.3796L30.4344 14.0826L26.3186 39.7969H31.2577L40.3125 11.6719L31.2577 6.04688Z" fill="#050038"/>
</g>
<defs>
<clipPath id="clip0_1_498">
<rect width="45" height="45" fill="white" transform="translate(0 0.421875)"/>
</clipPath>
</defs>
</svg>
