<svg width="152" height="46" viewBox="0 0 152 46" fill="none" xmlns="http://www.w3.org/2000/svg">
<g clip-path="url(#clip0_1_462)">
<path d="M144.165 1.00781H8.01742C4.15482 1.00781 1.02356 4.13907 1.02356 8.00168V37.8422C1.02356 41.7048 4.15482 44.836 8.01742 44.836H144.165C148.027 44.836 151.159 41.7048 151.159 37.8422V8.00168C151.159 4.13907 148.027 1.00781 144.165 1.00781Z" fill="#050038"/>
<path d="M53.6181 12.0039C53.6181 12.9415 53.3405 13.688 52.7844 14.245C52.1529 14.9072 51.3297 15.2385 50.3178 15.2385C49.3488 15.2385 48.5248 14.9028 47.8472 14.2306C47.1685 13.5587 46.8298 12.7256 46.8298 11.7315C46.8298 10.7371 47.1685 9.90446 47.8472 9.23213C48.5248 8.56027 49.3488 8.22412 50.3178 8.22412C50.7987 8.22412 51.259 8.31812 51.6961 8.50567C52.1332 8.69366 52.4838 8.9432 52.7461 9.25574L52.1559 9.84625C51.7114 9.31516 51.0995 9.04984 50.3178 9.04984C49.611 9.04984 48.9999 9.29815 48.4841 9.79511C47.9683 10.2927 47.7105 10.9378 47.7105 11.7315C47.7105 12.5254 47.9683 13.1705 48.4841 13.668C48.9999 14.165 49.611 14.4133 50.3178 14.4133C51.0676 14.4133 51.6927 14.1636 52.193 13.6637C52.5179 13.3379 52.7058 12.8851 52.756 12.3037H50.3178V11.4973H53.5714C53.6028 11.6726 53.6181 11.8409 53.6181 12.0039Z" fill="white"/>
<path d="M53.619 12.004H53.5071C53.5061 12.9202 53.2386 13.6317 52.7061 14.166L52.7049 14.1669L52.7045 14.1677C52.093 14.8072 51.307 15.1254 50.3186 15.1267C49.3754 15.1254 48.5859 14.8037 47.9267 14.1515C47.269 13.498 46.9436 12.7003 46.9424 11.7316C46.9436 10.7626 47.269 9.96525 47.9267 9.31223C48.5859 8.65962 49.3754 8.33745 50.3186 8.33611C50.785 8.33611 51.2292 8.42709 51.6528 8.60848C52.0767 8.79121 52.4116 9.03069 52.6612 9.32801L52.7469 9.25583L52.6678 9.17672L52.0776 9.76767L52.1567 9.84634L52.2429 9.77472C51.7777 9.21734 51.1248 8.93635 50.3186 8.93803C49.5856 8.93713 48.9409 9.19899 48.4076 9.71485C47.8691 10.2324 47.5986 10.9138 47.5994 11.7316C47.5986 12.5495 47.8691 13.2309 48.4076 13.7485C48.9409 14.2643 49.5856 14.5262 50.3186 14.5253C51.0932 14.5267 51.7533 14.2639 52.273 13.7429C52.6201 13.3949 52.8168 12.9127 52.8684 12.3134L52.8788 12.1919H50.4305V11.6093H53.5721V11.4974L53.4619 11.5171C53.4926 11.6867 53.5071 11.8479 53.5071 12.004H53.619H53.7309C53.7309 11.8339 53.7151 11.6592 53.6823 11.4773L53.6657 11.3855H50.2067V12.3038V12.4157H52.7568V12.3038L52.6454 12.2942C52.5961 12.8573 52.4168 13.2813 52.1147 13.5846C51.6339 14.0637 51.0438 14.3001 50.3186 14.3014C49.6381 14.3006 49.0606 14.0663 48.5628 13.5877C48.0698 13.1107 47.8244 12.5019 47.8232 11.7316C47.8244 10.9615 48.0698 10.3526 48.5628 9.87564C49.0606 9.39705 49.6381 9.16273 50.3186 9.16183C51.0753 9.16362 51.6467 9.41361 52.0711 9.91853L52.1498 10.0121L52.826 9.33495L52.8985 9.26243L52.8325 9.1841C52.5576 8.85634 52.1913 8.59617 51.741 8.40303C51.2899 8.20933 50.8139 8.11231 50.3186 8.11231C49.3238 8.11141 48.4653 8.4611 47.7689 9.15311C47.07 9.84376 46.7178 10.7119 46.7186 11.7316C46.7178 12.751 47.07 13.6196 47.7694 14.3107C48.4653 15.0022 49.3238 15.3515 50.3186 15.3505C51.3546 15.3515 52.214 15.0074 52.8661 14.3224L52.7853 14.2451L52.8644 14.3242C53.444 13.745 53.7316 12.9625 53.7309 12.004H53.619Z" fill="white"/>
<path d="M58.7777 9.19934H55.7201V11.3282H58.4775V12.135H55.7201V14.2638H58.7777V15.0886H54.8581V8.37451H58.7777V9.19934Z" fill="white"/>
<path d="M58.7767 9.19943V9.08752H55.6072V11.4402H58.3645V12.0228L55.6072 12.0232V14.3758H58.6648V14.9768H54.969V8.4865H58.6648V9.19943H58.7767V9.08752V9.19943H58.8886V8.3746V8.2627H54.7452V15.2006H58.8886V14.2639V14.152H55.831V12.247H58.5884V11.3283V11.2164H55.831V9.31133H58.8886V9.19943H58.7767Z" fill="white"/>
<path d="M62.416 15.0886H61.5527V9.19934H59.6774V8.37451H64.2912V9.19934H62.416V15.0886Z" fill="white"/>
<path d="M62.4149 15.0887V14.9768H61.6635V9.08752H59.7882V8.4865H64.1782V9.08752H62.303V15.0887H62.4149V14.9768V15.0887H62.5268V9.31133H64.402V8.3746V8.2627H59.5644V9.19943V9.31133H61.4397V15.2006H62.4149H62.5268V15.0887H62.4149Z" fill="white"/>
<path d="M67.6292 15.0886V8.37451H68.4916V15.0886H67.6292Z" fill="white"/>
<path d="M67.6281 15.0887H67.74V8.4865H68.3787V14.9768H67.6281V15.0887H67.74H67.6281V15.2006H68.4906H68.6025V8.2627H67.6281H67.5162V15.2006H67.6281V15.0887Z" fill="white"/>
<path d="M72.3184 15.0886H71.455V9.19934H69.5798V8.37451H74.1935V9.19934H72.3184V15.0886Z" fill="white"/>
<path d="M72.3173 15.0887V14.9768H71.5659V9.08752H69.6907V8.4865H74.0806V9.08752H72.2054V15.0887H72.3173V14.9768V15.0887H72.4292V9.31133H74.3044V8.3746V8.2627H69.4669V9.19943V9.31133H71.3421V15.2006H72.3173H72.4292V15.0887H72.3173Z" fill="white"/>
<path d="M78.6405 13.6589C79.1374 14.1619 79.7455 14.4133 80.4646 14.4133C81.1836 14.4133 81.7921 14.1619 82.2883 13.6589C82.7857 13.1558 83.0349 12.5126 83.0349 11.7315C83.0349 10.9505 82.7857 10.3074 82.2883 9.80429C81.7921 9.30118 81.1836 9.04984 80.4646 9.04984C79.7455 9.04984 79.1374 9.30118 78.6405 9.80429C78.1443 10.3074 77.8952 10.9505 77.8952 11.7315C77.8952 12.5126 78.1443 13.1558 78.6405 13.6589ZM82.9264 14.221C82.2663 14.8998 81.4454 15.2385 80.4646 15.2385C79.4827 15.2385 78.6623 14.8998 78.0037 14.221C77.3431 13.5429 77.0145 12.7129 77.0145 11.7315C77.0145 10.7502 77.3431 9.92012 78.0037 9.2422C78.6623 8.5633 79.4827 8.22412 80.4646 8.22412C81.4403 8.22412 82.2589 8.56509 82.922 9.24657C83.5843 9.92805 83.9156 10.7563 83.9156 11.7315C83.9156 12.7129 83.5851 13.5429 82.9264 14.221Z" fill="white"/>
<path d="M78.6414 13.6589L78.5617 13.7377C79.0772 14.2609 79.7202 14.5267 80.4655 14.5253C81.2103 14.5267 81.8542 14.2609 82.3686 13.7377C82.8875 13.214 83.1484 12.5364 83.1477 11.7316C83.1484 10.927 82.8875 10.2494 82.3686 9.72571C81.8542 9.20246 81.2103 8.93669 80.4655 8.93803C79.7202 8.93669 79.0772 9.20246 78.5617 9.72571C78.0442 10.2494 77.7828 10.927 77.7842 11.7316C77.7828 12.5364 78.0442 13.214 78.5617 13.7377L78.6414 13.6589L78.7209 13.5802C78.2463 13.0972 78.0088 12.4896 78.008 11.7316C78.0088 10.9738 78.2463 10.3661 78.7209 9.88301C79.1999 9.40007 79.7721 9.16318 80.4655 9.16183C81.1582 9.16318 81.7317 9.40007 82.2095 9.88301C82.6851 10.3661 82.9225 10.9738 82.9234 11.7316C82.9225 12.4896 82.6851 13.0972 82.2095 13.5802C81.7317 14.0633 81.1582 14.3001 80.4655 14.3014C79.7721 14.3001 79.1999 14.0633 78.7209 13.5802L78.6414 13.6589ZM82.9273 14.2211L82.8473 14.1433C82.2056 14.8007 81.421 15.1254 80.4655 15.1267C79.5094 15.1254 78.7248 14.8007 78.0844 14.1433L78.0814 14.1398L78.0844 14.1433C77.4441 13.4836 77.1281 12.6881 77.1272 11.7316C77.1281 10.7752 77.4441 9.97971 78.0844 9.32006C78.7248 8.66264 79.5094 8.33745 80.4655 8.33611C81.4149 8.33745 82.1977 8.66398 82.8429 9.32488C83.4855 9.98754 83.8033 10.7819 83.8046 11.7316C83.8033 12.6881 83.4863 13.4836 82.8473 14.1433L82.9273 14.2211L83.0078 14.2988C83.6861 13.6021 84.0292 12.7379 84.0284 11.7316C84.0292 10.7311 83.6848 9.86874 83.0033 9.16888C82.3214 8.46636 81.4673 8.11108 80.4655 8.11231C79.4583 8.11108 78.6016 8.46468 77.9241 9.16451V9.16406C77.2444 9.86121 76.9025 10.7254 76.9034 11.7316C76.9025 12.7379 77.2444 13.6021 77.9241 14.2992L77.9271 14.3024L77.9241 14.2988C78.6016 14.9986 79.4583 15.3515 80.4655 15.3505C81.4721 15.3515 82.3288 14.9986 83.0078 14.2988L82.9273 14.2211Z" fill="white"/>
<path d="M85.1266 15.0886V8.37451H86.1767L89.4397 13.5976H89.4768L89.4397 12.3037V8.37451H90.303V15.0886H89.4025L85.9887 9.61237H85.9515L85.9887 10.9068V15.0886H85.1266Z" fill="white"/>
<path d="M85.1275 15.0887H85.2394V8.4865H86.1153L89.3783 13.7096H89.4777H89.5925L89.5523 12.3021V8.4865H90.1919V14.9768H89.4654L86.0515 9.50055H85.9523H85.8373L85.8775 10.9086V14.9768H85.1275V15.0887H85.2394H85.1275V15.2006H85.9894H86.1013V10.905L86.0642 9.60943L85.9523 9.61246V9.72436H85.9894V9.61246L85.8946 9.67199L89.3412 15.2006H90.3038H90.4157V8.2627H89.4404H89.3285V12.3052L89.3657 13.6007L89.4777 13.5977V13.4858H89.4404V13.5977L89.5354 13.5383L86.2394 8.2627H85.1275H85.0156V15.2006H85.1275V15.0887Z" fill="white"/>
<path d="M120.221 34.1119H122.309V20.1229H120.221V34.1119ZM139.028 25.162L136.634 31.227H136.563L134.078 25.162H131.829L135.554 33.639L133.431 38.3541H135.609L141.35 25.162H139.028ZM127.187 32.523C126.501 32.523 125.548 32.1812 125.548 31.335C125.548 30.2553 126.736 29.8413 127.761 29.8413C128.681 29.8413 129.111 30.0393 129.67 30.3095C129.508 31.6052 128.392 32.523 127.187 32.523ZM127.438 24.856C125.927 24.856 124.361 25.5222 123.713 26.9979L125.566 27.7716C125.962 26.9979 126.7 26.7457 127.474 26.7457C128.554 26.7457 129.651 27.3939 129.67 28.5458V28.6896C129.291 28.4736 128.482 28.1497 127.492 28.1497C125.494 28.1497 123.46 29.2473 123.46 31.2991C123.46 33.1709 125.098 34.3769 126.933 34.3769C128.338 34.3769 129.111 33.747 129.598 33.0092H129.67V34.0888H131.685V28.7254C131.685 26.2422 129.832 24.856 127.438 24.856ZM114.533 26.865H111.564V22.0699H114.533C116.094 22.0699 116.981 23.3624 116.981 24.4674C116.981 25.5515 116.094 26.865 114.533 26.865ZM114.48 20.1229H109.476V34.1119H111.564V28.812H114.48C116.794 28.812 119.069 27.1365 119.069 24.4674C119.069 21.7984 116.794 20.1229 114.48 20.1229ZM87.1972 32.5256C85.7547 32.5256 84.5469 31.3179 84.5469 29.6591C84.5469 27.9828 85.7547 26.7566 87.1972 26.7566C88.6213 26.7566 89.739 27.9828 89.739 29.6591C89.739 31.3179 88.6213 32.5256 87.1972 32.5256ZM89.5948 25.9454H89.5226C89.0541 25.3867 88.1523 24.8818 87.0167 24.8818C84.637 24.8818 82.4558 26.973 82.4558 29.6591C82.4558 32.3272 84.637 34.4005 87.0167 34.4005C88.1523 34.4005 89.0541 33.8955 89.5226 33.319H89.5948V34.004C89.5948 35.8251 88.6213 36.7985 87.0529 36.7985C85.7731 36.7985 84.9798 35.8788 84.6549 35.1038L82.8343 35.8609C83.3572 37.1228 84.7454 38.6733 87.0529 38.6733C89.5047 38.6733 91.578 37.2307 91.578 33.7155V25.1703H89.5948V25.9454ZM93.02 34.1119H95.111V20.1224H93.02V34.1119ZM98.1939 29.4969C98.1398 27.6579 99.6188 26.7207 100.682 26.7207C101.512 26.7207 102.214 27.1351 102.448 27.7306L98.1939 29.4969ZM104.684 27.9106C104.288 26.8466 103.079 24.8818 100.61 24.8818C98.1575 24.8818 96.1209 26.8108 96.1209 29.6412C96.1209 32.3093 98.1398 34.4005 100.844 34.4005C103.025 34.4005 104.288 33.0663 104.811 32.2913L103.188 31.2095C102.648 32.0029 101.908 32.5256 100.844 32.5256C99.7801 32.5256 99.0238 32.0388 98.5361 31.0836L104.9 28.4513L104.684 27.9106ZM53.9834 26.3421V28.3612H58.8148C58.6705 29.4969 58.2919 30.3261 57.715 30.9031C57.0121 31.6064 55.9123 32.3814 53.9834 32.3814C51.0087 32.3814 48.6833 29.9838 48.6833 27.0093C48.6833 24.0346 51.0087 21.6367 53.9834 21.6367C55.5879 21.6367 56.7594 22.2678 57.6249 23.0791L59.049 21.655C57.8413 20.501 56.2367 19.6177 53.9834 19.6177C49.9089 19.6177 46.4838 22.9349 46.4838 27.0093C46.4838 31.0836 49.9089 34.4005 53.9834 34.4005C56.183 34.4005 57.8413 33.6797 59.1391 32.3272C60.4733 30.9932 60.8881 29.1183 60.8881 27.6042C60.8881 27.1351 60.8521 26.7028 60.7796 26.3421H53.9834ZM66.3808 32.5256C64.9383 32.5256 63.6944 31.3358 63.6944 29.6412C63.6944 27.9285 64.9383 26.7566 66.3808 26.7566C67.8229 26.7566 69.0669 27.9285 69.0669 29.6412C69.0669 31.3358 67.8229 32.5256 66.3808 32.5256ZM66.3808 24.8818C63.7485 24.8818 61.6031 26.8829 61.6031 29.6412C61.6031 32.3814 63.7485 34.4005 66.3808 34.4005C69.0127 34.4005 71.1581 32.3814 71.1581 29.6412C71.1581 26.8829 69.0127 24.8818 66.3808 24.8818ZM76.8025 32.5256C75.3606 32.5256 74.1164 31.3358 74.1164 29.6412C74.1164 27.9285 75.3606 26.7566 76.8025 26.7566C78.2446 26.7566 79.4887 27.9285 79.4887 29.6412C79.4887 31.3358 78.2446 32.5256 76.8025 32.5256ZM76.8025 24.8818C74.1702 24.8818 72.0254 26.8829 72.0254 29.6412C72.0254 32.3814 74.1702 34.4005 76.8025 34.4005C79.4345 34.4005 81.5798 32.3814 81.5798 29.6412C81.5798 26.8829 79.4345 24.8818 76.8025 24.8818Z" fill="white"/>
<path d="M12.3176 36.7861L12.2344 36.7065C11.9088 36.362 11.7166 35.827 11.7166 35.1342V35.2972V10.549C11.7166 10.5468 11.7166 10.5451 11.7166 10.5433C11.7166 10.5455 11.7166 10.5472 11.7166 10.5495V10.7129C11.7166 9.96283 11.9407 9.39768 12.3162 9.05884L26.1807 22.9229L12.3176 36.7861ZM11.7166 10.542C11.7166 10.4804 11.7183 10.4205 11.7214 10.3615C11.7183 10.42 11.7166 10.4804 11.7166 10.542ZM11.7214 10.3588C11.7214 10.358 11.7214 10.3571 11.7217 10.3563C11.7214 10.3571 11.7214 10.358 11.7214 10.3588ZM11.7217 10.3509C11.7217 10.3506 11.7217 10.3501 11.7217 10.3496C11.7217 10.3501 11.7217 10.3506 11.7217 10.3509Z" fill="url(#paint0_linear_1_462)"/>
<path d="M30.8022 27.7098L30.9077 27.6499L36.383 24.5389C36.905 24.2421 37.2528 23.8824 37.4264 23.5017C37.2533 23.8824 36.9053 24.2426 36.383 24.5393L30.9077 27.6504L30.8022 27.7098ZM30.8036 27.5458L26.1815 22.9229L30.8032 18.3008L36.383 21.4708C37.0915 21.8734 37.4893 22.3923 37.5558 22.9225C37.5558 22.9229 37.5558 22.9238 37.5558 22.9246C37.4893 23.4536 37.0915 23.9729 36.383 24.3754L30.8036 27.5458Z" fill="url(#paint1_linear_1_462)"/>
<path d="M13.3055 37.314C12.9182 37.314 12.5803 37.1881 12.3168 36.9503L12.3172 36.9498C12.5808 37.1876 12.9191 37.314 13.3065 37.314C13.34 37.314 13.3742 37.3131 13.4087 37.3114C13.3737 37.3131 13.3391 37.314 13.3055 37.314ZM13.306 37.1501C12.9187 37.1505 12.5808 37.0242 12.3172 36.7864V36.786L26.1803 22.9229L30.8024 27.5457L14.5596 36.7746C14.1102 37.0294 13.6844 37.1501 13.306 37.1501ZM12.3133 36.9472C12.2888 36.925 12.2647 36.9014 12.2411 36.8769L12.3133 36.9472Z" fill="url(#paint2_linear_1_462)"/>
<path d="M26.1802 22.9228L12.3157 9.0587C12.5793 8.82136 12.9168 8.69547 13.3036 8.69547C13.6831 8.69547 14.1092 8.81655 14.5596 9.0718L30.8018 18.3007L26.1802 22.9228ZM30.9064 18.1963L14.5596 8.90842C14.1092 8.65306 13.6831 8.53198 13.3036 8.53198C13.3019 8.53198 13.3007 8.53198 13.2988 8.53198C13.301 8.53198 13.3027 8.53198 13.3054 8.53198C13.684 8.53198 14.1097 8.65261 14.5596 8.90797L30.9064 18.1963Z" fill="url(#paint3_linear_1_462)"/>
<path d="M13.4085 37.3112C13.7603 37.2911 14.1498 37.1699 14.5594 36.9379L30.8008 27.7095L14.5594 36.9379C14.1501 37.1704 13.7603 37.2911 13.4085 37.3112ZM12.3165 36.95L12.313 36.9471C12.3142 36.948 12.3156 36.9492 12.3165 36.95ZM12.2409 36.8767L12.2338 36.8698V36.8693C12.2365 36.8719 12.2386 36.8744 12.2409 36.8767Z" fill="black"/>
<path d="M30.8021 27.7098L30.9076 27.6499L30.8021 27.7098Z" fill="url(#paint4_linear_1_462)"/>
<path d="M13.3062 37.3137C12.9189 37.3137 12.5805 37.1873 12.3169 36.9495L12.3165 36.95C12.3156 36.9491 12.3142 36.9479 12.313 36.9469L12.2409 36.8766C12.2386 36.8744 12.2365 36.8718 12.2338 36.8692L12.3169 36.7861C12.5805 37.0239 12.9184 37.1502 13.3057 37.1498C13.6842 37.1498 14.11 37.0291 14.5594 36.7743L30.8021 27.5454L30.9062 27.6495L30.8008 27.7093L14.5594 36.9378C14.1498 37.1699 13.7603 37.2909 13.4085 37.3111C13.3739 37.3128 13.3397 37.3137 13.3062 37.3137Z" fill="url(#paint5_linear_1_462)"/>
<path d="M12.2344 36.8697C11.9088 36.5251 11.7166 35.9901 11.7166 35.2973V35.2969C11.7166 35.9901 11.9088 36.5246 12.2344 36.8692V36.8697Z" fill="black"/>
<path d="M12.2344 36.8692C11.9088 36.5246 11.7166 35.9901 11.7166 35.2969V35.1338C11.7166 35.8266 11.9088 36.3616 12.2344 36.7062L12.3176 36.7857L12.2344 36.8692Z" fill="url(#paint6_linear_1_462)"/>
<path d="M12.2338 36.8696L12.3169 36.7861V36.7864L12.2338 36.8696Z" fill="url(#paint7_linear_1_462)"/>
<path d="M37.4263 23.5012C37.5123 23.3123 37.5557 23.1182 37.5557 22.9241C37.5557 22.9238 37.5557 22.9233 37.5557 22.9233C37.5557 23.1178 37.5123 23.3118 37.4263 23.5012Z" fill="black"/>
<path d="M30.9062 27.6496L30.8021 27.5455L36.3815 24.3751C37.0901 23.9726 37.4879 23.4532 37.5543 22.9243C37.5543 23.1185 37.511 23.3125 37.4249 23.5014C37.2514 23.8821 36.9035 24.2419 36.3815 24.5386L30.9062 27.6496Z" fill="url(#paint8_linear_1_462)"/>
<path d="M37.5546 22.9228V22.9224C37.5541 22.337 37.1629 21.7518 36.3816 21.3076L30.9065 18.1967H30.906L30.9065 18.1963L36.3816 21.3072C37.1637 21.7513 37.5554 22.3375 37.5546 22.9228Z" fill="#404040"/>
<path d="M37.5547 22.9222C37.4883 22.392 37.0905 21.8732 36.3819 21.4705L30.8021 18.3006L30.9062 18.1965H30.9067L36.3819 21.3075C37.1631 21.7517 37.5543 22.3369 37.5547 22.9222Z" fill="url(#paint9_linear_1_462)"/>
<path d="M11.7166 10.5432C11.7166 10.5427 11.7166 10.5423 11.7166 10.5418C11.7166 10.5423 11.7166 10.5427 11.7166 10.5432ZM11.7214 10.3614C11.7214 10.3604 11.7214 10.3596 11.7214 10.3587C11.7214 10.3596 11.7214 10.3604 11.7214 10.3614ZM11.7217 10.356C11.7217 10.3543 11.7217 10.3526 11.7217 10.3508C11.7217 10.3526 11.7217 10.3543 11.7217 10.356ZM11.7217 10.3495C11.7866 9.19993 12.4116 8.5359 13.2958 8.53198C12.9125 8.53422 12.5785 8.66011 12.3172 8.89566V8.89522L12.314 8.89835C12.2865 8.92319 12.2603 8.94949 12.2344 8.97657C11.9407 9.28732 11.7554 9.75283 11.7217 10.3495Z" fill="#404040"/>
<path d="M11.7166 10.7126V10.5491C11.7166 10.5469 11.7166 10.5451 11.7166 10.543C11.7166 10.5425 11.7166 10.5421 11.7166 10.5417C11.7166 10.48 11.7183 10.4197 11.7214 10.3611C11.7214 10.3602 11.7214 10.3594 11.7214 10.3584C11.7214 10.3577 11.7214 10.3568 11.7217 10.3559C11.7217 10.3541 11.7217 10.3524 11.7217 10.3506C11.7217 10.3501 11.7217 10.3498 11.7217 10.3493C11.7554 9.75264 11.9407 9.28712 12.2344 8.97637L12.3162 9.05851C11.9407 9.39735 11.7166 9.9624 11.7166 10.7126ZM12.314 8.89815L12.3172 8.89502C12.3162 8.89636 12.3149 8.89726 12.314 8.89815Z" fill="url(#paint10_linear_1_462)"/>
<path d="M30.8016 18.3006L14.5594 9.0718C14.1091 8.81655 13.6829 8.69547 13.3035 8.69547C12.9166 8.69547 12.5792 8.82136 12.3156 9.0587L12.2338 8.97657C12.2597 8.94949 12.2858 8.92319 12.3134 8.89835C12.3142 8.89745 12.3156 8.89656 12.3165 8.89566C12.5779 8.66011 12.9118 8.53422 13.2952 8.53198C13.2961 8.53198 13.2973 8.53198 13.2987 8.53198C13.3005 8.53198 13.3017 8.53198 13.3035 8.53198C13.6829 8.53198 14.1091 8.65306 14.5594 8.90842L30.9062 18.1963L30.9057 18.1966L30.8016 18.3006Z" fill="url(#paint11_linear_1_462)"/>
<path d="M144.165 1.00781H8.01742C4.15482 1.00781 1.02356 4.13907 1.02356 8.00168V37.8422C1.02356 41.7048 4.15482 44.836 8.01742 44.836H144.165C148.027 44.836 151.159 41.7048 151.159 37.8422V8.00168C151.159 4.13907 148.027 1.00781 144.165 1.00781Z" stroke="#A6A6A6" stroke-width="0.932515"/>
</g>
<defs>
<linearGradient id="paint0_linear_1_462" x1="24.9513" y1="10.288" x2="6.17138" y2="29.0679" gradientUnits="userSpaceOnUse">
<stop stop-color="#00A0FF"/>
<stop offset="0.00657445" stop-color="#00A1FF"/>
<stop offset="0.2601" stop-color="#00BEFF"/>
<stop offset="0.5122" stop-color="#00D2FF"/>
<stop offset="0.7604" stop-color="#00DFFF"/>
<stop offset="1" stop-color="#00E3FF"/>
</linearGradient>
<linearGradient id="paint1_linear_1_462" x1="38.4191" y1="22.9236" x2="11.3422" y2="22.9236" gradientUnits="userSpaceOnUse">
<stop stop-color="#FFE000"/>
<stop offset="0.4087" stop-color="#FFBD00"/>
<stop offset="0.7754" stop-color="#FFA500"/>
<stop offset="1" stop-color="#FF9C00"/>
</linearGradient>
<linearGradient id="paint2_linear_1_462" x1="28.3384" y1="25.4913" x2="2.87146" y2="50.9583" gradientUnits="userSpaceOnUse">
<stop stop-color="#FF3A44"/>
<stop offset="1" stop-color="#C31162"/>
</linearGradient>
<linearGradient id="paint3_linear_1_462" x1="8.72226" y1="0.73869" x2="20.0943" y2="12.1108" gradientUnits="userSpaceOnUse">
<stop stop-color="#32A071"/>
<stop offset="0.0685" stop-color="#2DA771"/>
<stop offset="0.4762" stop-color="#15CF74"/>
<stop offset="0.8009" stop-color="#06E775"/>
<stop offset="1" stop-color="#00F076"/>
</linearGradient>
<linearGradient id="paint4_linear_1_462" x1="38.4188" y1="22.9236" x2="11.3427" y2="22.9236" gradientUnits="userSpaceOnUse">
<stop stop-color="#CCB300"/>
<stop offset="0.4087" stop-color="#CC9700"/>
<stop offset="0.7754" stop-color="#CC8400"/>
<stop offset="1" stop-color="#CC7D00"/>
</linearGradient>
<linearGradient id="paint5_linear_1_462" x1="28.3381" y1="25.491" x2="2.8712" y2="50.958" gradientUnits="userSpaceOnUse">
<stop stop-color="#CC2E36"/>
<stop offset="1" stop-color="#9C0E4E"/>
</linearGradient>
<linearGradient id="paint6_linear_1_462" x1="24.9513" y1="10.2876" x2="6.17137" y2="29.0675" gradientUnits="userSpaceOnUse">
<stop stop-color="#008DE0"/>
<stop offset="0.00657445" stop-color="#008DE0"/>
<stop offset="0.2601" stop-color="#00A7E0"/>
<stop offset="0.5122" stop-color="#00B8E0"/>
<stop offset="0.7604" stop-color="#00C4E0"/>
<stop offset="1" stop-color="#00C7E0"/>
</linearGradient>
<linearGradient id="paint7_linear_1_462" x1="28.3384" y1="25.4914" x2="2.87126" y2="50.9587" gradientUnits="userSpaceOnUse">
<stop stop-color="#E0333C"/>
<stop offset="1" stop-color="#AB0F56"/>
</linearGradient>
<linearGradient id="paint8_linear_1_462" x1="38.4176" y1="22.9233" x2="11.3408" y2="22.9233" gradientUnits="userSpaceOnUse">
<stop stop-color="#E0C500"/>
<stop offset="0.4087" stop-color="#E0A600"/>
<stop offset="0.7754" stop-color="#E09100"/>
<stop offset="1" stop-color="#E08900"/>
</linearGradient>
<linearGradient id="paint9_linear_1_462" x1="38.4181" y1="22.9234" x2="11.3412" y2="22.9234" gradientUnits="userSpaceOnUse">
<stop stop-color="#FFE840"/>
<stop offset="0.4087" stop-color="#FFCE40"/>
<stop offset="0.7754" stop-color="#FFBC40"/>
<stop offset="1" stop-color="#FFB540"/>
</linearGradient>
<linearGradient id="paint10_linear_1_462" x1="24.9512" y1="10.2877" x2="6.17138" y2="29.0675" gradientUnits="userSpaceOnUse">
<stop stop-color="#40B8FF"/>
<stop offset="0.00657445" stop-color="#40B9FF"/>
<stop offset="0.2601" stop-color="#40CEFF"/>
<stop offset="0.5122" stop-color="#40DDFF"/>
<stop offset="0.7604" stop-color="#40E7FF"/>
<stop offset="1" stop-color="#40EAFF"/>
</linearGradient>
<linearGradient id="paint11_linear_1_462" x1="8.7221" y1="0.738695" x2="20.0941" y2="12.1107" gradientUnits="userSpaceOnUse">
<stop stop-color="#65B895"/>
<stop offset="0.0685" stop-color="#62BD95"/>
<stop offset="0.4762" stop-color="#50DB97"/>
<stop offset="0.8009" stop-color="#44ED98"/>
<stop offset="1" stop-color="#40F498"/>
</linearGradient>
<clipPath id="clip0_1_462">
<rect width="152" height="45" fill="white" transform="translate(0 0.421875)"/>
</clipPath>
</defs>
</svg>
