<svg width="24" height="25" viewBox="0 0 24 25" fill="none" xmlns="http://www.w3.org/2000/svg">
<g clip-path="url(#clip0_1_409)">
<path fill-rule="evenodd" clip-rule="evenodd" d="M12.8962 22.8823C17.9992 22.4291 22 18.1427 22 12.9219C22 7.39902 17.5228 2.92188 12 2.92188C6.47715 2.92188 2 7.39902 2 12.9219C2 17.7698 5.44966 21.8119 10.0282 22.7276V15.5099H7.625V12.6208H10.0282V10.4893C10.0282 8.01614 11.4801 6.67188 13.6043 6.67188C14.6199 6.67188 15.4925 6.74615 15.75 6.78328V9.37525H14.2766C13.118 9.37525 12.8962 9.9397 12.8962 10.7789V12.6208H15.6499L15.2923 15.5099H12.8962V22.8823Z" fill="white"/>
</g>
<defs>
<clipPath id="clip0_1_409">
<rect width="24" height="24" fill="white" transform="translate(0 0.921875)"/>
</clipPath>
</defs>
</svg>
