<svg width="51" height="32" viewBox="0 0 51 32" fill="none" xmlns="http://www.w3.org/2000/svg">
<g clip-path="url(#clip0_1_45)">
<path d="M0.323599 13.2866C0.337422 12.7452 0.445238 12.2103 0.641981 11.7057C0.826371 11.2407 1.1104 10.8218 1.47411 10.4783C1.86314 10.1235 2.32136 9.85307 2.81997 9.68395C3.42356 9.48582 4.0571 9.39045 4.69249 9.40289C5.39976 9.37985 6.10563 9.49043 6.77281 9.72726C7.25112 9.90384 7.69213 10.1684 8.07305 10.5073C8.36451 10.767 8.59582 11.0871 8.75084 11.4454C8.86326 11.7067 8.93744 11.9827 8.97153 12.2656C8.97748 12.3176 8.97074 12.3703 8.95189 12.4192C8.93303 12.468 8.90261 12.5116 8.86325 12.5462C8.78588 12.6165 8.68491 12.6551 8.58035 12.6544H7.41142C7.32011 12.6586 7.23024 12.6306 7.15754 12.5752C7.10119 12.5299 7.05504 12.4732 7.02208 12.4089C6.97311 12.3232 6.92243 12.2386 6.87003 12.155C6.76295 11.9998 6.63092 11.8634 6.4793 11.7514C6.26599 11.5928 6.03047 11.4666 5.78033 11.3768C5.43224 11.2558 5.06496 11.1996 4.69663 11.2109C4.06589 11.1794 3.44668 11.3882 2.96374 11.7951C2.74611 11.9941 2.57214 12.236 2.45286 12.5057C2.33358 12.7754 2.27157 13.0668 2.27076 13.3617C2.25005 13.7538 2.24036 14.1463 2.24172 14.5389C2.24172 14.9568 2.24173 15.3499 2.27076 15.7162C2.29794 16.5151 2.53109 17.0952 2.96374 17.4551C3.45715 17.8356 4.07019 18.0274 4.69249 17.996C5.02322 17.9985 5.35296 17.9594 5.6739 17.8794C5.95497 17.8108 6.21806 17.6831 6.44613 17.5053C6.6696 17.3224 6.8433 17.086 6.95157 16.8188C7.0806 16.487 7.14188 16.1336 7.13266 15.7784V15.6558H5.37073C5.31936 15.6566 5.26837 15.6467 5.22109 15.6266C5.17379 15.6065 5.13122 15.5768 5.09612 15.5392C5.0594 15.5041 5.03027 15.4618 5.01053 15.415C4.9908 15.3681 4.98089 15.3178 4.98139 15.2669V14.2408C4.98246 14.1377 5.02376 14.0391 5.0965 13.9661C5.16923 13.893 5.26764 13.8512 5.37073 13.8496H8.69876C8.80194 13.8512 8.90042 13.893 8.97316 13.9662C9.04591 14.0394 9.08716 14.1381 9.08811 14.2413V15.8281C9.09412 16.3723 9.00106 16.9129 8.81349 17.4237C8.63324 17.8968 8.34885 18.3233 7.98137 18.6715C7.5879 19.0431 7.11984 19.3267 6.60831 19.5036C5.3629 19.8934 4.02807 19.8934 2.78266 19.5036C2.28578 19.3393 1.8302 19.0697 1.44693 18.7134C1.08748 18.3615 0.809158 17.9353 0.631384 17.4647C0.438161 16.9544 0.332693 16.4151 0.319451 15.8696C0.319451 15.6867 0.302865 15.4849 0.298718 15.2642C0.294571 15.0439 0.298718 14.8149 0.298718 14.5841V13.9059C0.298718 13.6833 0.311158 13.4898 0.319451 13.2986M13.5358 13.7358C13.2913 13.729 13.048 13.7708 12.8198 13.8589C12.6355 13.9317 12.4669 14.0386 12.3226 14.1749C12.1921 14.2987 12.0863 14.4462 12.0107 14.6094C11.944 14.7534 11.8985 14.9063 11.8757 15.0633H15.1374C15.1165 14.9088 15.0802 14.7567 15.0291 14.6094C14.9751 14.4473 14.8862 14.299 14.7688 14.1749C14.6352 14.0363 14.4725 13.9284 14.2928 13.8589C14.0509 13.7685 13.7935 13.7267 13.5354 13.7358H13.5358ZM9.99903 15.9014C9.99534 15.3835 10.0783 14.8693 10.2446 14.3786C10.3958 13.92 10.6362 13.4958 10.9519 13.1304C11.2625 12.7778 11.6438 12.4945 12.0711 12.2987C12.5289 12.0941 13.0256 11.9911 13.5271 11.9969C14.0279 11.9906 14.5243 12.0912 14.983 12.2923C15.413 12.4796 15.7997 12.7536 16.1188 13.0972C16.4317 13.4362 16.6748 13.8334 16.8344 14.2662C17.0039 14.7163 17.0901 15.1937 17.0882 15.6747V16.3239C17.0866 16.4271 17.0448 16.5256 16.9718 16.5985C16.8988 16.6714 16.8002 16.7131 16.6971 16.7146H11.8752C11.8706 16.9178 11.9167 17.1192 12.0107 17.2993C12.1029 17.4629 12.2291 17.6048 12.3812 17.7154C12.541 17.8338 12.7217 17.9218 12.9133 17.9753C13.1166 18.0318 13.3266 18.0605 13.5377 18.0605C13.7911 18.0679 14.0445 18.0361 14.2887 17.967C14.4592 17.9154 14.6204 17.8352 14.7646 17.7297C14.8457 17.6675 14.9328 17.614 15.025 17.5698C15.1125 17.5371 15.2061 17.5219 15.2996 17.526H16.4538C16.5598 17.5274 16.6611 17.5693 16.7367 17.6426C16.7751 17.6766 16.8049 17.7192 16.8237 17.7669C16.8425 17.8146 16.8498 17.8661 16.845 17.9172C16.8126 18.1058 16.7357 18.284 16.6206 18.4369C16.4515 18.6811 16.24 18.8922 15.9963 19.0613C15.6764 19.2838 15.3262 19.459 14.9563 19.5815C14.4973 19.731 14.0161 19.8011 13.5335 19.7888C13.0343 19.7946 12.539 19.6993 12.0775 19.5087C11.6473 19.3306 11.262 19.0591 10.9496 18.7139C10.6344 18.3529 10.3942 17.9328 10.2428 17.4781C10.0734 16.9685 9.99038 16.4342 9.99718 15.8972M20.5462 16.9413C20.5324 17.2012 20.6176 17.456 20.7854 17.655C20.9434 17.8338 21.2387 17.9232 21.6737 17.9232H22.5537C22.6567 17.9244 22.7551 17.9657 22.8281 18.0383C22.901 18.1109 22.9428 18.2091 22.9445 18.3121V19.2649C22.9429 19.3682 22.9012 19.4668 22.8282 19.5398C22.7551 19.6128 22.6565 19.6546 22.5533 19.6561H21.4843C20.5785 19.6561 19.8855 19.4368 19.404 18.9986C18.923 18.5609 18.6802 17.8891 18.676 16.9851V13.8796H17.7149C17.6639 13.8802 17.6133 13.8702 17.5664 13.8501C17.5195 13.83 17.4773 13.8004 17.4426 13.763C17.4048 13.7285 17.3749 13.6863 17.3548 13.6392C17.3347 13.5922 17.3249 13.5414 17.326 13.4903V12.536C17.3254 12.485 17.3355 12.4345 17.3556 12.3876C17.3756 12.3407 17.4053 12.2985 17.4426 12.2637C17.4776 12.2268 17.5199 12.1974 17.5667 12.1773C17.6135 12.1573 17.6639 12.147 17.7149 12.1472H18.6696V9.79269C18.6711 9.68991 18.7126 9.59177 18.7853 9.51909C18.858 9.44641 18.9561 9.40489 19.0589 9.40335H20.1569C20.2596 9.40489 20.3576 9.44634 20.4303 9.51893C20.503 9.59151 20.5446 9.68953 20.5462 9.79223V12.1467H22.4183C22.518 12.1525 22.6119 12.1959 22.681 12.2681C22.7501 12.3404 22.7892 12.4361 22.7906 12.536V13.4907C22.789 13.5934 22.7476 13.6915 22.675 13.7642C22.6024 13.8368 22.5044 13.8784 22.4017 13.8801H20.5292L20.5462 16.9418V16.9413ZM30.0346 15.8866L28.445 11.7703L26.8577 15.8866H30.0346ZM29.2398 9.54664C29.303 9.54207 29.3665 9.5506 29.4263 9.57169C29.486 9.59278 29.5408 9.62598 29.5872 9.6692C29.6803 9.77702 29.7507 9.90235 29.795 10.0378L33.3317 19.1654C33.3414 19.1976 33.346 19.2313 33.346 19.2649C33.3446 19.3681 33.303 19.4667 33.23 19.5398C33.1571 19.6128 33.0585 19.6545 32.9553 19.6561H31.9149C31.8426 19.6637 31.7695 19.6567 31.6998 19.6357C31.6302 19.6147 31.5655 19.5799 31.5095 19.5335C31.4414 19.465 31.3877 19.3835 31.3514 19.2939L30.7271 17.6924H26.1651L25.5408 19.2939C25.5046 19.3835 25.4508 19.465 25.3828 19.5335C25.3268 19.58 25.2621 19.6148 25.1925 19.6359C25.1228 19.6569 25.0497 19.6638 24.9773 19.6561H23.9369C23.8341 19.6538 23.7361 19.6118 23.6636 19.5389C23.5911 19.466 23.5497 19.3678 23.548 19.2649C23.5473 19.2311 23.5523 19.1975 23.5628 19.1654L27.0991 10.0378C27.1433 9.90235 27.2143 9.77702 27.3074 9.6692C27.3536 9.62574 27.4083 9.59239 27.4681 9.57129C27.528 9.55019 27.5915 9.54179 27.6548 9.54664H29.2398ZM39.5225 16.305C39.5515 16.0367 39.5515 15.7661 39.5225 15.4978C39.4663 14.8739 39.2727 14.4205 38.9461 14.1478C38.6101 13.8689 38.1846 13.7211 37.7481 13.7317C37.3129 13.7179 36.8882 13.8662 36.5561 14.1478C36.389 14.3009 36.2538 14.4855 36.1585 14.6912C36.0631 14.8968 36.0094 15.1192 36.0004 15.3457C35.9783 15.5279 35.9686 15.7114 35.9714 15.8949C35.9687 16.0788 35.9783 16.2622 36.0004 16.4442C36.0258 16.8957 36.2248 17.3201 36.5561 17.6283C36.8837 17.9186 37.3099 18.0734 37.7481 18.0605C38.1846 18.0711 38.6101 17.9233 38.9461 17.6444C39.2727 17.3721 39.4663 16.921 39.5225 16.2944V16.305ZM38.1849 19.7999C37.9155 19.8026 37.6468 19.7739 37.3841 19.7142C37.1695 19.6663 36.9603 19.5967 36.7598 19.5064C36.6004 19.4261 36.4503 19.3284 36.3124 19.2152C36.2045 19.1297 36.1037 19.0358 36.011 18.9341V22.0087C36.0094 22.1119 35.9676 22.2105 35.8946 22.2835C35.8216 22.3565 35.7231 22.3982 35.6199 22.3999H34.5237C34.4204 22.3986 34.3216 22.357 34.2486 22.2839C34.1755 22.2108 34.1339 22.1121 34.1325 22.0087V12.536C34.135 12.4333 34.1771 12.3355 34.25 12.263C34.3229 12.1905 34.421 12.149 34.5237 12.1472H35.6199C35.7227 12.1488 35.8209 12.1902 35.8938 12.2627C35.9668 12.3352 36.0088 12.4332 36.011 12.536V12.8692C36.224 12.6335 36.4812 12.442 36.7681 12.3057C36.9686 12.2152 37.1777 12.1454 37.3924 12.0974C37.6551 12.0378 37.9238 12.0092 38.1932 12.0121C38.6442 12.0056 39.0909 12.1015 39.4994 12.2927C39.8791 12.4724 40.2182 12.7282 40.4956 13.0438C40.7747 13.364 40.9952 13.7308 41.1471 14.1275C41.3051 14.5357 41.3954 14.967 41.413 15.4047C41.4235 15.548 41.4277 15.7166 41.4277 15.9101C41.4277 16.1037 41.4277 16.2723 41.413 16.4156C41.3952 16.8531 41.3054 17.2846 41.1471 17.6928C40.9952 18.0895 40.7746 18.4563 40.4956 18.7765C40.2181 19.0921 39.8792 19.3476 39.4994 19.5275C39.0877 19.7171 38.6381 19.8103 38.1849 19.7999ZM47.6852 16.305C47.7143 16.0367 47.7143 15.7661 47.6852 15.4978C47.6272 14.8739 47.436 14.4205 47.107 14.1478C46.7714 13.8682 46.3456 13.7204 45.909 13.7317C45.4739 13.7179 45.0491 13.8662 44.717 14.1478C44.5499 14.3009 44.4147 14.4855 44.3194 14.6912C44.224 14.8968 44.1703 15.1192 44.1614 15.3457C44.1404 15.528 44.1307 15.7114 44.1323 15.8949C44.1305 16.0788 44.1402 16.2622 44.1614 16.4442C44.1867 16.8957 44.3858 17.3201 44.717 17.6283C45.0448 17.9189 45.4711 18.0735 45.909 18.0605C46.3456 18.0718 46.7714 17.9239 47.107 17.6444C47.436 17.3721 47.6272 16.921 47.6852 16.2944V16.305ZM46.3417 19.7893C46.0723 19.7921 45.8036 19.7635 45.5409 19.704C45.3263 19.6557 45.1171 19.5859 44.9165 19.4958C44.7553 19.4187 44.6032 19.3238 44.4632 19.2128C44.3547 19.1273 44.2531 19.0334 44.1595 18.9318V22.0087C44.1597 22.06 44.1495 22.1108 44.1295 22.158C44.1094 22.2052 44.08 22.2479 44.043 22.2833C44.0079 22.3203 43.9656 22.3496 43.9188 22.3697C43.872 22.3897 43.8216 22.4 43.7706 22.3999H42.6722C42.5692 22.3982 42.4709 22.3564 42.3983 22.2833C42.3256 22.2103 42.2844 22.1117 42.2833 22.0087V12.536C42.2845 12.4333 42.3259 12.335 42.3985 12.2624C42.4712 12.1897 42.5694 12.1483 42.6722 12.1472H43.7706C43.873 12.1496 43.9705 12.1914 44.0429 12.2638C44.1153 12.3362 44.1571 12.4337 44.1595 12.536V12.8692C44.2531 12.7678 44.3549 12.6733 44.4632 12.5881C44.6032 12.4775 44.7553 12.3821 44.9165 12.3052C45.1172 12.2152 45.3263 12.1456 45.5409 12.0974C45.8036 12.0379 46.0723 12.0093 46.3417 12.0121C46.7934 12.0056 47.2408 12.1015 47.6502 12.2927C48.0294 12.4735 48.3682 12.729 48.6464 13.0438C48.9247 13.3641 49.1445 13.7309 49.2956 14.1275C49.4541 14.5357 49.5439 14.967 49.5619 15.4047C49.572 15.548 49.5762 15.7166 49.5762 15.9101C49.5762 16.1037 49.5762 16.2723 49.5619 16.4156C49.544 16.8531 49.454 17.2846 49.2956 17.6928C49.1444 18.0893 48.9247 18.4562 48.6464 18.7765C48.3682 19.0913 48.0294 19.3468 47.6502 19.5275C47.2409 19.7189 46.7935 19.815 46.3417 19.8086" fill="#050038"/>
</g>
<defs>
<clipPath id="clip0_1_45">
<rect width="50" height="32" fill="white" transform="translate(0.296875)"/>
</clipPath>
</defs>
</svg>
