<svg width="24" height="25" viewBox="0 0 24 25" fill="none" xmlns="http://www.w3.org/2000/svg">
<g clip-path="url(#clip0_1_415)">
<path d="M8.66721 12.9219C8.66721 11.081 10.1591 9.58827 12 9.58827C13.8409 9.58827 15.3336 11.081 15.3336 12.9219C15.3336 14.7628 13.8409 16.2555 12 16.2555C10.1591 16.2555 8.66721 14.7628 8.66721 12.9219ZM6.86511 12.9219C6.86511 15.7579 9.16398 18.0568 12 18.0568C14.836 18.0568 17.1349 15.7579 17.1349 12.9219C17.1349 10.0858 14.836 7.78697 12 7.78697C9.16398 7.78697 6.86511 10.0858 6.86511 12.9219ZM16.1381 7.58343C16.1381 8.24579 16.6753 8.78374 17.3385 8.78374C18.0008 8.78374 18.5388 8.24579 18.5388 7.58343C18.5388 6.92107 18.0016 6.38391 17.3385 6.38391C16.6753 6.38391 16.1381 6.92107 16.1381 7.58343ZM7.95961 21.0616C6.98465 21.0172 6.45477 20.8549 6.10259 20.7175C5.6357 20.5358 5.30291 20.3193 4.95234 19.9696C4.60259 19.6198 4.3853 19.287 4.20436 18.8201C4.06704 18.4679 3.90469 17.9381 3.86026 16.9631C3.81179 15.909 3.8021 15.5923 3.8021 12.9219C3.8021 10.2514 3.8126 9.93561 3.86026 8.88067C3.90469 7.90571 4.06785 7.37665 4.20436 7.02365C4.38611 6.55676 4.60259 6.22397 4.95234 5.8734C5.3021 5.52365 5.6349 5.30636 6.10259 5.12542C6.45477 4.98811 6.98465 4.82576 7.95961 4.78133C9.01373 4.73287 9.33037 4.72317 12 4.72317C14.6704 4.72317 14.9863 4.73367 16.0412 4.78133C17.0162 4.82576 17.5452 4.98891 17.8982 5.12542C18.3651 5.30636 18.6979 5.52365 19.0485 5.8734C19.3982 6.22317 19.6147 6.55676 19.7964 7.02365C19.9338 7.37583 20.0961 7.90571 20.1406 8.88067C20.189 9.93561 20.1987 10.2514 20.1987 12.9219C20.1987 15.5915 20.189 15.9082 20.1406 16.9631C20.0961 17.9381 19.933 18.4679 19.7964 18.8201C19.6147 19.287 19.3982 19.6198 19.0485 19.9696C18.6987 20.3193 18.3651 20.5358 17.8982 20.7175C17.546 20.8549 17.0162 21.0172 16.0412 21.0616C14.9871 21.1101 14.6704 21.1198 12 21.1198C9.33037 21.1198 9.01373 21.1101 7.95961 21.0616ZM7.87722 2.98246C6.8126 3.03093 6.08562 3.19974 5.44992 3.44691C4.79241 3.70216 4.23506 4.04465 3.67851 4.60038C3.12278 5.15613 2.78029 5.71348 2.52504 6.3718C2.27787 7.00749 2.10905 7.73448 2.06058 8.7991C2.01131 9.86533 2 10.2062 2 12.9219C2 15.6376 2.01131 15.9784 2.06058 17.0447C2.10905 18.1093 2.27787 18.8363 2.52504 19.472C2.78029 20.1295 3.12197 20.6877 3.67851 21.2434C4.23425 21.7991 4.7916 22.1408 5.44992 22.3969C6.08643 22.644 6.8126 22.8129 7.87722 22.8613C8.94427 22.9098 9.28433 22.9219 12 22.9219C14.7165 22.9219 15.0565 22.9106 16.1228 22.8613C17.1874 22.8129 17.9144 22.644 18.5501 22.3969C19.2076 22.1408 19.7649 21.7991 20.3215 21.2434C20.8772 20.6877 21.2189 20.1295 21.475 19.472C21.7221 18.8363 21.8918 18.1093 21.9394 17.0447C21.9879 15.9776 21.9992 15.6376 21.9992 12.9219C21.9992 10.2062 21.9879 9.86533 21.9394 8.7991C21.891 7.73448 21.7221 7.00749 21.475 6.3718C21.2189 5.71429 20.8772 5.15693 20.3215 4.60038C19.7658 4.04465 19.2076 3.70216 18.5509 3.44691C17.9144 3.19974 17.1874 3.03012 16.1236 2.98246C15.0574 2.934 14.7165 2.92188 12.0008 2.92188C9.28433 2.92188 8.94427 2.93319 7.87722 2.98246Z" fill="white"/>
</g>
<defs>
<clipPath id="clip0_1_415">
<rect width="24" height="24" fill="white" transform="translate(0 0.921875)"/>
</clipPath>
</defs>
</svg>
