<svg width="360" height="153" viewBox="0 0 360 153" fill="none" xmlns="http://www.w3.org/2000/svg">
<path d="M124.276 139.987H134.898V95.1961H124.276V139.987ZM163.614 140.627C175.835 140.627 183.322 134.484 183.322 125.142C183.322 117.464 178.459 113.049 169.309 111.897L160.99 110.809C158.751 110.489 155.999 109.721 155.999 106.906C155.999 104.282 158.303 102.619 161.63 102.619C165.342 102.619 167.645 104.282 168.413 107.61L179.739 107.546C179.099 99.5473 172.252 94.5563 162.014 94.5563C151.584 94.5563 145.314 99.8032 145.314 108.058C145.314 114.904 149.537 118.871 157.919 119.959L167.069 121.111C169.565 121.495 172.188 122.391 172.188 125.782C172.188 129.557 168.989 131.797 163.806 131.797C157.407 131.797 153.568 128.405 153.184 122.327H141.154C141.602 132.82 149.793 140.627 163.614 140.627ZM211.917 140.627C225.866 140.627 236.296 130.773 236.296 117.592C236.296 104.474 225.866 94.5563 211.917 94.5563C197.968 94.5563 187.538 104.474 187.538 117.592C187.538 130.773 197.968 140.627 211.917 140.627ZM211.917 131.093C204.175 131.093 198.736 125.526 198.736 117.592C198.736 109.721 204.175 104.154 211.917 104.154C219.659 104.154 225.098 109.721 225.098 117.592C225.098 125.526 219.659 131.093 211.917 131.093Z" fill="#050038"/>
</svg>
