<svg width="24" height="25" viewBox="0 0 24 25" fill="none" xmlns="http://www.w3.org/2000/svg">
<path fill-rule="evenodd" clip-rule="evenodd" d="M24 12.4219C24 19.0493 18.6275 24.4219 12 24.4219C5.37259 24.4219 0 19.0493 0 12.4219C0 5.79446 5.37259 0.421875 12 0.421875C18.6275 0.421875 24 5.79446 24 12.4219ZM6.12377 14.4219C6.04208 13.7667 6 13.0992 6 12.4219C6 11.7446 6.04209 11.0771 6.1238 10.4219H2.20004C2.06887 11.0681 2 11.7369 2 12.4219C2 13.1068 2.06887 13.7756 2.20004 14.4219H6.12377ZM6.50405 16.4219H2.83209C4.0096 19.1169 6.34063 21.1925 9.20108 22.0249C7.96156 20.3755 7.03345 18.4787 6.50405 16.4219ZM8.57976 16.4219H15.4203C14.7623 18.6328 13.5728 20.6148 12 22.2199C10.4272 20.6148 9.23776 18.6328 8.57976 16.4219ZM15.8583 14.4219H8.14179C8.04836 13.7687 8 13.1009 8 12.4219C8 11.7428 8.04836 11.0751 8.14179 10.4219H15.8583C15.9516 11.0751 16 11.7428 16 12.4219C16 13.1009 15.9516 13.7687 15.8583 14.4219ZM17.8763 14.4219C17.9579 13.7667 18 13.0992 18 12.4219C18 11.7446 17.9579 11.0771 17.8763 10.4219H21.8C21.9312 11.0681 22 11.7369 22 12.4219C22 13.1068 21.9312 13.7756 21.8 14.4219H17.8763ZM17.496 16.4219H21.1679C19.9904 19.1169 17.6593 21.1925 14.7989 22.0249C16.0384 20.3755 16.9665 18.4787 17.496 16.4219ZM12 2.62392C10.4272 4.22892 9.23776 6.21096 8.57976 8.42188H15.4203C14.7623 6.21096 13.5728 4.22892 12 2.62392ZM14.7989 2.81885C16.0384 4.46826 16.9665 6.36504 17.4959 8.42188H21.1679C19.9904 5.72685 17.6593 3.65114 14.7989 2.81885ZM2.83209 8.42188H6.50408C7.03348 6.36504 7.9616 4.46826 9.20111 2.81885C6.34064 3.65114 4.0096 5.72685 2.83209 8.42188Z" fill="white"/>
</svg>
