<svg width="24" height="25" viewBox="0 0 24 25" fill="none" xmlns="http://www.w3.org/2000/svg">
<g clip-path="url(#clip0_1_412)">
<path d="M19.0002 2.92188H5C3 2.92188 2 3.92188 2 5.92188L2.00059 19.9219C2.00059 21.9219 3.00021 22.9219 5.00021 22.9219H19.0002C21.0002 22.9219 22.0002 21.9219 22.0002 19.9219V5.92188C22.0002 3.92188 21.0002 2.92188 19.0002 2.92188ZM8.66687 18.7553H6.16687V9.58854H8.66687V18.7553ZM7.41687 8.53187C6.61187 8.53187 5.95854 7.87355 5.95854 7.06188C5.95854 6.25021 6.61187 5.59187 7.41687 5.59187C8.22187 5.59187 8.87521 6.25021 8.87521 7.06188C8.87521 7.87355 8.22271 8.53187 7.41687 8.53187ZM18.6669 18.7553H16.1669V14.0853C16.1669 11.2786 12.8335 11.4911 12.8335 14.0853V18.7553H10.3335V9.58854H12.8335V11.0594C13.9969 8.90438 18.6669 8.74521 18.6669 13.1228V18.7553Z" fill="white"/>
</g>
<defs>
<clipPath id="clip0_1_412">
<rect width="24" height="24" fill="white" transform="translate(0 0.921875)"/>
</clipPath>
</defs>
</svg>
