<svg width="74" height="64" viewBox="0 0 74 64" fill="none" xmlns="http://www.w3.org/2000/svg">
<g clip-path="url(#clip0_4_626)">
<path d="M20.5771 32.9162C20.5771 29.2245 20.5828 25.5299 20.5686 21.841C20.5686 21.3278 20.9078 21.0086 21.421 21.0086C22.3703 21.0029 23.3253 21 24.2746 21.0086C24.8134 21.0143 25.127 21.3421 25.1213 21.8467C25.107 25.1137 25.1127 28.3863 25.1127 31.6533V31.8329C25.1184 32.1949 25.2781 32.4601 25.6116 32.6026C25.9337 32.7394 26.2359 32.6682 26.4982 32.3888C27.456 31.3625 28.411 30.3334 29.3632 29.3043C29.9476 28.6714 30.5406 28.0471 31.1193 27.4114C31.3388 27.1719 31.5925 27.0579 31.9203 27.0636C33.1148 27.0721 34.315 27.0721 35.5094 27.0636C35.8629 27.0636 36.1423 27.1719 36.2906 27.4997C36.4416 27.839 36.3704 28.1412 36.1167 28.4177C34.3235 30.4018 32.5361 32.3888 30.7458 34.3729C30.6033 34.5326 30.4636 34.6979 30.3524 34.8804C30.1529 35.2025 30.1529 35.5189 30.3382 35.8468C30.5377 36.2003 30.8199 36.4853 31.0993 36.7733C33.2687 39.0026 35.4439 41.2319 37.619 43.4555C37.8813 43.7263 37.9582 44.0228 37.8271 44.3706C37.7017 44.6955 37.4537 44.8438 37.046 44.8438C35.7175 44.8438 34.3862 44.8381 33.0578 44.8438C32.7585 44.8438 32.5275 44.7497 32.3137 44.5216C30.3838 42.4948 28.4395 40.4793 26.501 38.4609C26.2245 38.1701 25.9166 38.096 25.5973 38.23C25.2752 38.3583 25.107 38.632 25.107 39.0282V43.9971C25.107 44.533 24.8362 44.8096 24.3059 44.8124H21.3868C20.8024 44.8124 20.5743 44.5815 20.5743 44.0057L20.5771 32.9162ZM38.6909 29.2016C38.6909 26.7585 38.6994 24.3126 38.6823 21.8695C38.6766 21.3164 38.9988 21 39.5604 21C40.484 21.0057 41.402 21 42.3228 21C42.8616 21 43.1694 21.3022 43.1694 21.8381C43.1751 23.2635 43.1751 24.6917 43.178 26.1171C43.178 26.7329 43.4944 27.0522 44.1045 27.0522H47.9388C48.3436 27.0522 48.6087 27.2717 48.6885 27.6679C48.7284 27.8589 48.7142 28.0499 48.7199 28.2466V30.6099C48.7199 31.2285 48.4434 31.5051 47.8247 31.5051C46.5989 31.5051 45.3731 31.4994 44.1473 31.4994C43.5201 31.4994 43.1979 31.8158 43.1922 32.4344C43.1865 33.6916 43.1666 34.9431 43.1837 36.2003C43.2094 38.116 44.6775 39.8806 46.5847 40.331C47.1463 40.465 47.7164 40.4878 48.2866 40.408C48.7512 40.3424 49.0876 40.5904 49.1418 41.058C49.2587 42.0529 49.3641 43.0507 49.4668 44.0456C49.5067 44.4247 49.2302 44.7725 48.8396 44.8352C47.7877 45.0148 46.7357 44.9521 45.7009 44.7183C42.0063 43.8916 39.2924 40.9382 38.7622 37.1952C38.708 36.8246 38.6909 36.454 38.6909 36.0862V29.2016ZM71.4946 40.8755C71.4946 40.5363 71.2352 40.2997 70.896 40.2826C70.665 40.274 70.437 40.2655 70.2061 40.2455C69.0259 40.1571 68.4186 39.6041 68.2048 38.441C68.0395 37.5544 68.0452 36.6535 68.0395 35.7527C68.0309 33.1671 68.0338 30.5814 68.0338 27.9958C68.0338 27.9188 68.0338 27.8475 68.0281 27.7734C67.9967 27.3544 67.6945 27.055 67.2698 27.055C66.2749 27.0493 65.2771 27.0493 64.2822 27.055C63.8318 27.055 63.5125 27.3772 63.4925 27.8219C63.4868 27.9302 63.4925 28.0414 63.4925 28.1697C63.407 28.1241 63.3414 28.0927 63.2787 28.0613C61.4827 27.1177 59.5784 26.8127 57.5772 27.1462C52.4829 28.0015 49.1617 33.1043 50.4275 38.1103C52.0353 44.4618 59.6497 46.9904 64.744 42.8568C64.8637 42.7599 64.9122 42.7627 65.0063 42.8939C65.5308 43.6436 66.2236 44.1853 67.0845 44.5131C68.0338 44.8751 69.023 44.9236 70.0265 44.8523C70.3828 44.8267 70.7363 44.7754 71.0613 44.6129C71.2922 44.496 71.4804 44.3221 71.4861 44.057C71.506 42.9965 71.5003 41.936 71.4946 40.8755ZM59.0995 40.4165C56.6222 40.408 54.6523 38.3925 54.6609 35.8667C54.6694 33.4778 56.6935 31.4937 59.1223 31.4994C61.6139 31.5051 63.5809 33.5063 63.5752 36.0378C63.5667 38.4239 61.5284 40.4194 59.0995 40.4165ZM9.45061 27.018C4.71835 27.0265 0.607548 30.6812 0.50207 35.7584C0.393741 41.0095 4.553 44.7668 9.1969 44.8837C14.1629 45.0091 18.2766 41.0893 18.3621 36.1376C18.4448 31.0974 14.4965 27.075 9.45061 27.018ZM9.41926 40.4165C6.97615 40.4165 4.97207 38.4096 4.96636 35.958C4.96066 33.5034 6.9619 31.4994 9.42781 31.4908C11.888 31.4851 13.8807 33.4835 13.8807 35.9523C13.8807 38.421 11.888 40.4165 9.41926 40.4165Z" fill="#050038"/>
</g>
<defs>
<clipPath id="clip0_4_626">
<rect width="73" height="64" fill="white" transform="translate(0.5)"/>
</clipPath>
</defs>
</svg>
