<svg width="25" height="24" viewBox="0 0 25 24" fill="none" xmlns="http://www.w3.org/2000/svg">
<g clip-path="url(#clip0_4_1065)">
<path fill-rule="evenodd" clip-rule="evenodd" d="M24.6563 12C24.6563 18.6275 19.2837 24 12.6563 24C6.02884 24 0.65625 18.6275 0.65625 12C0.65625 5.37259 6.02884 0 12.6563 0C19.2837 0 24.6563 5.37259 24.6563 12ZM6.78002 14C6.69833 13.3448 6.65625 12.6773 6.65625 12C6.65625 11.3227 6.69834 10.6552 6.78005 10H2.85629C2.72512 10.6462 2.65625 11.3151 2.65625 12C2.65625 12.6849 2.72512 13.3537 2.85629 14H6.78002ZM7.1603 16H3.48834C4.66585 18.6951 6.99688 20.7707 9.85733 21.6031C8.61781 19.9536 7.6897 18.0568 7.1603 16ZM9.23601 16H16.0765C15.4185 18.2109 14.2291 20.1929 12.6563 21.798C11.0835 20.1929 9.89401 18.2109 9.23601 16ZM16.5145 14H8.79804C8.70461 13.3468 8.65625 12.679 8.65625 12C8.65625 11.321 8.70461 10.6532 8.79804 10H16.5145C16.6079 10.6532 16.6563 11.321 16.6563 12C16.6563 12.679 16.6079 13.3468 16.5145 14ZM18.5325 14C18.6141 13.3448 18.6563 12.6773 18.6563 12C18.6563 11.3227 18.6141 10.6552 18.5325 10H22.4563C22.5875 10.6462 22.6563 11.3151 22.6563 12C22.6563 12.6849 22.5875 13.3537 22.4563 14H18.5325ZM18.1523 16H21.8241C20.6467 18.6951 18.3156 20.7707 15.4552 21.6031C16.6947 19.9536 17.6228 18.0568 18.1523 16ZM12.6563 2.20204C11.0835 3.80704 9.89401 5.78908 9.23601 8H16.0765C15.4185 5.78908 14.2291 3.80704 12.6563 2.20204ZM15.4552 2.39697C16.6947 4.04639 17.6228 5.94316 18.1521 8H21.8241C20.6467 5.30497 18.3156 3.22927 15.4552 2.39697ZM3.48834 8H7.16033C7.68973 5.94316 8.61785 4.04639 9.85736 2.39697C6.99689 3.22927 4.66585 5.30497 3.48834 8Z" fill="#050038"/>
</g>
<defs>
<clipPath id="clip0_4_1065">
<rect width="24" height="24" fill="white" transform="translate(0.65625)"/>
</clipPath>
</defs>
</svg>
