<svg width="24" height="25" viewBox="0 0 24 25" fill="none" xmlns="http://www.w3.org/2000/svg">
<g clip-path="url(#clip0_1_406)">
<path d="M22 6.81605C21.2642 7.13762 20.4733 7.3542 19.6433 7.45182C20.4908 6.95223 21.1417 6.1606 21.4475 5.2172C20.655 5.67988 19.7767 6.01621 18.8417 6.19752C18.0942 5.41245 17.0267 4.92188 15.8467 4.92188C13.1975 4.92188 11.2508 7.35501 11.8492 9.88085C8.44 9.71268 5.41667 8.10482 3.3925 5.66101C2.3175 7.47643 2.835 9.85133 4.66167 11.054C3.99 11.0326 3.35667 10.8513 2.80417 10.5486C2.75917 12.4198 4.12167 14.1705 6.095 14.5601C5.5175 14.7144 4.885 14.7504 4.24167 14.629C4.76333 16.2336 6.27833 17.401 8.075 17.4338C6.35 18.7652 4.17667 19.36 2 19.1073C3.81583 20.2533 5.97333 20.9219 8.29 20.9219C15.9083 20.9219 20.2125 14.588 19.9525 8.9071C20.7542 8.33697 21.45 7.62573 22 6.81605Z" fill="white"/>
</g>
<defs>
<clipPath id="clip0_1_406">
<rect width="24" height="24" fill="white" transform="translate(0 0.921875)"/>
</clipPath>
</defs>
</svg>
