<svg width="54" height="64" viewBox="0 0 54 64" fill="none" xmlns="http://www.w3.org/2000/svg">
<g clip-path="url(#clip0_4_613)">
<path d="M24.4868 36.6874H30.9592V34.5268H30.2485C30.2485 35.3533 29.644 35.9626 28.7207 35.9626H27.7242V32.737H28.7987V32.0215H24.4868V32.737H25.5731V35.9626H24.4868V36.6852V36.6874Z" fill="#050038"/>
<path d="M34.072 36.6898L36.5891 36.6922L38.7261 32.7393H39.7981V32.0215H36.575V32.7393H37.5077L35.9492 35.6154L34.3719 32.7393H35.5029V32.0215H30.8275L30.8251 32.7393H31.8972L34.072 36.6898Z" fill="#050038"/>
<path d="M11.5987 32.0215H6.92326L6.9209 32.7393H7.99058L10.1677 36.6898L12.6849 36.6922L14.8219 32.7393H15.8939V32.0215H12.6707V32.7393H13.6011L12.045 35.6154L10.4676 32.7393H11.5987V32.0215Z" fill="#050038"/>
<path d="M16.5203 34.3587C16.5203 35.7331 17.6278 36.8263 19.8474 36.8263C22.0671 36.8263 23.1627 35.7331 23.1627 34.3587C23.1627 33.0034 22.0009 31.9219 19.8333 31.9219C17.6679 31.9219 16.518 33.0034 16.518 34.3587H16.5203ZM20.9902 34.3706C20.9761 35.2182 20.6243 36.1015 19.8119 36.0872C19.021 36.0731 18.6738 35.1994 18.6881 34.3304C18.7046 33.4308 19.1343 32.6467 19.8758 32.6586C20.6172 32.6727 21.0068 33.4709 20.9926 34.3706H20.9902Z" fill="#050038"/>
<path d="M40.4164 34.3587C40.4164 35.7331 41.5238 36.8263 43.7435 36.8263C45.9631 36.8263 47.0588 35.7331 47.0588 34.3587C47.0588 33.0034 45.897 31.9219 43.7316 31.9219C41.5664 31.9219 40.4164 33.0034 40.4164 34.3587ZM43.7718 32.6586C44.5109 32.6727 44.9028 33.4709 44.8863 34.3706C44.8698 35.2182 44.5204 36.1015 43.708 36.0872C42.917 36.0731 42.5699 35.1994 42.584 34.3304C42.6005 33.4308 43.0304 32.6467 43.7718 32.6586Z" fill="#050038"/>
<path d="M48.9336 19.5158L46.2251 22.2242C48.5463 25.8063 49.897 30.0779 49.897 34.666C49.897 47.3156 39.6418 57.5708 26.9922 57.5708C14.3426 57.5708 4.08736 47.3156 4.08736 34.666C4.08736 22.0165 14.3426 11.7612 26.9922 11.7612C31.5897 11.7612 35.8708 13.1166 39.46 15.4496L42.1684 12.7411C37.8614 9.75405 32.631 8.00195 26.9922 8.00195C12.267 8.00195 0.328125 19.9384 0.328125 34.666C0.328125 49.3912 12.2646 61.3301 26.9922 61.3301C41.7174 61.3301 53.6562 49.3936 53.6562 34.666C53.6562 29.039 51.9112 23.8181 48.9359 19.5158H48.9336Z" fill="#050038"/>
<path d="M40.4025 9.05176V9.8003C42.0199 10.6763 43.5406 11.7106 44.9503 12.8724L41.1509 16.6717C42.5843 17.7957 43.8783 19.0897 45.0047 20.5206L48.7993 16.7261C49.9634 18.1381 50.9977 19.6611 51.8738 21.2551H52.6034V9.05176H40.4001H40.4025Z" fill="#050038"/>
</g>
<defs>
<clipPath id="clip0_4_613">
<rect width="53.3281" height="63.9938" fill="white" transform="translate(0.328125 0.00292969)"/>
</clipPath>
</defs>
</svg>
