<svg width="206" height="115" viewBox="0 0 206 115" fill="none" xmlns="http://www.w3.org/2000/svg">
<g filter="url(#filter0_d_4_633)">
<path d="M196.485 52.1717L42.8555 25.0825C38.5043 24.3153 34.355 27.2207 33.5878 31.5718L32.3723 38.4655C31.605 42.8166 34.5104 46.9659 38.8615 47.7331L192.492 74.8222C196.843 75.5895 200.992 72.6841 201.759 68.333L202.975 61.4393C203.742 57.0882 200.837 52.9389 196.485 52.1717Z" fill="#FFD02F"/>
<path d="M48.834 37.5911L47.721 34.2111L46.02 33.9111L47.839 39.3701L47.354 42.1221L48.979 42.4081L49.464 39.6571L53.051 35.1511L51.339 34.8491L49.137 37.6441L48.834 37.5911Z" fill="#090909"/>
<path d="M57.281 35.7519C54.833 35.3199 53.206 36.8199 52.805 39.0949C52.403 41.3699 53.419 43.3359 55.868 43.7679C58.316 44.1999 59.943 42.6999 60.344 40.4249C60.745 38.1499 59.729 36.1829 57.281 35.7519ZM56.122 42.3269C54.681 42.0729 54.21 40.8169 54.462 39.3869C54.714 37.9579 55.586 36.9379 57.027 37.1929C58.479 37.4479 58.939 38.7019 58.687 40.1319C58.435 41.5619 57.573 42.5829 56.122 42.3269Z" fill="#090909"/>
<path d="M67.446 37.689L66.59 42.542C66.422 43.496 65.737 44.023 64.686 43.837C63.646 43.654 63.172 42.923 63.34 41.969L64.196 37.116L62.582 36.832L61.72 41.717C61.384 43.624 62.363 44.913 64.421 45.276C66.501 45.643 67.862 44.766 68.198 42.859L69.06 37.974L67.446 37.689Z" fill="#090909"/>
<path d="M74.621 38.9555L70.981 38.3135L69.618 46.0475L71.232 46.3325L71.746 43.4185L73.836 43.7875L74.362 46.8845L75.987 47.1715L75.403 43.7055C76.209 43.4455 76.746 42.8035 76.916 41.8395C77.182 40.3335 76.333 39.2565 74.621 38.9555ZM72.345 40.0165L73.981 40.3055C75.043 40.4925 75.392 40.8555 75.266 41.5705C75.151 42.2205 74.729 42.5255 73.786 42.3595L71.988 42.0425L72.345 40.0165Z" fill="#090909"/>
<path d="M82.206 40.292L80.842 48.027L82.457 48.311L83.82 40.577L82.206 40.292Z" fill="#090909"/>
<path d="M89.04 41.4977L85.812 40.9287L84.448 48.6627L87.676 49.2327C90.049 49.6507 91.535 48.3157 91.944 45.9977C92.355 43.6677 91.413 41.9157 89.04 41.4977ZM87.725 47.7557L86.316 47.5067L87.172 42.6537L88.58 42.9017C90.14 43.1767 90.523 44.3617 90.287 45.7047C90.052 47.0377 89.285 48.0307 87.725 47.7557Z" fill="#090909"/>
<path d="M94.705 48.9852L95.026 47.1652L98.222 47.7292L98.47 46.3212L95.274 45.7572L95.561 44.1322L99.667 44.8562L99.921 43.4152L94.201 42.4072L92.837 50.1422L98.676 51.1712L98.93 49.7302L94.705 48.9852Z" fill="#090909"/>
<path d="M105.291 52.3386L106.927 52.6266L105.821 44.4566L103.318 44.0156L99.495 51.3166L101.088 51.5966L102.085 49.6166L105.031 50.1366L105.291 52.3386ZM104.031 45.7376L104.508 45.8226L104.846 48.6516L102.745 48.2816L104.031 45.7376Z" fill="#090909"/>
<path d="M118.124 48.8147C118.208 47.3887 117.169 46.3127 115.49 46.0167C113.616 45.6857 112.392 46.5427 112.167 47.8207C111.963 48.9797 112.539 49.8297 113.777 50.2827L115.204 50.8027C115.824 51.0237 116.192 51.3447 116.085 51.9517C115.976 52.5697 115.339 52.8257 114.494 52.6767C113.66 52.5297 112.958 52.1377 112.968 51.2567L111.322 50.9667C111.204 52.5207 112.235 53.7077 114.185 54.0517C116.286 54.4227 117.496 53.4517 117.723 52.1627C117.968 50.7757 117.196 49.9587 116.021 49.5277L114.626 49.0137C114.113 48.8227 113.712 48.5617 113.801 48.0527C113.908 47.4467 114.541 47.2787 115.224 47.3987C116.025 47.5407 116.445 47.8827 116.477 48.5247L118.124 48.8147Z" fill="#090909"/>
<path d="M126.017 48.0178L119.593 46.8848L119.343 48.3038L121.748 48.7278L120.634 55.0438L122.248 55.3288L123.362 49.0128L125.767 49.4368L126.017 48.0178Z" fill="#090909"/>
<path d="M130.425 56.7693L132.061 57.0583L130.955 48.8883L128.452 48.4463L124.63 55.7473L126.222 56.0283L127.219 54.0483L130.166 54.5683L130.425 56.7693ZM129.165 50.1693L129.642 50.2533L129.981 53.0833L127.879 52.7133L129.165 50.1693Z" fill="#090909"/>
<path d="M138.303 50.183L134.663 49.541L133.299 57.276L134.913 57.561L135.427 54.647L137.518 55.015L138.044 58.113L139.669 58.399L139.085 54.934C139.89 54.674 140.428 54.032 140.598 53.068C140.863 51.562 140.015 50.485 138.303 50.183ZM136.027 51.245L137.663 51.534C138.724 51.721 139.074 52.084 138.948 52.799C138.833 53.449 138.411 53.754 137.468 53.588L135.67 53.271L136.027 51.245Z" fill="#090909"/>
<path d="M148.369 51.9582L141.945 50.8262L141.695 52.2452L144.1 52.6692L142.986 58.9842L144.6 59.2692L145.714 52.9532L148.119 53.3772L148.369 51.9582Z" fill="#090909"/>
<path d="M155.021 55.3206C155.105 53.8946 154.066 52.8186 152.387 52.5226C150.513 52.1916 149.29 53.0486 149.065 54.3266C148.86 55.4856 149.436 56.3356 150.674 56.7886L152.102 57.3086C152.722 57.5296 153.09 57.8506 152.983 58.4576C152.874 59.0756 152.237 59.3316 151.392 59.1826C150.558 59.0356 149.856 58.6436 149.866 57.7626L148.219 57.4726C148.102 59.0266 149.132 60.2136 151.082 60.5576C153.184 60.9286 154.394 59.9576 154.621 58.6686C154.866 57.2816 154.094 56.4646 152.919 56.0336L151.524 55.5196C151.01 55.3286 150.609 55.0676 150.699 54.5586C150.806 53.9526 151.439 53.7846 152.121 53.9046C152.923 54.0466 153.343 54.3886 153.375 55.0306L155.021 55.3206Z" fill="#090909"/>
<path d="M165.416 54.9642L164.885 57.9762L161.462 57.3722L161.993 54.3612L160.379 54.0762L159.015 61.8112L160.629 62.0952L161.201 58.8562L164.624 59.4602L164.053 62.6992L165.667 62.9832L167.031 55.2492L165.416 54.9642Z" fill="#090909"/>
<path d="M169.473 62.1698L169.794 60.3498L172.99 60.9138L173.238 59.5048L170.042 58.9418L170.329 57.3168L174.435 58.0408L174.689 56.5998L168.969 55.5918L167.605 63.3258L173.444 64.3558L173.698 62.9148L169.473 62.1698Z" fill="#090909"/>
<path d="M179.971 57.5316L176.331 56.8896L174.968 64.6236L176.582 64.9086L177.096 61.9946L179.186 62.3636L179.712 65.4606L181.337 65.7476L180.753 62.2826C181.559 62.0216 182.096 61.3796 182.266 60.4156C182.532 58.9096 181.683 57.8326 179.971 57.5316ZM177.695 58.5926L179.331 58.8816C180.393 59.0686 180.742 59.4316 180.616 60.1466C180.501 60.7966 180.079 61.1016 179.136 60.9356L177.338 60.6186L177.695 58.5926Z" fill="#090909"/>
<path d="M184.844 64.8798L185.165 63.0598L188.36 63.6238L188.609 62.2158L185.413 61.6518L185.699 60.0268L189.805 60.7508L190.059 59.3098L184.339 58.3018L182.976 66.0358L188.814 67.0658L189.069 65.6248L184.844 64.8798Z" fill="#090909"/>
</g>
<defs>
<filter id="filter0_d_4_633" x="0.24939" y="0.959961" width="234.848" height="113.985" filterUnits="userSpaceOnUse" color-interpolation-filters="sRGB">
<feFlood flood-opacity="0" result="BackgroundImageFix"/>
<feColorMatrix in="SourceAlpha" type="matrix" values="0 0 0 0 0 0 0 0 0 0 0 0 0 0 0 0 0 0 127 0" result="hardAlpha"/>
<feOffset dy="8"/>
<feGaussianBlur stdDeviation="16"/>
<feColorMatrix type="matrix" values="0 0 0 0 0.0196078 0 0 0 0 0 0 0 0 0 0.219608 0 0 0 0.08 0"/>
<feBlend mode="normal" in2="BackgroundImageFix" result="effect1_dropShadow_4_633"/>
<feBlend mode="normal" in="SourceGraphic" in2="effect1_dropShadow_4_633" result="shape"/>
</filter>
</defs>
</svg>
