<svg width="24" height="25" viewBox="0 0 24 25" fill="none" xmlns="http://www.w3.org/2000/svg">
<g clip-path="url(#clip0_1_418)">
<path d="M22.9991 10.6319C23.0485 9.20052 22.7355 7.77988 22.0891 6.50186C21.6505 5.97746 21.0418 5.62357 20.3691 5.50186C17.5866 5.24939 14.7926 5.14591 11.9991 5.19186C9.2157 5.14382 6.43176 5.24396 3.65905 5.49186C3.11087 5.59158 2.60357 5.84871 2.19905 6.23186C1.29905 7.06186 1.19905 8.48186 1.09905 9.68186C0.953962 11.8394 0.953962 14.0043 1.09905 16.1619C1.12798 16.8373 1.22854 17.5077 1.39905 18.1619C1.51963 18.6669 1.76357 19.1342 2.10905 19.5219C2.51632 19.9253 3.03543 20.1971 3.59905 20.3019C5.75497 20.568 7.92727 20.6783 10.0991 20.6319C13.5991 20.6819 16.669 20.6319 20.299 20.3519C20.8765 20.2535 21.4102 19.9814 21.8291 19.5719C22.109 19.2918 22.3181 18.949 22.4391 18.5719C22.7967 17.4745 22.9723 16.326 22.959 15.1719C22.9991 14.6119 22.9991 11.2319 22.9991 10.6319ZM9.73905 15.7719V9.58186L15.659 12.6919C13.9991 13.6119 11.809 14.6519 9.73905 15.7719Z" fill="white"/>
</g>
<defs>
<clipPath id="clip0_1_418">
<rect width="24" height="24" fill="white" transform="translate(0 0.921875)"/>
</clipPath>
</defs>
</svg>
