<svg width="361" height="154" viewBox="0 0 361 154" fill="none" xmlns="http://www.w3.org/2000/svg">
<path d="M105.53 140.956H115.704V96.1649H105.786L105.658 97.7646C105.402 101.476 103.675 103.203 99.8994 103.395L94.5884 103.651V111.842H105.53V140.956ZM147.087 141.596C161.036 141.596 171.466 131.742 171.466 118.56C171.466 105.443 161.036 95.525 147.087 95.525C133.138 95.525 122.708 105.443 122.708 118.56C122.708 131.742 133.138 141.596 147.087 141.596ZM147.087 132.062C139.344 132.062 133.905 126.495 133.905 118.56C133.905 110.69 139.344 105.123 147.087 105.123C154.829 105.123 160.268 110.69 160.268 118.56C160.268 126.495 154.829 132.062 147.087 132.062ZM201.139 141.596C215.088 141.596 225.518 131.742 225.518 118.56C225.518 105.443 215.088 95.525 201.139 95.525C187.19 95.525 176.76 105.443 176.76 118.56C176.76 131.742 187.19 141.596 201.139 141.596ZM201.139 132.062C193.396 132.062 187.957 126.495 187.957 118.56C187.957 110.69 193.396 105.123 201.139 105.123C208.881 105.123 214.32 110.69 214.32 118.56C214.32 126.495 208.881 132.062 201.139 132.062ZM266.33 114.785H254.045V102.628H245.279V114.785H233.057V123.679H245.279V135.837H254.045V123.679H266.33V114.785Z" fill="#050038"/>
</svg>
