<svg width="361" height="153" viewBox="0 0 361 153" fill="none" xmlns="http://www.w3.org/2000/svg">
<path d="M191.448 113.304V105.178H181.274L181.402 95.1962H172.955L172.763 105.178H163.101L163.229 95.1962H154.719L154.591 105.178H144.033V113.304H154.463L154.335 121.943H144.033V130.069H154.207L154.079 139.987H162.589L162.717 130.069H172.443L172.315 139.987H180.762L180.89 130.069H191.448V121.943H181.018L181.146 113.304H191.448ZM172.571 121.943H162.845L162.973 113.304H172.699L172.571 121.943ZM208.056 139.987H218.23V95.1962H208.312L208.184 96.7958C207.928 100.507 206.201 102.235 202.425 102.427L197.114 102.683V110.873H208.056V139.987Z" fill="#050038"/>
</svg>
