<svg width="224" height="64" viewBox="0 0 224 64" fill="none" xmlns="http://www.w3.org/2000/svg">
<path fill-rule="evenodd" clip-rule="evenodd" d="M97.7555 49.0964V37.0114H100.964V49.0964H97.7555ZM112.37 39.9386C112.324 39.9253 111.013 39.5738 109.936 39.5738C108.688 39.5738 108.01 39.9791 108.01 40.554C108.01 41.2831 108.926 41.5378 109.438 41.6951L110.296 41.9605C112.317 42.584 113.237 43.9265 113.237 45.3847C113.237 48.3918 110.513 49.4032 108.13 49.4032C106.474 49.4032 104.923 49.1066 104.77 49.0758V46.3198C105.045 46.3869 106.349 46.765 107.71 46.765C109.259 46.765 109.971 46.3259 109.971 45.648C109.971 45.0409 109.354 44.6904 108.582 44.4562C108.395 44.3937 108.111 44.3071 107.917 44.2472C106.184 43.7148 104.738 42.7249 104.738 40.7446C104.738 38.505 106.466 37.0022 109.336 37.0022C110.852 37.0022 112.277 37.3593 112.369 37.3829V39.9381L112.37 39.9386ZM141.978 43.2019C141.978 46.6277 139.254 49.4022 135.46 49.4022C131.665 49.4022 128.944 46.6277 128.944 43.2009C128.944 39.7824 131.666 37.0048 135.46 37.0048C139.254 37.0048 141.978 39.7823 141.978 43.2019ZM135.46 40.0539C133.613 40.0539 132.241 41.4645 132.241 43.2019C132.241 44.9445 133.613 46.3526 135.46 46.3526C137.304 46.3526 138.68 44.9445 138.68 43.2019C138.68 41.4645 137.304 40.0539 135.46 40.0539ZM93.1715 40.6483C93.0462 40.5847 92.0458 40.0098 90.5561 40.0098C88.5406 40.0098 87.1445 41.3687 87.1445 43.2025C87.1445 44.9814 88.4824 46.3976 90.5576 46.3976C92.0203 46.3976 93.0379 45.8335 93.1715 45.7628V48.9759C92.7852 49.082 91.7224 49.4022 90.3319 49.4022C86.8346 49.4022 83.7637 47.0596 83.7637 43.2009C83.7637 39.6276 86.544 37.0048 90.333 37.0048C91.7977 37.0048 92.8788 37.3491 93.1715 37.4341V40.6483ZM125.666 40.6483C125.539 40.5847 124.536 40.0098 123.049 40.0098C121.034 40.0098 119.639 41.3687 119.639 43.2025C119.639 44.9814 120.974 46.3976 123.048 46.3976C124.511 46.3976 125.529 45.8335 125.666 45.7628V48.9759C125.276 49.082 124.211 49.4022 122.83 49.4022C119.328 49.4022 116.254 47.0596 116.254 43.2009C116.254 39.6276 119.035 37.0048 122.83 37.0048C124.289 37.0048 125.372 37.3491 125.666 37.4341V40.6483Z" fill="#050038"/>
<path fill-rule="evenodd" clip-rule="evenodd" d="M148 20.6699C147.998 19.8414 147.307 19.1707 146.458 19.1717C145.607 19.1707 144.917 19.8414 144.915 20.6704V23.8128C144.901 24.3575 145.192 24.8668 145.675 25.1424C146.158 25.4191 146.756 25.4191 147.24 25.1424C147.723 24.8657 148.013 24.3564 147.999 23.8128V20.6699H148ZM139.522 16.5458C139.522 15.7203 138.834 15.0481 137.962 15.0481C137.113 15.0466 136.424 15.7162 136.422 16.5437V16.5448V23.8133C136.422 24.6408 137.11 25.3115 137.959 25.3115H137.962C138.833 25.3115 139.522 24.6418 139.522 23.8123V16.5432V16.5453V16.5458ZM131.029 10.902C131.028 10.074 130.338 9.40377 129.489 9.40479H129.488C128.639 9.40325 127.949 10.0729 127.947 10.9009V10.9014V26.7984C127.921 27.3497 128.209 27.8708 128.696 28.1526C129.184 28.435 129.792 28.4339 130.279 28.1501C130.765 27.8688 131.053 27.3497 131.028 26.7995V10.902H131.029ZM122.533 16.5458C122.532 15.7183 121.842 15.0481 120.993 15.0491C120.144 15.0476 119.454 15.7178 119.452 16.5453V16.5458V23.8128C119.454 24.6403 120.143 25.3105 120.993 25.309C121.842 25.3105 122.532 24.6403 122.533 23.8128V16.5437V16.5458ZM114.04 20.6699C114.038 19.8439 113.35 19.1758 112.503 19.1768C111.655 19.1748 110.965 19.8419 110.959 20.6689V23.8133C110.96 24.6408 111.65 25.311 112.499 25.3095C113.349 25.3115 114.039 24.6413 114.04 23.8138V23.8133V20.6704V20.6699ZM105.561 16.5458C105.559 15.7147 104.867 15.043 104.015 15.044C103.163 15.043 102.47 15.7147 102.469 16.5458V23.8128C102.47 24.6429 103.162 25.3146 104.014 25.3136H104.015C104.866 25.3151 105.558 24.6434 105.56 23.8133V23.8128V16.5437V16.5458H105.561ZM97.0704 10.902C97.0704 10.077 96.3762 9.40684 95.525 9.40684C94.6728 9.40684 93.9786 10.0755 93.9786 10.902V26.7984C93.9802 27.629 94.6723 28.3012 95.5245 28.2997C96.3767 28.3012 97.0688 27.629 97.0704 26.7984V10.902ZM88.5813 16.5458C88.5798 15.7147 87.8877 15.043 87.0349 15.044C86.1827 15.043 85.4906 15.7147 85.4891 16.5458V23.8128C85.4906 24.6429 86.1822 25.3146 87.0339 25.3136H87.0344C87.8866 25.3151 88.5782 24.6434 88.5803 23.8133V23.8128V16.5437V16.5458H88.5813ZM80.0912 20.6704C80.0912 19.846 79.3971 19.1763 78.5459 19.1763C77.6947 19.1763 77 19.846 77 20.6694V23.8123C77.0016 24.6429 77.6936 25.3151 78.5459 25.3136C79.3976 25.3151 80.0902 24.6434 80.0917 23.8128V20.6699L80.0912 20.6704Z" fill="#050038"/>
</svg>
