<svg width="224" height="64" viewBox="0 0 224 64" fill="none" xmlns="http://www.w3.org/2000/svg">
<path d="M154.912 40.4563C154.912 39.0515 156.053 37.9119 157.457 37.9119C158.861 37.9119 160 39.0516 160 40.4563C160 41.861 158.861 42.9999 157.457 42.9999C156.053 42.9999 154.912 41.861 154.912 40.4563Z" fill="#050038"/>
<path d="M73.7654 33.7179C73.7654 32.1063 73.454 30.9107 72.8312 30.1317C72.2075 29.3535 71.263 28.9648 69.993 28.9648H68.642V38.82H69.6756C71.0862 38.82 72.1198 38.4018 72.7781 37.5625C73.4356 36.7247 73.7654 35.4429 73.7654 33.7179ZM78.5833 33.55C78.5833 36.4861 77.794 38.7485 76.2156 40.3366C74.6371 41.9254 72.4181 42.7198 69.5578 42.7198H64V25.1261H69.9458C72.7038 25.1261 74.833 25.8483 76.3333 27.2921C77.8331 28.7366 78.5833 30.8216 78.5833 33.55ZM93.9784 42.7196H98.401V25.0522H93.9784V42.7196ZM104.614 36.1296C104.614 37.256 104.761 38.1152 105.055 38.7057C105.349 39.2969 105.843 39.5921 106.536 39.5921C107.222 39.5921 107.707 39.2969 107.99 38.7057C108.273 38.1152 108.413 37.2561 108.413 36.1296C108.413 35.009 108.271 34.1639 107.984 33.5933C107.697 33.0212 107.207 32.7348 106.513 32.7348C105.834 32.7348 105.349 33.0197 105.055 33.5866C104.761 34.1543 104.614 35.0017 104.614 36.1296ZM112.915 36.1296C112.915 38.2757 112.352 39.9499 111.224 41.1499C110.097 42.3507 108.519 42.9515 106.491 42.9515C104.546 42.9515 102.998 42.3375 101.848 41.1094C100.698 39.8814 100.123 38.2219 100.123 36.1296C100.123 33.9901 100.686 32.3277 101.814 31.1423C102.942 29.957 104.523 29.3643 106.56 29.3643C107.818 29.3643 108.931 29.6389 109.895 30.1874C110.861 30.736 111.606 31.5215 112.129 32.5449C112.653 33.5667 112.915 34.7624 112.915 36.1296ZM114.671 42.7197H119.094V35.9581V29.5963H114.671V42.7197ZM114.671 28.009H119.094V25.0515H114.671V28.009ZM128.056 39.3724C128.653 39.3724 129.364 39.2207 130.194 38.9196V42.2216C129.597 42.4837 129.03 42.6715 128.492 42.7827C127.953 42.8953 127.32 42.9513 126.597 42.9513C125.112 42.9513 124.041 42.578 123.384 41.8329C122.729 41.0878 122.401 39.9437 122.401 38.3999V32.9901H120.852V29.5975H122.401V26.2462L126.858 25.4709V29.5975H129.68V32.9901H126.858V38.098C126.858 38.9476 127.258 39.3724 128.056 39.3724ZM138.293 39.3724C138.89 39.3724 139.601 39.2207 140.431 38.9196V42.2216C139.835 42.4837 139.267 42.6715 138.729 42.7827C138.189 42.8953 137.559 42.9513 136.834 42.9513C135.349 42.9513 134.278 42.578 133.622 41.8329C132.966 41.0878 132.638 39.9437 132.638 38.3999V32.9901H131.088V29.5975H132.638V26.1954L137.094 25.4709V29.5975H139.918V32.9901H137.094V38.098C137.094 38.9476 137.494 39.3724 138.293 39.3724ZM146.012 34.5309C146.072 33.8123 146.278 33.2859 146.628 32.9494C146.98 32.6137 147.414 32.4459 147.934 32.4459C148.501 32.4459 148.952 32.6343 149.286 33.0142C149.622 33.3919 149.797 33.8977 149.812 34.5309H146.012ZM152.249 30.9115C151.198 29.8808 149.706 29.3647 147.777 29.3647C145.748 29.3647 144.188 29.9574 143.093 31.1427C142 32.3281 141.453 34.0288 141.453 36.2448C141.453 38.3909 142.044 40.0459 143.224 41.2077C144.404 42.3695 146.061 42.9511 148.196 42.9511C149.22 42.9511 150.102 42.8812 150.842 42.7421C151.576 42.6044 152.288 42.3555 152.977 41.9963L152.298 39.0388C151.796 39.2435 151.319 39.4011 150.869 39.5049C150.218 39.6558 149.504 39.7316 148.726 39.7316C147.874 39.7316 147.201 39.5233 146.707 39.1066C146.214 38.6891 145.951 38.1134 145.921 37.3801H153.827V35.365C153.827 33.4265 153.301 31.9415 152.249 30.9115ZM84.4531 34.5309C84.5135 33.8123 84.719 33.2859 85.0693 32.9494C85.4205 32.6137 85.8556 32.4459 86.3761 32.4459C86.9415 32.4459 87.3922 32.6343 87.7271 33.0142C88.0636 33.3919 88.238 33.8977 88.2535 34.5309H84.4531ZM90.6913 30.9115C89.6393 29.8808 88.1484 29.3647 86.2179 29.3647C84.1889 29.3647 82.6288 29.9574 81.5354 31.1427C80.4421 32.3281 79.8944 34.0288 79.8944 36.2448C79.8944 38.3909 80.4848 40.0459 81.6658 41.2077C82.8452 42.3695 84.5025 42.9511 86.6368 42.9511C87.6616 42.9511 88.5437 42.8812 89.2828 42.7421C90.0176 42.6044 90.7288 42.3555 91.4193 41.9963L90.739 39.0388C90.2376 39.2435 89.7605 39.4011 89.3107 39.5049C88.6584 39.6558 87.9451 39.7316 87.1674 39.7316C86.3156 39.7316 85.642 39.5233 85.1487 39.1066C84.6546 38.6891 84.3926 38.1134 84.3624 37.3801H92.2681V35.365C92.2681 33.4265 91.7424 31.9415 90.6911 30.9115" fill="#050038"/>
</svg>
