<svg width="289" height="63" viewBox="0 0 289 63" fill="none" xmlns="http://www.w3.org/2000/svg">
<g clip-path="url(#clip0_1_296)">
<g clip-path="url(#clip1_1_296)">
<path d="M14.2893 42.1057C20.7911 42.1057 23.3273 38.1353 23.3273 31.3424C23.3273 24.5508 20.3613 19.8154 14.4797 19.8154H7.88789V42.1057H14.2893ZM0.953125 13.885H15.3408C24.4734 13.885 30.355 21.2511 30.355 31.3424C30.355 36.8902 28.4895 41.7704 24.9033 44.7836C22.3686 46.8869 19.0688 48.0834 14.7663 48.0834H0.953125V13.885ZM50.161 35.8401C50.161 31.0558 47.9144 27.8033 43.9456 27.8033C39.928 27.8033 37.7272 31.0558 37.7272 35.8401C37.7272 40.6227 39.928 43.8264 43.9456 43.8264C47.9144 43.8264 50.161 40.6227 50.161 35.8401ZM31.1293 35.8401C31.1293 28.5212 36.3418 22.8773 43.9456 22.8773C51.548 22.8773 56.7605 28.5212 56.7605 35.8401C56.7605 43.1558 51.548 48.8012 43.9456 48.8012C36.3402 48.8012 31.1277 43.1574 31.1277 35.8401M57.835 35.8401C57.835 28.5212 62.6176 22.8773 70.0767 22.8773C76.4384 22.8773 80.3585 26.5612 81.2196 31.8697H74.8594C74.4296 29.7176 72.7561 28.0899 70.3648 28.0899C66.4432 28.0899 64.4359 31.1046 64.4359 35.8401C64.4359 40.4794 66.2999 43.5887 70.2687 43.5887C72.8993 43.5887 74.7649 42.2017 75.1947 39.4279H81.4589C81.0291 44.6404 76.9628 48.8012 70.4121 48.8012C62.6665 48.8012 57.835 43.1574 57.835 35.8401ZM98.3919 48.0848V45.2149H98.2486C96.5751 47.463 94.6624 48.7539 91.2194 48.7539C85.7676 48.7539 82.7071 45.2637 82.7071 39.9049V23.5465H89.1618V38.8045C89.1618 41.6744 90.4543 43.2534 93.2266 43.2534C96.2871 43.2534 98.1526 40.958 98.1526 37.7056V23.5465H104.656V48.0848H98.3919ZM136.341 48.0848H142.843V23.5465H136.341V48.0848ZM136.341 20.1171H142.843V14.0359H136.341V20.1171ZM162.708 34.7381C162.708 31.1518 160.795 28.0913 156.874 28.0913C153.574 28.0913 151.375 30.6732 151.375 34.7868C151.375 38.9477 153.574 41.3879 156.923 41.3879C161.035 41.3879 162.708 38.3746 162.708 34.7396M145.541 48.8012H151.994C152.521 50.3314 153.907 51.5278 156.92 51.5278C160.602 51.5278 162.372 49.7583 162.372 46.4098V43.7305H162.228C160.792 45.3567 158.929 46.6004 155.819 46.6004C150.369 46.6004 145.013 42.2962 145.013 34.8829C145.013 27.564 149.412 22.8773 155.629 22.8773C158.689 22.8773 160.936 24.0723 162.419 26.1299H162.515V23.5465H168.779V46.2178C168.779 49.6623 167.678 52.0049 165.862 53.6799C163.804 55.5927 160.649 56.4538 157.016 56.4538C150.321 56.4538 146.208 53.5839 145.539 48.8012M177.93 26.895H178.073C179.747 24.2644 181.995 22.8773 185.342 22.8773C190.411 22.8773 193.805 26.7029 193.805 32.0602V48.0834H187.302V33.0173C187.302 30.3867 185.771 28.5212 183.046 28.5212C180.177 28.5212 178.073 30.8165 178.073 34.165V48.0834H171.569V23.5465H177.93V26.895ZM121.521 27.4681C116.451 26.3706 114.06 25.5568 114.06 22.7814C114.06 20.3427 116.498 18.7637 120.229 18.7637C123.633 18.7637 126.235 20.361 126.768 23.5465H133.437C132.76 16.9058 127.832 13.2632 120.276 13.2632C112.675 13.2632 107.174 16.7549 107.174 23.4992C107.174 30.626 112.769 32.2523 118.89 33.6392C124.102 34.8357 127.355 35.5047 127.355 38.8517C127.355 42.0097 124.246 43.2534 120.708 43.2534C115.831 43.2534 113.487 41.6271 113.008 37.5135H106.218C106.458 44.7363 111.718 48.8485 120.994 48.8485C128.694 48.8485 134.288 44.9756 134.288 38.0394C134.288 30.6732 128.55 28.9998 121.521 27.4681Z" fill="#050038"/>
</g>
</g>
<defs>
<clipPath id="clip0_1_296">
<rect width="287.953" height="61.7031" fill="white" transform="translate(0.953125 0.921875)"/>
</clipPath>
<clipPath id="clip1_1_296">
<rect width="287.938" height="61.7009" fill="white" transform="translate(0.953125 0.923096)"/>
</clipPath>
</defs>
</svg>
