<svg width="20" height="32" viewBox="0 0 20 32" fill="none" xmlns="http://www.w3.org/2000/svg">
<path d="M5.82454 15.667C5.82454 18.5021 8.1336 20.8112 10.9687 20.8112C12.1995 20.811 13.3891 20.3683 14.3205 19.5637L16.2673 22.9407C14.7301 24.0657 12.8738 24.6705 10.9687 24.667C5.9978 24.667 1.96875 20.6379 1.96875 15.667C1.96875 10.696 5.9978 6.66699 10.9687 6.66699C11.56 6.66691 12.1497 6.72494 12.7296 6.84025L10.9687 10.5228C8.1336 10.5228 5.82454 12.8318 5.82454 15.667ZM17.6208 11.9818H14.9305C15.003 11.5596 15.2645 11.3234 15.7936 11.0556L16.2882 10.8036C17.1735 10.35 17.646 9.83651 17.646 8.99857C17.646 8.4725 17.4412 8.05668 17.0348 7.75741C16.6284 7.45815 16.1497 7.31009 15.589 7.31009C15.1552 7.30499 14.7292 7.42651 14.3636 7.65976C13.995 7.88657 13.7208 8.17953 13.5507 8.54495L14.3288 9.32619C14.6312 8.71506 15.0691 8.41579 15.6456 8.41579C16.134 8.41579 16.4332 8.66781 16.4332 9.01747C16.4332 9.31044 16.2882 9.553 15.7275 9.83651L15.4094 9.99087C14.7194 10.3405 14.2407 10.7406 13.9635 11.1942C13.6863 11.6479 13.5507 12.218 13.5507 12.9079V13.0969H17.6208V11.9818ZM17.2635 14.3822H12.8091L10.582 18.238H15.0364L17.2635 22.0969L19.4907 18.238L17.2635 14.3822Z" fill="#050038"/>
</svg>
