<svg width="152" height="46" viewBox="0 0 152 46" fill="none" xmlns="http://www.w3.org/2000/svg">
<path d="M144.165 1.08594H8.01742C4.15482 1.08594 1.02356 4.2172 1.02356 8.0798V37.9203C1.02356 41.7829 4.15482 44.9142 8.01742 44.9142H144.165C148.027 44.9142 151.159 41.7829 151.159 37.9203V8.0798C151.159 4.2172 148.027 1.08594 144.165 1.08594Z" fill="#050038"/>
<path d="M53.6181 12.082C53.6181 13.0196 53.3405 13.7662 52.7844 14.3232C52.1529 14.9853 51.3297 15.3167 50.3178 15.3167C49.3488 15.3167 48.5248 14.981 47.8472 14.3087C47.1685 13.6368 46.8298 12.8037 46.8298 11.8097C46.8298 10.8152 47.1685 9.98258 47.8472 9.31026C48.5248 8.6384 49.3488 8.30225 50.3178 8.30225C50.7987 8.30225 51.259 8.39624 51.6961 8.58379C52.1332 8.77179 52.4838 9.02133 52.7461 9.33387L52.1559 9.92438C51.7114 9.39329 51.0995 9.12797 50.3178 9.12797C49.611 9.12797 48.9999 9.37628 48.4841 9.87324C47.9683 10.3708 47.7105 11.0159 47.7105 11.8097C47.7105 12.6035 47.9683 13.2486 48.4841 13.7461C48.9999 14.2432 49.611 14.4914 50.3178 14.4914C51.0676 14.4914 51.6927 14.2418 52.193 13.7418C52.5179 13.416 52.7058 12.9633 52.756 12.3819H50.3178V11.5754H53.5714C53.6028 11.7507 53.6181 11.919 53.6181 12.082Z" fill="white"/>
<path d="M53.619 12.0821H53.5071C53.5061 12.9983 53.2386 13.7098 52.7061 14.2441L52.7049 14.245L52.7045 14.2459C52.093 14.8853 51.307 15.2035 50.3186 15.2048C49.3754 15.2035 48.5859 14.8818 47.9267 14.2296C47.269 13.5761 46.9436 12.7784 46.9424 11.8097C46.9436 10.8407 47.269 10.0434 47.9267 9.39036C48.5859 8.73774 49.3754 8.41558 50.3186 8.41423C50.785 8.41423 51.2292 8.50521 51.6528 8.6866C52.0767 8.86934 52.4116 9.10881 52.6612 9.40613L52.7469 9.33396L52.6678 9.25484L52.0776 9.8458L52.1567 9.92446L52.2429 9.85284C51.7777 9.29546 51.1248 9.01448 50.3186 9.01616C49.5856 9.01526 48.9409 9.27711 48.4076 9.79298C47.8691 10.3105 47.5986 10.9919 47.5994 11.8097C47.5986 12.6277 47.8691 13.309 48.4076 13.8266C48.9409 14.3425 49.5856 14.6043 50.3186 14.6034C51.0932 14.6048 51.7533 14.342 52.273 13.821C52.6201 13.473 52.8168 12.9909 52.8684 12.3915L52.8788 12.27H50.4305V11.6874H53.5721V11.5755L53.4619 11.5952C53.4926 11.7648 53.5071 11.926 53.5071 12.0821H53.619H53.7309C53.7309 11.912 53.7151 11.7373 53.6823 11.5554L53.6657 11.4636H50.2067V12.3819V12.4938H52.7568V12.3819L52.6454 12.3723C52.5961 12.9354 52.4168 13.3594 52.1147 13.6627C51.6339 14.1418 51.0438 14.3783 50.3186 14.3796C49.6381 14.3787 49.0606 14.1444 48.5628 13.6658C48.0698 13.1888 47.8244 12.58 47.8232 11.8097C47.8244 11.0396 48.0698 10.4307 48.5628 9.95376C49.0606 9.47518 49.6381 9.24085 50.3186 9.23996C51.0753 9.24175 51.6467 9.49174 52.0711 9.99666L52.1498 10.0902L52.826 9.41307L52.8985 9.34056L52.8325 9.26223C52.5576 8.93447 52.1913 8.67429 51.741 8.48115C51.2899 8.28745 50.8139 8.19043 50.3186 8.19043C49.3238 8.18954 48.4653 8.53923 47.7689 9.23123C47.07 9.92189 46.7178 10.79 46.7186 11.8097C46.7178 12.8291 47.07 13.6977 47.7694 14.3888C48.4653 15.0804 49.3238 15.4296 50.3186 15.4287C51.3546 15.4296 52.214 15.0855 52.8661 14.4006L52.7853 14.3232L52.8644 14.4023C53.444 13.8231 53.7316 13.0407 53.7309 12.0821H53.619Z" fill="white"/>
<path d="M58.7777 9.27747H55.7201V11.4063H58.4775V12.2131H55.7201V14.342H58.7777V15.1668H54.8581V8.45264H58.7777V9.27747Z" fill="white"/>
<path d="M58.7767 9.27755V9.16565H55.6072V11.5183H58.3645V12.1009L55.6072 12.1013V14.454H58.6648V15.055H54.969V8.56462H58.6648V9.27755H58.7767V9.16565V9.27755H58.8886V8.45272V8.34082H54.7452V15.2788H58.8886V14.3421V14.2301H55.831V12.3251H58.5884V11.4064V11.2945H55.831V9.38945H58.8886V9.27755H58.7767Z" fill="white"/>
<path d="M62.416 15.1668H61.5527V9.27747H59.6774V8.45264H64.2912V9.27747H62.416V15.1668Z" fill="white"/>
<path d="M62.4149 15.1669V15.055H61.6635V9.16565H59.7882V8.56462H64.1782V9.16565H62.303V15.1669H62.4149V15.055V15.1669H62.5268V9.38945H64.402V8.45272V8.34082H59.5644V9.27755V9.38945H61.4397V15.2788H62.4149H62.5268V15.1669H62.4149Z" fill="white"/>
<path d="M67.6292 15.1668V8.45264H68.4916V15.1668H67.6292Z" fill="white"/>
<path d="M67.6281 15.1669H67.74V8.56462H68.3787V15.055H67.6281V15.1669H67.74H67.6281V15.2788H68.4906H68.6025V8.34082H67.6281H67.5162V15.2788H67.6281V15.1669Z" fill="white"/>
<path d="M72.3184 15.1668H71.455V9.27747H69.5798V8.45264H74.1935V9.27747H72.3184V15.1668Z" fill="white"/>
<path d="M72.3173 15.1669V15.055H71.5659V9.16565H69.6907V8.56462H74.0806V9.16565H72.2054V15.1669H72.3173V15.055V15.1669H72.4292V9.38945H74.3044V8.45272V8.34082H69.4669V9.27755V9.38945H71.3421V15.2788H72.3173H72.4292V15.1669H72.3173Z" fill="white"/>
<path d="M78.6405 13.737C79.1374 14.2401 79.7455 14.4914 80.4646 14.4914C81.1836 14.4914 81.7921 14.2401 82.2883 13.737C82.7857 13.2339 83.0349 12.5907 83.0349 11.8097C83.0349 11.0286 82.7857 10.3855 82.2883 9.88241C81.7921 9.3793 81.1836 9.12797 80.4646 9.12797C79.7455 9.12797 79.1374 9.3793 78.6405 9.88241C78.1443 10.3855 77.8952 11.0286 77.8952 11.8097C77.8952 12.5907 78.1443 13.2339 78.6405 13.737ZM82.9264 14.2991C82.2663 14.9779 81.4454 15.3167 80.4646 15.3167C79.4827 15.3167 78.6623 14.9779 78.0037 14.2991C77.3431 13.6211 77.0145 12.791 77.0145 11.8097C77.0145 10.8283 77.3431 9.99825 78.0037 9.32033C78.6623 8.64142 79.4827 8.30225 80.4646 8.30225C81.4403 8.30225 82.2589 8.64321 82.922 9.32469C83.5843 10.0062 83.9156 10.8344 83.9156 11.8097C83.9156 12.791 83.5851 13.6211 82.9264 14.2991Z" fill="white"/>
<path d="M78.6414 13.7371L78.5617 13.8158C79.0772 14.339 79.7202 14.6048 80.4655 14.6034C81.2103 14.6048 81.8542 14.339 82.3686 13.8158C82.8875 13.2921 83.1484 12.6145 83.1477 11.8097C83.1484 11.0051 82.8875 10.3275 82.3686 9.80383C81.8542 9.28058 81.2103 9.01481 80.4655 9.01616C79.7202 9.01481 79.0772 9.28058 78.5617 9.80383C78.0442 10.3275 77.7828 11.0051 77.7842 11.8097C77.7828 12.6145 78.0442 13.2921 78.5617 13.8158L78.6414 13.7371L78.7209 13.6584C78.2463 13.1753 78.0088 12.5677 78.008 11.8097C78.0088 11.0519 78.2463 10.4443 78.7209 9.96113C79.1999 9.4782 79.7721 9.2413 80.4655 9.23996C81.1582 9.2413 81.7317 9.4782 82.2095 9.96113C82.6851 10.4443 82.9225 11.0519 82.9234 11.8097C82.9225 12.5677 82.6851 13.1753 82.2095 13.6584C81.7317 14.1414 81.1582 14.3783 80.4655 14.3796C79.7721 14.3783 79.1999 14.1414 78.7209 13.6584L78.6414 13.7371ZM82.9273 14.2992L82.8473 14.2214C82.2056 14.8788 81.421 15.2035 80.4655 15.2049C79.5094 15.2035 78.7248 14.8788 78.0844 14.2214L78.0814 14.2179L78.0844 14.2214C77.4441 13.5618 77.1281 12.7662 77.1272 11.8097C77.1281 10.8534 77.4441 10.0578 78.0844 9.39819C78.7248 8.74077 79.5094 8.41558 80.4655 8.41424C81.4149 8.41558 82.1977 8.74211 82.8429 9.403C83.4855 10.0657 83.8033 10.86 83.8046 11.8097C83.8033 12.7662 83.4863 13.5618 82.8473 14.2214L82.9273 14.2992L83.0078 14.377C83.6861 13.6802 84.0292 12.816 84.0284 11.8097C84.0292 10.8093 83.6848 9.94686 83.0033 9.247C82.3214 8.54448 81.4673 8.1892 80.4655 8.19043C79.4583 8.1892 78.6016 8.5428 77.9241 9.24264V9.24219C77.2444 9.93934 76.9025 10.8036 76.9034 11.8097C76.9025 12.816 77.2444 13.6802 77.9241 14.3773L77.9271 14.3805L77.9241 14.377C78.6016 15.0767 79.4583 15.4296 80.4655 15.4287C81.4721 15.4296 82.3288 15.0767 83.0078 14.377L82.9273 14.2992Z" fill="white"/>
<path d="M85.1266 15.1668V8.45264H86.1767L89.4397 13.6758H89.4768L89.4397 12.3818V8.45264H90.303V15.1668H89.4025L85.9887 9.6905H85.9515L85.9887 10.9849V15.1668H85.1266Z" fill="white"/>
<path d="M85.1275 15.1669H85.2394V8.56462H86.1153L89.3783 13.7878H89.4777H89.5925L89.5523 12.3802V8.56462H90.1919V15.055H89.4654L86.0515 9.57868H85.9523H85.8373L85.8775 10.9868V15.055H85.1275V15.1669H85.2394H85.1275V15.2788H85.9894H86.1013V10.9831L86.0642 9.68756L85.9523 9.69058V9.80248H85.9894V9.69058L85.8946 9.75011L89.3412 15.2788H90.3038H90.4157V8.34082H89.4404H89.3285V12.3833L89.3657 13.6788L89.4777 13.6759V13.564H89.4404V13.6759L89.5354 13.6165L86.2394 8.34082H85.1275H85.0156V15.2788H85.1275V15.1669Z" fill="white"/>
<path d="M120.221 34.1901H122.309V20.201H120.221V34.1901ZM139.028 25.2402L136.634 31.3052H136.563L134.078 25.2402H131.829L135.554 33.7171L133.431 38.4323H135.609L141.35 25.2402H139.028ZM127.187 32.6012C126.501 32.6012 125.548 32.2593 125.548 31.4131C125.548 30.3334 126.736 29.9194 127.761 29.9194C128.681 29.9194 129.111 30.1174 129.67 30.3877C129.508 31.6833 128.392 32.6012 127.187 32.6012ZM127.438 24.9341C125.927 24.9341 124.361 25.6003 123.713 27.076L125.566 27.8497C125.962 27.076 126.7 26.8239 127.474 26.8239C128.554 26.8239 129.651 27.472 129.67 28.6239V28.7677C129.291 28.5517 128.482 28.2278 127.492 28.2278C125.494 28.2278 123.46 29.3254 123.46 31.3772C123.46 33.249 125.098 34.455 126.933 34.455C128.338 34.455 129.111 33.8251 129.598 33.0873H129.67V34.1669H131.685V28.8035C131.685 26.3203 129.832 24.9341 127.438 24.9341ZM114.533 26.9431H111.564V22.148H114.533C116.094 22.148 116.981 23.4405 116.981 24.5455C116.981 25.6296 116.094 26.9431 114.533 26.9431ZM114.48 20.201H109.476V34.1901H111.564V28.8901H114.48C116.794 28.8901 119.069 27.2146 119.069 24.5455C119.069 21.8765 116.794 20.201 114.48 20.201ZM87.1972 32.6038C85.7547 32.6038 84.5469 31.396 84.5469 29.7372C84.5469 28.0609 85.7547 26.8348 87.1972 26.8348C88.6213 26.8348 89.739 28.0609 89.739 29.7372C89.739 31.396 88.6213 32.6038 87.1972 32.6038ZM89.5948 26.0235H89.5226C89.0541 25.4648 88.1523 24.9599 87.0167 24.9599C84.637 24.9599 82.4558 27.0511 82.4558 29.7372C82.4558 32.4053 84.637 34.4786 87.0167 34.4786C88.1523 34.4786 89.0541 33.9736 89.5226 33.3972H89.5948V34.0821C89.5948 35.9032 88.6213 36.8767 87.0529 36.8767C85.7731 36.8767 84.9798 35.9569 84.6549 35.1819L82.8343 35.939C83.3572 37.2009 84.7454 38.7515 87.0529 38.7515C89.5047 38.7515 91.578 37.3089 91.578 33.7937V25.2485H89.5948V26.0235ZM93.02 34.1901H95.111V20.2006H93.02V34.1901ZM98.1939 29.5751C98.1398 27.736 99.6188 26.7989 100.682 26.7989C101.512 26.7989 102.214 27.2133 102.448 27.8087L98.1939 29.5751ZM104.684 27.9888C104.288 26.9248 103.079 24.9599 100.61 24.9599C98.1575 24.9599 96.1209 26.8889 96.1209 29.7193C96.1209 32.3874 98.1398 34.4786 100.844 34.4786C103.025 34.4786 104.288 33.1444 104.811 32.3694L103.188 31.2876C102.648 32.081 101.908 32.6038 100.844 32.6038C99.7801 32.6038 99.0238 32.1169 98.5361 31.1617L104.9 28.5294L104.684 27.9888ZM53.9834 26.4203V28.4393H58.8148C58.6705 29.5751 58.2919 30.4042 57.715 30.9812C57.0121 31.6845 55.9123 32.4595 53.9834 32.4595C51.0087 32.4595 48.6833 30.0619 48.6833 27.0874C48.6833 24.1128 51.0087 21.7148 53.9834 21.7148C55.5879 21.7148 56.7594 22.3459 57.6249 23.1572L59.049 21.7332C57.8413 20.5792 56.2367 19.6958 53.9834 19.6958C49.9089 19.6958 46.4838 23.013 46.4838 27.0874C46.4838 31.1617 49.9089 34.4786 53.9834 34.4786C56.183 34.4786 57.8413 33.7579 59.1391 32.4053C60.4733 31.0713 60.8881 29.1965 60.8881 27.6823C60.8881 27.2133 60.8521 26.781 60.7796 26.4203H53.9834ZM66.3808 32.6038C64.9383 32.6038 63.6944 31.4139 63.6944 29.7193C63.6944 28.0067 64.9383 26.8348 66.3808 26.8348C67.8229 26.8348 69.0669 28.0067 69.0669 29.7193C69.0669 31.4139 67.8229 32.6038 66.3808 32.6038ZM66.3808 24.9599C63.7485 24.9599 61.6031 26.961 61.6031 29.7193C61.6031 32.4595 63.7485 34.4786 66.3808 34.4786C69.0127 34.4786 71.1581 32.4595 71.1581 29.7193C71.1581 26.961 69.0127 24.9599 66.3808 24.9599ZM76.8025 32.6038C75.3606 32.6038 74.1164 31.4139 74.1164 29.7193C74.1164 28.0067 75.3606 26.8348 76.8025 26.8348C78.2446 26.8348 79.4887 28.0067 79.4887 29.7193C79.4887 31.4139 78.2446 32.6038 76.8025 32.6038ZM76.8025 24.9599C74.1702 24.9599 72.0254 26.961 72.0254 29.7193C72.0254 32.4595 74.1702 34.4786 76.8025 34.4786C79.4345 34.4786 81.5798 32.4595 81.5798 29.7193C81.5798 26.961 79.4345 24.9599 76.8025 24.9599Z" fill="white"/>
<path d="M12.3176 36.864L12.2344 36.7844C11.9088 36.4398 11.7166 35.9049 11.7166 35.2121V35.3751V10.6269C11.7166 10.6246 11.7166 10.623 11.7166 10.6212C11.7166 10.6233 11.7166 10.6251 11.7166 10.6274V10.7908C11.7166 10.0407 11.9407 9.47556 12.3162 9.13672L26.1807 23.0008L12.3176 36.864ZM11.7166 10.6199C11.7166 10.5583 11.7183 10.4984 11.7214 10.4394C11.7183 10.4979 11.7166 10.5583 11.7166 10.6199ZM11.7214 10.4367C11.7214 10.4359 11.7214 10.435 11.7217 10.4341C11.7214 10.435 11.7214 10.4359 11.7214 10.4367ZM11.7217 10.4288C11.7217 10.4284 11.7217 10.428 11.7217 10.4275C11.7217 10.428 11.7217 10.4284 11.7217 10.4288Z" fill="url(#paint0_linear_1_463)"/>
<path d="M30.8022 27.7879L30.9077 27.728L36.383 24.6171C36.905 24.3202 37.2528 23.9605 37.4264 23.5798C37.2533 23.9605 36.9053 24.3207 36.383 24.6174L30.9077 27.7285L30.8022 27.7879ZM30.8036 27.624L26.1815 23.001L30.8032 18.3789L36.383 21.5489C37.0915 21.9516 37.4893 22.4704 37.5558 23.0006C37.5558 23.001 37.5558 23.0019 37.5558 23.0027C37.4893 23.5317 37.0915 24.051 36.383 24.4535L30.8036 27.624Z" fill="url(#paint1_linear_1_463)"/>
<path d="M13.3055 37.3921C12.9182 37.3921 12.5803 37.2662 12.3168 37.0284L12.3172 37.028C12.5808 37.2658 12.9191 37.3921 13.3065 37.3921C13.34 37.3921 13.3742 37.3912 13.4087 37.3895C13.3737 37.3912 13.3391 37.3921 13.3055 37.3921ZM13.306 37.2282C12.9187 37.2286 12.5808 37.1023 12.3172 36.8645V36.8641L26.1803 23.001L30.8024 27.6238L14.5596 36.8527C14.1102 37.1075 13.6844 37.2282 13.306 37.2282ZM12.3133 37.0254C12.2888 37.0032 12.2647 36.9795 12.2411 36.955L12.3133 37.0254Z" fill="url(#paint2_linear_1_463)"/>
<path d="M26.1802 23.0012L12.3157 9.13707C12.5793 8.89973 12.9168 8.77384 13.3036 8.77384C13.6831 8.77384 14.1092 8.89492 14.5596 9.15017L30.8018 18.3791L26.1802 23.0012ZM30.9064 18.2746L14.5596 8.98679C14.1092 8.73143 13.6831 8.61035 13.3036 8.61035C13.3019 8.61035 13.3007 8.61035 13.2988 8.61035C13.301 8.61035 13.3027 8.61035 13.3054 8.61035C13.684 8.61035 14.1097 8.73098 14.5596 8.98634L30.9064 18.2746Z" fill="url(#paint3_linear_1_463)"/>
<path d="M13.4085 37.3893C13.7603 37.3692 14.1498 37.2481 14.5594 37.016L30.8008 27.7876L14.5594 37.016C14.1501 37.2485 13.7603 37.3692 13.4085 37.3893ZM12.3165 37.0282L12.313 37.0252C12.3142 37.0261 12.3156 37.0273 12.3165 37.0282ZM12.2409 36.9548L12.2338 36.9479V36.9474C12.2365 36.95 12.2386 36.9525 12.2409 36.9548Z" fill="black"/>
<path d="M30.8021 27.7879L30.9076 27.728L30.8021 27.7879Z" fill="url(#paint4_linear_1_463)"/>
<path d="M13.3062 37.3918C12.9189 37.3918 12.5805 37.2655 12.3169 37.0277L12.3165 37.0281C12.3156 37.0272 12.3142 37.026 12.313 37.0251L12.2409 36.9548C12.2386 36.9525 12.2365 36.9499 12.2338 36.9473L12.3169 36.8642C12.5805 37.102 12.9184 37.2284 13.3057 37.2279C13.6842 37.2279 14.11 37.1072 14.5594 36.8525L30.8021 27.6235L30.9062 27.7276L30.8008 27.7875L14.5594 37.0159C14.1498 37.248 13.7603 37.3691 13.4085 37.3892C13.3739 37.3909 13.3397 37.3918 13.3062 37.3918Z" fill="url(#paint5_linear_1_463)"/>
<path d="M12.2344 36.9478C11.9088 36.6032 11.7166 36.0682 11.7166 35.3755V35.375C11.7166 36.0682 11.9088 36.6027 12.2344 36.9473V36.9478Z" fill="black"/>
<path d="M12.2344 36.9473C11.9088 36.6028 11.7166 36.0682 11.7166 35.375V35.2119C11.7166 35.9048 11.9088 36.4398 12.2344 36.7843L12.3176 36.8639L12.2344 36.9473Z" fill="url(#paint6_linear_1_463)"/>
<path d="M12.2338 36.9477L12.3169 36.8643V36.8645L12.2338 36.9477Z" fill="url(#paint7_linear_1_463)"/>
<path d="M37.4263 23.5793C37.5123 23.3904 37.5557 23.1964 37.5557 23.0022C37.5557 23.0019 37.5557 23.0015 37.5557 23.0015C37.5557 23.1959 37.5123 23.39 37.4263 23.5793Z" fill="black"/>
<path d="M30.9062 27.7277L30.8021 27.6236L36.3815 24.4532C37.0901 24.0507 37.4879 23.5314 37.5543 23.0024C37.5543 23.1966 37.511 23.3906 37.4249 23.5795C37.2514 23.9602 36.9035 24.32 36.3815 24.6167L30.9062 27.7277Z" fill="url(#paint8_linear_1_463)"/>
<path d="M37.5546 23.001V23.0005C37.5541 22.4152 37.1629 21.8299 36.3816 21.3858L30.9065 18.2748H30.906L30.9065 18.2744L36.3816 21.3853C37.1637 21.8294 37.5554 22.4156 37.5546 23.001Z" fill="#404040"/>
<path d="M37.5547 23.0006C37.4883 22.4704 37.0905 21.9515 36.3819 21.5489L30.8021 18.379L30.9062 18.2749H30.9067L36.3819 21.3859C37.1631 21.83 37.5543 22.4153 37.5547 23.0006Z" fill="url(#paint9_linear_1_463)"/>
<path d="M11.7166 10.6216C11.7166 10.6211 11.7166 10.6206 11.7166 10.6202C11.7166 10.6206 11.7166 10.6211 11.7166 10.6216ZM11.7214 10.4397C11.7214 10.4388 11.7214 10.438 11.7214 10.437C11.7214 10.438 11.7214 10.4388 11.7214 10.4397ZM11.7217 10.4344C11.7217 10.4326 11.7217 10.431 11.7217 10.4292C11.7217 10.431 11.7217 10.4326 11.7217 10.4344ZM11.7217 10.4279C11.7866 9.27829 12.4116 8.61427 13.2958 8.61035C12.9125 8.61259 12.5785 8.73848 12.3172 8.97403V8.97359L12.314 8.97672C12.2865 9.00156 12.2603 9.02786 12.2344 9.05494C11.9407 9.36569 11.7554 9.8312 11.7217 10.4279Z" fill="#404040"/>
<path d="M11.7166 10.7907V10.6273C11.7166 10.625 11.7166 10.6233 11.7166 10.6211C11.7166 10.6206 11.7166 10.6202 11.7166 10.6198C11.7166 10.5581 11.7183 10.4978 11.7214 10.4393C11.7214 10.4383 11.7214 10.4375 11.7214 10.4366C11.7214 10.4358 11.7214 10.4349 11.7217 10.4341C11.7217 10.4322 11.7217 10.4305 11.7217 10.4287C11.7217 10.4283 11.7217 10.4279 11.7217 10.4274C11.7554 9.83076 11.9407 9.36525 12.2344 9.0545L12.3162 9.13663C11.9407 9.47547 11.7166 10.0405 11.7166 10.7907ZM12.314 8.97628L12.3172 8.97314C12.3162 8.97449 12.3149 8.97538 12.314 8.97628Z" fill="url(#paint10_linear_1_463)"/>
<path d="M30.8016 18.379L14.5594 9.15017C14.1091 8.89492 13.6829 8.77384 13.3035 8.77384C12.9166 8.77384 12.5792 8.89973 12.3156 9.13707L12.2338 9.05494C12.2597 9.02786 12.2858 9.00156 12.3134 8.97672C12.3142 8.97582 12.3156 8.97493 12.3165 8.97403C12.5779 8.73848 12.9118 8.61259 13.2952 8.61035C13.2961 8.61035 13.2973 8.61035 13.2987 8.61035C13.3005 8.61035 13.3017 8.61035 13.3035 8.61035C13.6829 8.61035 14.1091 8.73143 14.5594 8.98679L30.9062 18.2747L30.9057 18.2749L30.8016 18.379Z" fill="url(#paint11_linear_1_463)"/>
<path d="M144.165 1.08594H8.01742C4.15482 1.08594 1.02356 4.2172 1.02356 8.0798V37.9203C1.02356 41.7829 4.15482 44.9142 8.01742 44.9142H144.165C148.027 44.9142 151.159 41.7829 151.159 37.9203V8.0798C151.159 4.2172 148.027 1.08594 144.165 1.08594Z" stroke="#A6A6A6" stroke-width="0.932515"/>
<defs>
<linearGradient id="paint0_linear_1_463" x1="24.9513" y1="10.3659" x2="6.17138" y2="29.1458" gradientUnits="userSpaceOnUse">
<stop stop-color="#00A0FF"/>
<stop offset="0.00657445" stop-color="#00A1FF"/>
<stop offset="0.2601" stop-color="#00BEFF"/>
<stop offset="0.5122" stop-color="#00D2FF"/>
<stop offset="0.7604" stop-color="#00DFFF"/>
<stop offset="1" stop-color="#00E3FF"/>
</linearGradient>
<linearGradient id="paint1_linear_1_463" x1="38.4191" y1="23.0018" x2="11.3422" y2="23.0018" gradientUnits="userSpaceOnUse">
<stop stop-color="#FFE000"/>
<stop offset="0.4087" stop-color="#FFBD00"/>
<stop offset="0.7754" stop-color="#FFA500"/>
<stop offset="1" stop-color="#FF9C00"/>
</linearGradient>
<linearGradient id="paint2_linear_1_463" x1="28.3384" y1="25.5694" x2="2.87146" y2="51.0364" gradientUnits="userSpaceOnUse">
<stop stop-color="#FF3A44"/>
<stop offset="1" stop-color="#C31162"/>
</linearGradient>
<linearGradient id="paint3_linear_1_463" x1="8.72226" y1="0.817059" x2="20.0943" y2="12.1891" gradientUnits="userSpaceOnUse">
<stop stop-color="#32A071"/>
<stop offset="0.0685" stop-color="#2DA771"/>
<stop offset="0.4762" stop-color="#15CF74"/>
<stop offset="0.8009" stop-color="#06E775"/>
<stop offset="1" stop-color="#00F076"/>
</linearGradient>
<linearGradient id="paint4_linear_1_463" x1="38.4188" y1="23.0017" x2="11.3427" y2="23.0017" gradientUnits="userSpaceOnUse">
<stop stop-color="#CCB300"/>
<stop offset="0.4087" stop-color="#CC9700"/>
<stop offset="0.7754" stop-color="#CC8400"/>
<stop offset="1" stop-color="#CC7D00"/>
</linearGradient>
<linearGradient id="paint5_linear_1_463" x1="28.3381" y1="25.5691" x2="2.8712" y2="51.0361" gradientUnits="userSpaceOnUse">
<stop stop-color="#CC2E36"/>
<stop offset="1" stop-color="#9C0E4E"/>
</linearGradient>
<linearGradient id="paint6_linear_1_463" x1="24.9513" y1="10.3657" x2="6.17137" y2="29.1456" gradientUnits="userSpaceOnUse">
<stop stop-color="#008DE0"/>
<stop offset="0.00657445" stop-color="#008DE0"/>
<stop offset="0.2601" stop-color="#00A7E0"/>
<stop offset="0.5122" stop-color="#00B8E0"/>
<stop offset="0.7604" stop-color="#00C4E0"/>
<stop offset="1" stop-color="#00C7E0"/>
</linearGradient>
<linearGradient id="paint7_linear_1_463" x1="28.3384" y1="25.5695" x2="2.87126" y2="51.0369" gradientUnits="userSpaceOnUse">
<stop stop-color="#E0333C"/>
<stop offset="1" stop-color="#AB0F56"/>
</linearGradient>
<linearGradient id="paint8_linear_1_463" x1="38.4176" y1="23.0014" x2="11.3408" y2="23.0014" gradientUnits="userSpaceOnUse">
<stop stop-color="#E0C500"/>
<stop offset="0.4087" stop-color="#E0A600"/>
<stop offset="0.7754" stop-color="#E09100"/>
<stop offset="1" stop-color="#E08900"/>
</linearGradient>
<linearGradient id="paint9_linear_1_463" x1="38.4181" y1="23.0017" x2="11.3412" y2="23.0017" gradientUnits="userSpaceOnUse">
<stop stop-color="#FFE840"/>
<stop offset="0.4087" stop-color="#FFCE40"/>
<stop offset="0.7754" stop-color="#FFBC40"/>
<stop offset="1" stop-color="#FFB540"/>
</linearGradient>
<linearGradient id="paint10_linear_1_463" x1="24.9512" y1="10.3658" x2="6.17138" y2="29.1456" gradientUnits="userSpaceOnUse">
<stop stop-color="#40B8FF"/>
<stop offset="0.00657445" stop-color="#40B9FF"/>
<stop offset="0.2601" stop-color="#40CEFF"/>
<stop offset="0.5122" stop-color="#40DDFF"/>
<stop offset="0.7604" stop-color="#40E7FF"/>
<stop offset="1" stop-color="#40EAFF"/>
</linearGradient>
<linearGradient id="paint11_linear_1_463" x1="8.7221" y1="0.817064" x2="20.0941" y2="12.1891" gradientUnits="userSpaceOnUse">
<stop stop-color="#65B895"/>
<stop offset="0.0685" stop-color="#62BD95"/>
<stop offset="0.4762" stop-color="#50DB97"/>
<stop offset="0.8009" stop-color="#44ED98"/>
<stop offset="1" stop-color="#40F498"/>
</linearGradient>
</defs>
</svg>
