<svg width="134" height="46" viewBox="0 0 134 46" fill="none" xmlns="http://www.w3.org/2000/svg">
<path d="M126.18 1.13184H7.44444C3.58995 1.13184 0.465271 4.25652 0.465271 8.111V37.8888C0.465271 41.7433 3.58995 44.8679 7.44444 44.8679H126.18C130.034 44.8679 133.159 41.7433 133.159 37.8888V8.111C133.159 4.25652 130.034 1.13184 126.18 1.13184Z" fill="#050038"/>
<path d="M27.6594 23.3359C27.6714 22.4039 27.919 21.49 28.3791 20.6794C28.8391 19.8687 29.4969 19.1876 30.2909 18.6994C29.7864 17.979 29.121 17.3861 28.3473 16.9679C27.5737 16.5497 26.7131 16.3176 25.8341 16.29C23.9589 16.0932 22.1411 17.4121 21.1855 17.4121C20.2115 17.4121 18.7403 16.3096 17.1561 16.3422C16.1313 16.3753 15.1326 16.6732 14.2573 17.2071C13.382 17.741 12.6598 18.4924 12.1613 19.3883C10.0017 23.1273 11.6126 28.6225 13.6813 31.6449C14.7164 33.1248 15.926 34.778 17.5088 34.7194C19.0577 34.6551 19.6362 33.7317 21.5058 33.7317C23.3581 33.7317 23.9008 34.7194 25.5157 34.6821C27.1777 34.6551 28.2249 33.1955 29.2236 31.7015C29.9673 30.647 30.5395 29.4816 30.9192 28.2482C29.9536 27.8399 29.1296 27.1563 28.5499 26.2827C27.9703 25.4092 27.6605 24.3843 27.6594 23.3359Z" fill="white"/>
<path d="M24.6083 14.3021C25.5145 13.2142 25.9609 11.8159 25.8528 10.4043C24.4683 10.5496 23.1895 11.2114 22.271 12.2575C21.822 12.7686 21.4781 13.3631 21.2589 14.0071C21.0398 14.6512 20.9497 15.3321 20.9939 16.011C21.6863 16.0182 22.3714 15.8681 22.9975 15.572C23.6236 15.276 24.1744 14.8418 24.6083 14.3021Z" fill="white"/>
<path d="M47.2391 30.9728H41.9535L40.6842 34.7208H38.4454L43.4518 20.854H45.7778L50.7843 34.7208H48.5073L47.2391 30.9728ZM42.5009 29.2432H46.6906L44.6253 23.1605H44.5675L42.5009 29.2432Z" fill="white"/>
<path d="M61.5962 29.6661C61.5962 32.8079 59.9146 34.8263 57.3771 34.8263C56.7343 34.8599 56.095 34.7119 55.5325 34.3991C54.9699 34.0863 54.5068 33.6213 54.1962 33.0575H54.1482V38.065H52.0729V24.6106H54.0816V26.2921H54.1198C54.4447 25.7311 54.9156 25.2686 55.4825 24.9538C56.0494 24.6391 56.6909 24.4839 57.339 24.5048C59.9048 24.5048 61.5962 26.5331 61.5962 29.6661ZM59.4632 29.6661C59.4632 27.6193 58.4055 26.2736 56.7915 26.2736C55.2059 26.2736 54.1394 27.6476 54.1394 29.6661C54.1394 31.7032 55.2059 33.0674 56.7915 33.0674C58.4055 33.0674 59.4632 31.7315 59.4632 29.6661Z" fill="white"/>
<path d="M72.7248 29.6661C72.7248 32.8079 71.0432 34.8263 68.5056 34.8263C67.8628 34.8599 67.2235 34.7119 66.661 34.399C66.0984 34.0863 65.6353 33.6213 65.3246 33.0575H65.2766V38.065H63.2015V24.6106H65.2101V26.2921H65.2483C65.5732 25.7311 66.0441 25.2685 66.6109 24.9538C67.1778 24.6391 67.8194 24.4839 68.4674 24.5048C71.0334 24.5048 72.7248 26.5331 72.7248 29.6661ZM70.5918 29.6661C70.5918 27.6193 69.5339 26.2736 67.92 26.2736C66.3345 26.2736 65.268 27.6476 65.268 29.6661C65.268 31.7032 66.3345 33.0674 67.92 33.0674C69.534 33.0674 70.5918 31.7315 70.5918 29.6661Z" fill="white"/>
<path d="M80.0783 30.8574C80.2321 32.2325 81.5679 33.1354 83.3934 33.1354C85.1426 33.1354 86.401 32.2325 86.401 30.9926C86.401 29.9162 85.642 29.2718 83.8449 28.8301L82.0477 28.3972C79.5015 27.7822 78.3194 26.5914 78.3194 24.659C78.3194 22.2664 80.4044 20.623 83.365 20.623C86.2952 20.623 88.3039 22.2664 88.3715 24.659H86.2767C86.1513 23.2751 85.0074 22.4399 83.3356 22.4399C81.6639 22.4399 80.52 23.285 80.52 24.5151C80.52 25.4954 81.2506 26.0723 83.0379 26.5138L84.5656 26.889C87.4107 27.5618 88.5929 28.7047 88.5929 30.733C88.5929 33.3273 86.5264 34.9521 83.2396 34.9521C80.1645 34.9521 78.0881 33.3654 77.954 30.8573L80.0783 30.8574Z" fill="white"/>
<path d="M93.0723 22.2183V24.6108H94.9949V26.2542H93.0723V31.8276C93.0723 32.6935 93.4567 33.097 94.3016 33.097C94.5305 33.093 94.7585 33.077 94.9846 33.049V34.6826C94.605 34.7536 94.2188 34.7857 93.8317 34.7785C91.7852 34.7785 90.9869 34.0097 90.9869 32.049V26.2542H89.517V24.6108H90.9869V22.2183H93.0723Z" fill="white"/>
<path d="M96.1069 29.6662C96.1069 26.4853 97.981 24.4863 100.902 24.4863C103.833 24.4863 105.698 26.4852 105.698 29.6662C105.698 32.8558 103.844 34.846 100.902 34.846C97.9624 34.846 96.1069 32.8558 96.1069 29.6662ZM103.584 29.6662C103.584 27.4841 102.584 26.1962 100.902 26.1962C99.2205 26.1962 98.222 27.4939 98.222 29.6662C98.222 31.857 99.2205 33.135 100.902 33.135C102.584 33.135 103.584 31.857 103.584 29.6662Z" fill="white"/>
<path d="M107.408 24.611H109.388V26.3317H109.435C109.569 25.7943 109.885 25.3193 110.328 24.9867C110.77 24.6541 111.314 24.4841 111.868 24.5052C112.107 24.5043 112.345 24.5303 112.579 24.5826V26.5236C112.276 26.4314 111.962 26.389 111.646 26.3982C111.345 26.386 111.044 26.4391 110.765 26.5541C110.486 26.6689 110.235 26.8428 110.03 27.0638C109.824 27.2848 109.669 27.5476 109.575 27.8342C109.481 28.1208 109.449 28.4245 109.484 28.7242V34.7209H107.408V24.611Z" fill="white"/>
<path d="M122.148 31.7512C121.868 33.5865 120.082 34.846 117.794 34.846C114.854 34.846 113.028 32.8755 113.028 29.7142C113.028 26.543 114.863 24.4863 117.707 24.4863C120.504 24.4863 122.263 26.4077 122.263 29.4732V30.1841H115.123V30.3096C115.09 30.6816 115.137 31.0564 115.26 31.4091C115.382 31.7619 115.579 32.0843 115.836 32.3551C116.093 32.626 116.406 32.839 116.751 32.9801C117.097 33.121 117.47 33.1869 117.843 33.1732C118.333 33.2191 118.825 33.1056 119.246 32.8493C119.667 32.5931 119.993 32.208 120.178 31.7512H122.148ZM115.133 28.7338H120.187C120.205 28.3992 120.155 28.0645 120.038 27.7504C119.922 27.4365 119.741 27.1499 119.508 26.909C119.275 26.6681 118.995 26.4779 118.685 26.3503C118.375 26.2228 118.042 26.1607 117.707 26.1678C117.369 26.1659 117.034 26.2307 116.721 26.3589C116.409 26.487 116.125 26.6758 115.885 26.9144C115.646 27.1529 115.456 27.4366 115.327 27.7489C115.198 28.0611 115.132 28.3959 115.133 28.7338V28.7338Z" fill="white"/>
<path d="M42.2407 10.4162C42.6757 10.3851 43.1123 10.4508 43.5189 10.6087C43.9255 10.7666 44.2919 11.0128 44.5919 11.3296C44.8918 11.6462 45.1177 12.0255 45.2533 12.4402C45.3888 12.8548 45.4307 13.2943 45.3758 13.727C45.3758 15.8556 44.2254 17.0792 42.2407 17.0792H39.8339V10.4162H42.2407ZM40.8688 16.1369H42.125C42.4359 16.1555 42.7471 16.1045 43.0358 15.9877C43.3244 15.8709 43.5835 15.6912 43.794 15.4616C44.0045 15.232 44.1611 14.9585 44.2525 14.6608C44.344 14.363 44.3678 14.0487 44.3224 13.7406C44.3645 13.4337 44.3382 13.1213 44.2454 12.8257C44.1526 12.5302 43.9956 12.2588 43.7855 12.0311C43.5756 11.8034 43.3177 11.6249 43.0307 11.5085C42.7436 11.3921 42.4344 11.3406 42.125 11.3579H40.8688V16.1369Z" fill="white"/>
<path d="M46.5444 14.5631C46.5128 14.2327 46.5507 13.8992 46.6554 13.5842C46.7602 13.2693 46.9297 12.9797 47.1529 12.7341C47.3761 12.4884 47.6483 12.2922 47.9519 12.1578C48.2554 12.0235 48.5837 11.9541 48.9157 11.9541C49.2477 11.9541 49.576 12.0235 49.8795 12.1578C50.1831 12.2922 50.4552 12.4884 50.6785 12.7341C50.9017 12.9797 51.0712 13.2693 51.176 13.5842C51.2808 13.8992 51.3186 14.2327 51.287 14.5631C51.3192 14.8938 51.2819 15.2277 51.1773 15.5433C51.0728 15.8587 50.9034 16.1489 50.6801 16.395C50.4568 16.6411 50.1845 16.8378 49.8806 16.9724C49.5767 17.107 49.2481 17.1765 48.9157 17.1765C48.5834 17.1765 48.2547 17.107 47.9509 16.9724C47.6469 16.8378 47.3746 16.6411 47.1512 16.395C46.928 16.1489 46.7586 15.8587 46.654 15.5433C46.5495 15.2277 46.5122 14.8938 46.5444 14.5631ZM50.2663 14.5631C50.2663 13.4731 49.7766 12.8357 48.9173 12.8357C48.0548 12.8357 47.5695 13.4731 47.5695 14.5631C47.5695 15.6618 48.0548 16.2942 48.9173 16.2942C49.7767 16.2942 50.2663 15.6574 50.2663 14.5631Z" fill="white"/>
<path d="M57.5915 17.079H56.5621L55.5229 13.3757H55.4444L54.4095 17.079H53.3899L52.0039 12.0508H53.0104L53.9112 15.8876H53.9853L55.0191 12.0508H55.971L57.0049 15.8876H57.0833L57.9797 12.0508H58.9721L57.5915 17.079Z" fill="white"/>
<path d="M60.1371 12.0512H61.0925V12.85H61.1666C61.2923 12.5631 61.5045 12.3226 61.7735 12.1621C62.0425 12.0014 62.3548 11.9288 62.667 11.9542C62.9118 11.9358 63.1575 11.9727 63.3859 12.0621C63.6144 12.1515 63.8197 12.2912 63.9869 12.4708C64.1541 12.6504 64.2787 12.8654 64.3514 13.0997C64.4243 13.334 64.4434 13.5816 64.4075 13.8243V17.0794H63.4151V14.0735C63.4151 13.2655 63.064 12.8636 62.3301 12.8636C62.164 12.8559 61.9982 12.8842 61.8441 12.9465C61.6899 13.0089 61.551 13.1038 61.4369 13.2249C61.323 13.3458 61.2364 13.4902 61.1834 13.6477C61.1302 13.8053 61.1119 13.9726 61.1295 14.1379V17.0795H60.1371V12.0512Z" fill="white"/>
<path d="M65.9895 10.0879H66.9818V17.0791H65.9895V10.0879Z" fill="white"/>
<path d="M68.3616 14.5632C68.3301 14.2328 68.3678 13.8993 68.4726 13.5843C68.5775 13.2693 68.7469 12.9798 68.9703 12.7341C69.1935 12.4884 69.4657 12.2922 69.7693 12.1578C70.0729 12.0235 70.4012 11.9541 70.7331 11.9541C71.0651 11.9541 71.3934 12.0235 71.697 12.1578C72.0006 12.2922 72.2727 12.4884 72.4961 12.7341C72.7193 12.9798 72.8888 13.2693 72.9936 13.5843C73.0984 13.8993 73.1363 14.2328 73.1046 14.5632C73.1368 14.894 73.0994 15.2278 72.9949 15.5433C72.8904 15.8588 72.721 16.149 72.4976 16.3951C72.2743 16.6412 72.0019 16.8378 71.698 16.9724C71.3942 17.1071 71.0655 17.1766 70.7331 17.1766C70.4008 17.1766 70.0721 17.1071 69.7682 16.9724C69.4643 16.8378 69.1919 16.6412 68.9686 16.3951C68.7453 16.149 68.5759 15.8588 68.4713 15.5433C68.3668 15.2278 68.3294 14.894 68.3616 14.5632ZM72.0835 14.5632C72.0835 13.4732 71.5938 12.8358 70.7345 12.8358C69.8719 12.8358 69.3867 13.4732 69.3867 14.5632C69.3867 15.6619 69.872 16.2943 70.7345 16.2943C71.5938 16.2943 72.0835 15.6575 72.0835 14.5632Z" fill="white"/>
<path d="M74.1481 15.6574C74.1481 14.7523 74.8221 14.2305 76.0184 14.1564L77.3804 14.0779V13.6438C77.3804 13.1127 77.0292 12.8129 76.3509 12.8129C75.797 12.8129 75.4131 13.0162 75.303 13.3718H74.3422C74.4437 12.5081 75.2561 11.9541 76.3967 11.9541C77.6573 11.9541 78.3684 12.5817 78.3684 13.6438V17.0794H77.4131V16.3728H77.3345C77.1752 16.6262 76.9514 16.8329 76.6861 16.9717C76.4207 17.1103 76.1233 17.1761 75.8242 17.1623C75.6132 17.1843 75.3998 17.1618 75.198 17.0962C74.9961 17.0307 74.8102 16.9235 74.6523 16.7817C74.4944 16.6399 74.3679 16.4666 74.2811 16.273C74.1943 16.0793 74.149 15.8697 74.1481 15.6574ZM77.3804 15.2278V14.8074L76.1525 14.8859C75.46 14.9323 75.146 15.1678 75.146 15.6111C75.146 16.0636 75.5386 16.327 76.0784 16.327C76.2366 16.343 76.3964 16.3271 76.5482 16.2801C76.7001 16.2331 76.841 16.1559 76.9624 16.0534C77.0838 15.9508 77.1835 15.8249 77.2553 15.683C77.3271 15.5412 77.3696 15.3864 77.3804 15.2278Z" fill="white"/>
<path d="M79.6733 14.5627C79.6733 12.9739 80.4902 11.9673 81.7606 11.9673C82.0748 11.9529 82.3867 12.0282 82.6598 12.1843C82.9328 12.3406 83.1558 12.5713 83.3025 12.8495H83.3767V10.0879H84.369V17.0791H83.4182V16.2846H83.3396C83.1815 16.5609 82.9508 16.7888 82.6724 16.9435C82.3941 17.098 82.0787 17.1736 81.7606 17.1619C80.4814 17.162 79.6733 16.1554 79.6733 14.5627ZM80.6984 14.5627C80.6984 15.6293 81.2012 16.271 82.042 16.271C82.8784 16.271 83.3953 15.6199 83.3953 14.5671C83.3953 13.5191 82.873 12.8589 82.042 12.8589C81.2066 12.8589 80.6984 13.505 80.6984 14.5627Z" fill="white"/>
<path d="M88.474 14.5631C88.4423 14.2327 88.4802 13.8992 88.585 13.5842C88.6898 13.2693 88.8592 12.9797 89.0825 12.7341C89.3057 12.4884 89.5779 12.2922 89.8814 12.1578C90.185 12.0235 90.5133 11.9541 90.8452 11.9541C91.1772 11.9541 91.5055 12.0235 91.8091 12.1578C92.1126 12.2922 92.3847 12.4884 92.6081 12.7341C92.8313 12.9797 93.0008 13.2693 93.1058 13.5842C93.21 13.8992 93.2482 14.2327 93.2166 14.5631C93.2491 14.8938 93.211 15.2277 93.1068 15.5433C93.0023 15.8587 92.833 16.1489 92.6096 16.395C92.3863 16.6411 92.114 16.8378 91.8101 16.9724C91.5063 17.107 91.1776 17.1765 90.8452 17.1765C90.5129 17.1765 90.1843 17.107 89.8803 16.9724C89.5765 16.8378 89.3041 16.6411 89.0808 16.395C88.8575 16.1489 88.6881 15.8587 88.5836 15.5433C88.4791 15.2277 88.4418 14.8938 88.474 14.5631ZM92.1958 14.5631C92.1958 13.4731 91.7062 12.8357 90.8469 12.8357C89.9844 12.8357 89.4991 13.4731 89.4991 14.5631C89.4991 15.6618 89.9844 16.2942 90.8469 16.2942C91.7062 16.2942 92.1958 15.6574 92.1958 14.5631Z" fill="white"/>
<path d="M94.5491 12.0512H95.5048V12.85H95.5792C95.7048 12.5631 95.917 12.3226 96.1859 12.1621C96.4548 12.0014 96.7675 11.9288 97.0792 11.9542C97.324 11.9358 97.5697 11.9727 97.7986 12.0621C98.0266 12.1515 98.2322 12.2912 98.3997 12.4708C98.5663 12.6504 98.691 12.8654 98.7636 13.0997C98.8371 13.334 98.8557 13.5816 98.8203 13.8243V17.0794H97.8274V14.0735C97.8274 13.2655 97.4766 12.8636 96.7424 12.8636C96.5767 12.8559 96.4102 12.8842 96.2566 12.9465C96.1022 13.0089 95.9635 13.1038 95.8491 13.2249C95.7355 13.3458 95.649 13.4902 95.5959 13.6477C95.5429 13.8053 95.5243 13.9726 95.542 14.1379V17.0795H94.5491V12.0512Z" fill="white"/>
<path d="M104.427 10.7988V12.0737H105.517V12.9095H104.427V15.4951C104.427 16.0218 104.645 16.2524 105.138 16.2524C105.264 16.252 105.391 16.2443 105.517 16.2296V17.0561C105.339 17.088 105.157 17.1049 104.977 17.1068C103.873 17.1068 103.434 16.7186 103.434 15.7492V12.9095H102.636V12.0736H103.434V10.7988H104.427Z" fill="white"/>
<path d="M106.872 10.0879H107.856V12.8588H107.934C108.066 12.5693 108.284 12.3274 108.559 12.1662C108.833 12.005 109.15 11.9323 109.468 11.9581C109.711 11.9448 109.954 11.9855 110.18 12.0771C110.406 12.1687 110.609 12.309 110.774 12.4881C110.94 12.6671 111.064 12.8805 111.137 13.1129C111.211 13.3453 111.231 13.5911 111.2 13.8326V17.0791H110.206V14.0775C110.206 13.2743 109.832 12.8676 109.131 12.8676C108.96 12.8536 108.788 12.877 108.627 12.9362C108.467 12.9955 108.321 13.0891 108.201 13.2106C108.08 13.332 107.988 13.4783 107.93 13.6392C107.872 13.8002 107.85 13.9718 107.864 14.1423V17.0791H106.872V10.0879Z" fill="white"/>
<path d="M116.984 15.7218C116.849 16.1814 116.557 16.579 116.158 16.8448C115.76 17.1108 115.281 17.2282 114.805 17.1766C114.474 17.1853 114.145 17.1218 113.84 16.9906C113.536 16.8594 113.263 16.6635 113.043 16.4166C112.821 16.1696 112.658 15.8776 112.561 15.5606C112.464 15.2437 112.437 14.9094 112.483 14.5812C112.438 14.2519 112.465 13.917 112.562 13.5991C112.659 13.2812 112.822 12.9878 113.042 12.7387C113.262 12.4896 113.532 12.2907 113.836 12.1553C114.139 12.02 114.469 11.9514 114.801 11.9542C116.199 11.9542 117.043 12.9101 117.043 14.489V14.8353H113.493V14.8909C113.478 15.0755 113.501 15.2612 113.561 15.4362C113.622 15.6113 113.719 15.7717 113.844 15.9074C113.971 16.043 114.123 16.1507 114.294 16.2238C114.464 16.2968 114.647 16.3335 114.832 16.3314C115.07 16.3599 115.31 16.3172 115.523 16.2086C115.736 16.1001 115.912 15.9306 116.028 15.7218H116.984ZM113.493 14.1013H116.033C116.046 13.9326 116.023 13.7631 115.966 13.6038C115.909 13.4444 115.819 13.2987 115.702 13.176C115.586 13.0534 115.445 12.9564 115.288 12.8914C115.133 12.8265 114.965 12.7949 114.795 12.7988C114.624 12.7966 114.454 12.8289 114.295 12.8936C114.135 12.9583 113.991 13.0542 113.869 13.1755C113.748 13.297 113.652 13.4414 113.587 13.6004C113.523 13.7595 113.491 13.9298 113.493 14.1013Z" fill="white"/>
<path d="M126.18 1.13184H7.44444C3.58995 1.13184 0.465271 4.25652 0.465271 8.111V37.8888C0.465271 41.7433 3.58995 44.8679 7.44444 44.8679H126.18C130.034 44.8679 133.159 41.7433 133.159 37.8888V8.111C133.159 4.25652 130.034 1.13184 126.18 1.13184Z" stroke="#A6A6A6" stroke-width="0.930556"/>
</svg>
