<svg width="45" height="46" viewBox="0 0 45 46" fill="none" xmlns="http://www.w3.org/2000/svg">
<path d="M35.25 0.5H9.75C4.36522 0.5 0 4.86522 0 10.25V35.75C0 41.1348 4.36522 45.5 9.75 45.5H35.25C40.6348 45.5 45 41.1348 45 35.75V10.25C45 4.86522 40.6348 0.5 35.25 0.5Z" fill="#FFD02F"/>
<path fill-rule="evenodd" clip-rule="evenodd" d="M31.2577 6.125H26.3186L30.4344 13.3572L21.3796 6.125H16.4406L20.968 14.9643L11.5015 6.125H6.5625L11.5015 17.375L6.5625 39.875H11.5015L20.968 15.7678L16.4406 39.875H21.3796L30.4344 14.1607L26.3186 39.875H31.2577L40.3125 11.75L31.2577 6.125Z" fill="#050038"/>
</svg>
