<svg width="289" height="63" viewBox="0 0 289 63" fill="none" xmlns="http://www.w3.org/2000/svg">
<g clip-path="url(#clip0_1_310)">
<path d="M288.844 0.923096H0.90625V62.624H288.844V0.923096Z" fill="white"/>
<path d="M5.10882 17.9148V21.6566H0.90625V26.5358H5.10882V46.1501C5.10882 47.6383 6.63128 48.8306 8.54565 48.8306C10.46 48.8306 12.0187 47.6474 12.0187 46.1592V26.5448H17.605V21.6657H12.0187V17.9148C12.0187 13.4015 15.5158 12.5691 20.3032 13.6455V8.7663C13.5622 7.2446 5.10882 7.95209 5.10882 17.9148ZM26.6342 26.5448H26.4895V21.6657H20.8971V46.1653C20.8971 47.6535 22.4045 48.8459 24.334 48.8459C26.2634 48.8459 27.7979 47.6535 27.7979 46.1653V33.8302C27.7979 28.0117 31.5453 26.5327 36.0824 26.5327V21.0436C31.9793 21.0222 28.1356 22.3914 26.6342 26.5448ZM74.9307 21.0558C68.268 21.0558 62.8716 24.395 62.8716 30.9575C62.8716 34.4522 64.4061 37.0321 66.8511 38.6819C66.6702 38.8008 66.4953 38.9227 66.3235 39.0509C63.2937 41.3166 62.9681 45.223 65.7446 47.3547C64.3851 48.5744 62.4585 50.7579 62.4585 53.8013C62.4585 58.6317 66.9204 61.7514 74.9276 61.7514C82.9348 61.7514 89.0488 57.9547 89.0488 52.1088C89.0488 46.2629 85.0331 43.9667 77.7072 43.9667H72.9167C69.5613 43.9667 69.8477 41.6216 70.9541 40.6122C71.0114 40.5604 71.0718 40.5115 71.1381 40.4597C72.385 40.7248 73.6565 40.8537 74.9307 40.844C81.5963 40.844 86.9897 37.4895 86.9897 30.9483C87.0047 29.5939 86.7409 28.2511 86.2148 27.0053C87.2353 26.723 88.2864 26.5704 89.3442 26.551V21.6718C86.3807 21.6718 84.4693 21.873 82.4435 22.8702C80.3904 21.6474 77.7766 21.0405 74.9307 21.0405V21.0558ZM71.2677 48.855H77.7012C80.3421 48.855 82.142 49.6845 82.142 52.1088C82.142 55.3657 79.3804 56.8661 74.9065 56.8661C68.0389 56.8508 68.4489 51.1421 71.2677 48.8397V48.855ZM74.9307 35.9648C72.0817 35.9648 69.7664 34.8457 69.7664 30.9545C69.7664 27.0633 72.0817 25.9442 74.9307 25.9442C77.7796 25.9442 80.0979 27.0602 80.0979 30.9545C80.0979 34.8486 77.7856 35.9648 74.9307 35.9648ZM48.6209 21.0405C41.1321 21.0405 36.5618 25.7276 36.5618 34.9402C36.5618 44.1527 41.1382 48.8397 48.6209 48.8397C56.1035 48.8397 60.6799 44.1527 60.6799 34.9402C60.6799 25.7276 56.1125 21.0405 48.6209 21.0405ZM48.6209 43.9514C45.7689 43.9514 43.4565 42.7804 43.4565 34.9402C43.4565 27.0999 45.784 25.935 48.6209 25.935C51.4577 25.935 53.7851 27.1029 53.7851 34.9402C53.7851 42.7774 51.4728 43.9514 48.6209 43.9514Z" fill="#050038"/>
</g>
<defs>
<clipPath id="clip0_1_310">
<rect width="287.938" height="61.7009" fill="white" transform="translate(0.90625 0.923096)"/>
</clipPath>
</defs>
</svg>
