<svg width="51" height="32" viewBox="0 0 51 32" fill="none" xmlns="http://www.w3.org/2000/svg">
<g clip-path="url(#clip0_1_45)">
<path d="M0.0267243 13.8867C0.040547 13.3453 0.148363 12.8104 0.345106 12.3058C0.529496 11.8408 0.81353 11.4219 1.17723 11.0784C1.56627 10.7236 2.02449 10.4532 2.5231 10.284C3.12669 10.0859 3.76023 9.99054 4.39562 10.003C5.10288 9.97994 5.80875 10.0905 6.47593 10.3274C6.95424 10.5039 7.39526 10.7685 7.77618 11.1074C8.06764 11.3671 8.29894 11.6872 8.45396 12.0455C8.56638 12.3068 8.64056 12.5828 8.67466 12.8657C8.68061 12.9177 8.67386 12.9704 8.65501 13.0193C8.63615 13.0681 8.60574 13.1117 8.56638 13.1463C8.48901 13.2166 8.38803 13.2552 8.28348 13.2545H7.11454C7.02323 13.2587 6.93336 13.2307 6.86066 13.1753C6.80432 13.13 6.75816 13.0733 6.7252 13.009C6.67624 12.9233 6.62555 12.8387 6.57315 12.7551C6.46607 12.5999 6.33405 12.4635 6.18243 12.3515C5.96911 12.1929 5.73359 12.0667 5.48346 11.9769C5.13537 11.8559 4.76809 11.7997 4.39976 11.811C3.76902 11.7795 3.1498 11.9883 2.66686 12.3952C2.44923 12.5942 2.27527 12.8361 2.15599 13.1058C2.03671 13.3755 1.97469 13.6669 1.97388 13.9618C1.95317 14.3539 1.94349 14.7464 1.94485 15.139C1.94485 15.5569 1.94485 15.95 1.97388 16.3163C2.00106 17.1152 2.23421 17.6953 2.66686 18.0552C3.16027 18.4357 3.77332 18.6275 4.39562 18.5961C4.72635 18.5986 5.05609 18.5595 5.37703 18.4795C5.65809 18.4109 5.92118 18.2832 6.14925 18.1054C6.37272 17.9225 6.54643 17.6861 6.6547 17.4189C6.78372 17.0871 6.845 16.7337 6.83578 16.3785V16.2559H5.07385C5.02248 16.2567 4.9715 16.2468 4.92421 16.2267C4.87691 16.2066 4.83434 16.1769 4.79924 16.1393C4.76252 16.1042 4.7334 16.0619 4.71366 16.0151C4.69393 15.9682 4.68401 15.9179 4.68451 15.867V14.8409C4.68558 14.7378 4.72688 14.6392 4.79962 14.5662C4.87235 14.4931 4.97076 14.4513 5.07385 14.4497H8.40189C8.50506 14.4513 8.60354 14.4931 8.67628 14.5663C8.74903 14.6395 8.79028 14.7382 8.79123 14.8414V16.4282C8.79725 16.9724 8.70419 17.513 8.51662 18.0238C8.33637 18.4969 8.05197 18.9234 7.68449 19.2716C7.29102 19.6432 6.82297 19.9268 6.31144 20.1037C5.06602 20.4935 3.7312 20.4935 2.48578 20.1037C1.98891 19.9394 1.53332 19.6698 1.15005 19.3135C0.790603 18.9616 0.512283 18.5354 0.334509 18.0648C0.141286 17.5545 0.0358181 17.0152 0.0225762 16.4697C0.0225762 16.2868 0.00598983 16.085 0.00184303 15.8643C-0.00230378 15.644 0.00184303 15.415 0.00184303 15.1842V14.506C0.00184303 14.2834 0.0142826 14.0899 0.0225762 13.8987M13.2389 14.3359C12.9944 14.3291 12.7511 14.3709 12.5229 14.459C12.3386 14.5318 12.17 14.6387 12.0257 14.775C11.8952 14.8988 11.7894 15.0463 11.7138 15.2095C11.6471 15.3535 11.6016 15.5064 11.5788 15.6634H14.8405C14.8196 15.5089 14.7833 15.3568 14.7322 15.2095C14.6782 15.0474 14.5893 14.8991 14.4719 14.775C14.3383 14.6364 14.1756 14.5285 13.9959 14.459C13.754 14.3686 13.4966 14.3268 13.2385 14.3359H13.2389ZM9.70215 16.5015C9.69846 15.9836 9.7814 15.4694 9.94773 14.9787C10.0989 14.5201 10.3393 14.0959 10.655 13.7305C10.9656 13.3779 11.3469 13.0946 11.7742 12.8988C12.232 12.6942 12.7287 12.5912 13.2302 12.597C13.731 12.5907 14.2274 12.6913 14.6861 12.8924C15.1161 13.0797 15.5028 13.3537 15.8219 13.6973C16.1348 14.0363 16.3779 14.4335 16.5375 14.8663C16.707 15.3164 16.7932 15.7938 16.7913 16.2748V16.924C16.7897 17.0272 16.7479 17.1257 16.6749 17.1986C16.6019 17.2715 16.5033 17.3132 16.4002 17.3147H11.5783C11.5737 17.5179 11.6198 17.7193 11.7138 17.8994C11.806 18.063 11.9322 18.2049 12.0843 18.3155C12.2441 18.4339 12.4248 18.5219 12.6164 18.5754C12.8197 18.6319 13.0297 18.6606 13.2408 18.6606C13.4942 18.668 13.7476 18.6362 13.9918 18.5671C14.1623 18.5155 14.3235 18.4353 14.4677 18.3298C14.5488 18.2676 14.6359 18.2141 14.7281 18.1699C14.8156 18.1372 14.9092 18.122 15.0027 18.1261H16.1569C16.2629 18.1275 16.3642 18.1694 16.4398 18.2427C16.4782 18.2767 16.508 18.3193 16.5268 18.367C16.5456 18.4147 16.5529 18.4662 16.5481 18.5173C16.5157 18.7059 16.4388 18.8841 16.3237 19.037C16.1546 19.2812 15.9431 19.4923 15.6994 19.6614C15.3795 19.8839 15.0293 20.0591 14.6594 20.1816C14.2004 20.3311 13.7192 20.4012 13.2366 20.3889C12.7374 20.3947 12.2421 20.2994 11.7806 20.1088C11.3504 19.9307 10.9651 19.6592 10.6527 19.314C10.3375 18.953 10.0973 18.5329 9.94589 18.0782C9.77651 17.5686 9.6935 17.0343 9.7003 16.4973M20.2493 17.5414C20.2355 17.8013 20.3207 18.0561 20.4885 18.2551C20.6465 18.4339 20.9418 18.5233 21.3768 18.5233H22.2568C22.3598 18.5245 22.4582 18.5658 22.5312 18.6384C22.6041 18.711 22.6459 18.8092 22.6476 18.9122V19.865C22.646 19.9683 22.6043 20.0669 22.5313 20.1399C22.4582 20.2129 22.3596 20.2547 22.2564 20.2562H21.1874C20.2816 20.2562 19.5886 20.0369 19.1071 19.5987C18.6261 19.161 18.3833 18.4892 18.3791 17.5852V14.4797H17.418C17.367 14.4803 17.3164 14.4703 17.2695 14.4502C17.2226 14.4301 17.1804 14.4005 17.1457 14.3631C17.1079 14.3286 17.078 14.2864 17.0579 14.2393C17.0378 14.1923 17.028 14.1415 17.0291 14.0904V13.1361C17.0285 13.0851 17.0386 13.0346 17.0587 12.9877C17.0787 12.9408 17.1084 12.8986 17.1457 12.8638C17.1807 12.8269 17.223 12.7975 17.2698 12.7774C17.3166 12.7574 17.367 12.7471 17.418 12.7473H18.3727V10.3928C18.3742 10.29 18.4157 10.1919 18.4884 10.1192C18.5611 10.0465 18.6592 10.005 18.762 10.0034H19.86C19.9627 10.005 20.0607 10.0464 20.1334 10.119C20.2061 10.1916 20.2477 10.2896 20.2493 10.3923V12.7468H22.1214C22.2211 12.7526 22.315 12.796 22.3841 12.8682C22.4532 12.9405 22.4923 13.0362 22.4937 13.1361V14.0908C22.4921 14.1935 22.4507 14.2916 22.3781 14.3643C22.3055 14.4369 22.2075 14.4785 22.1048 14.4802H20.2323L20.2493 17.5419V17.5414ZM29.7377 16.4867L28.1481 12.3704L26.5608 16.4867H29.7377ZM28.9429 10.1467C29.0061 10.1422 29.0696 10.1507 29.1294 10.1718C29.1891 10.1929 29.2439 10.2261 29.2903 10.2693C29.3834 10.3771 29.4538 10.5024 29.4981 10.6379L33.0348 19.7655C33.0445 19.7977 33.0491 19.8314 33.0491 19.865C33.0477 19.9682 33.0061 20.0668 32.9331 20.1399C32.8602 20.2129 32.7616 20.2546 32.6584 20.2562H31.618C31.5457 20.2638 31.4726 20.2568 31.4029 20.2358C31.3333 20.2148 31.2686 20.18 31.2126 20.1336C31.1445 20.0651 31.0908 19.9836 31.0545 19.894L30.4302 18.2925H25.8682L25.2439 19.894C25.2077 19.9836 25.1539 20.0651 25.0859 20.1336C25.0299 20.1801 24.9652 20.2149 24.8956 20.236C24.8259 20.257 24.7528 20.2639 24.6804 20.2562H23.64C23.5372 20.2539 23.4392 20.2119 23.3667 20.139C23.2942 20.0661 23.2528 19.9679 23.2511 19.865C23.2504 19.8312 23.2554 19.7976 23.2659 19.7655L26.8022 10.6379C26.8464 10.5024 26.9174 10.3771 27.0105 10.2693C27.0567 10.2258 27.1114 10.1925 27.1712 10.1714C27.2311 10.1503 27.2946 10.1419 27.3579 10.1467H28.9429ZM39.2256 16.9051C39.2546 16.6368 39.2546 16.3662 39.2256 16.0979C39.1694 15.474 38.9758 15.0206 38.6492 14.7479C38.3132 14.469 37.8877 14.3212 37.4512 14.3318C37.016 14.318 36.5913 14.4663 36.2592 14.7479C36.0921 14.901 35.9569 15.0856 35.8616 15.2913C35.7662 15.4969 35.7125 15.7193 35.7035 15.9458C35.6814 16.128 35.6717 16.3115 35.6745 16.495C35.6718 16.6789 35.6814 16.8623 35.7035 17.0443C35.7289 17.4958 35.9279 17.9202 36.2592 18.2284C36.5868 18.5187 37.013 18.6735 37.4512 18.6606C37.8877 18.6712 38.3132 18.5234 38.6492 18.2445C38.9758 17.9722 39.1694 17.5211 39.2256 16.8945V16.9051ZM37.888 20.4C37.6186 20.4027 37.3499 20.374 37.0872 20.3143C36.8726 20.2664 36.6634 20.1968 36.4629 20.1065C36.3035 20.0262 36.1534 19.9285 36.0155 19.8153C35.9076 19.7298 35.8068 19.6359 35.7141 19.5342V22.6088C35.7125 22.712 35.6707 22.8106 35.5977 22.8836C35.5247 22.9566 35.4262 22.9983 35.323 23H34.2268C34.1235 22.9987 34.0247 22.9571 33.9517 22.884C33.8786 22.8109 33.837 22.7122 33.8356 22.6088V13.1361C33.8381 13.0334 33.8802 12.9356 33.9531 12.8631C34.026 12.7906 34.1241 12.7491 34.2268 12.7473H35.323C35.4258 12.7489 35.524 12.7903 35.5969 12.8628C35.6699 12.9353 35.7119 13.0333 35.7141 13.1361V13.4693C35.9271 13.2336 36.1843 13.0421 36.4712 12.9058C36.6717 12.8153 36.8808 12.7455 37.0955 12.6975C37.3582 12.6379 37.6269 12.6093 37.8963 12.6122C38.3473 12.6057 38.794 12.7016 39.2025 12.8928C39.5822 13.0725 39.9213 13.3283 40.1987 13.6439C40.4778 13.9641 40.6983 14.3309 40.8502 14.7276C41.0082 15.1358 41.0985 15.5671 41.1161 16.0048C41.1266 16.1481 41.1308 16.3167 41.1308 16.5102C41.1308 16.7038 41.1308 16.8724 41.1161 17.0157C41.0983 17.4532 41.0085 17.8847 40.8502 18.2929C40.6983 18.6896 40.4777 19.0564 40.1987 19.3766C39.9212 19.6922 39.5823 19.9477 39.2025 20.1276C38.7908 20.3172 38.3412 20.4104 37.888 20.4ZM47.3883 16.9051C47.4174 16.6368 47.4174 16.3662 47.3883 16.0979C47.3303 15.474 47.1391 15.0206 46.8101 14.7479C46.4745 14.4683 46.0487 14.3205 45.6121 14.3318C45.177 14.318 44.7522 14.4663 44.4201 14.7479C44.253 14.901 44.1178 15.0856 44.0225 15.2913C43.9271 15.4969 43.8734 15.7193 43.8645 15.9458C43.8435 16.1281 43.8338 16.3115 43.8354 16.495C43.8336 16.6789 43.8433 16.8623 43.8645 17.0443C43.8898 17.4958 44.0889 17.9202 44.4201 18.2284C44.7479 18.519 45.1742 18.6736 45.6121 18.6606C46.0487 18.6719 46.4745 18.524 46.8101 18.2445C47.1391 17.9722 47.3303 17.5211 47.3883 16.8945V16.9051ZM46.0448 20.3894C45.7754 20.3922 45.5067 20.3636 45.244 20.3041C45.0294 20.2558 44.8202 20.186 44.6196 20.0959C44.4584 20.0188 44.3063 19.9239 44.1663 19.8129C44.0578 19.7274 43.9562 19.6335 43.8626 19.5319V22.6088C43.8628 22.6601 43.8526 22.7109 43.8326 22.7581C43.8125 22.8053 43.7831 22.848 43.7461 22.8834C43.711 22.9204 43.6687 22.9497 43.6219 22.9698C43.5751 22.9898 43.5247 23.0001 43.4737 23H42.3753C42.2723 22.9983 42.174 22.9565 42.1014 22.8834C42.0287 22.8104 41.9875 22.7118 41.9864 22.6088V13.1361C41.9876 13.0334 42.029 12.9351 42.1016 12.8625C42.1743 12.7898 42.2725 12.7484 42.3753 12.7473H43.4737C43.5761 12.7497 43.6736 12.7915 43.746 12.8639C43.8184 12.9363 43.8602 13.0338 43.8626 13.1361V13.4693C43.9562 13.3679 44.058 13.2734 44.1663 13.1882C44.3063 13.0776 44.4584 12.9822 44.6196 12.9053C44.8203 12.8153 45.0294 12.7457 45.244 12.6975C45.5067 12.638 45.7754 12.6094 46.0448 12.6122C46.4965 12.6057 46.9439 12.7016 47.3533 12.8928C47.7325 13.0736 48.0713 13.3291 48.3495 13.6439C48.6278 13.9642 48.8476 14.331 48.9987 14.7276C49.1572 15.1358 49.247 15.5671 49.265 16.0048C49.2751 16.1481 49.2793 16.3167 49.2793 16.5102C49.2793 16.7038 49.2793 16.8724 49.265 17.0157C49.2471 17.4532 49.1571 17.8847 48.9987 18.2929C48.8475 18.6894 48.6278 19.0563 48.3495 19.3766C48.0713 19.6914 47.7325 19.9469 47.3533 20.1276C46.944 20.319 46.4966 20.4151 46.0448 20.4087" fill="#050038"/>
</g>
<defs>
<clipPath id="clip0_1_45">
<rect width="50" height="32" fill="white" transform="translate(0.296875)"/>
</clipPath>
</defs>
</svg>
