<svg width="206" height="115" viewBox="0 0 206 115" fill="none" xmlns="http://www.w3.org/2000/svg">
<g filter="url(#filter0_d_1_100)">
<path d="M196.485 52.1712L42.8555 25.0821C38.5043 24.3148 34.355 27.2202 33.5878 31.5713L32.3723 38.465C31.605 42.8161 34.5104 46.9654 38.8615 47.7326L192.492 74.8217C196.843 75.589 200.992 72.6836 201.759 68.3325L202.975 61.4388C203.742 57.0877 200.837 52.9384 196.485 52.1712Z" fill="#FFD02F"/>
<path d="M48.834 37.5909L47.721 34.2109L46.02 33.9109L47.839 39.3699L47.354 42.1219L48.979 42.4079L49.464 39.6569L53.051 35.1509L51.339 34.8489L49.137 37.6439L48.834 37.5909Z" fill="#090909"/>
<path d="M57.281 35.7519C54.833 35.3199 53.206 36.8199 52.805 39.0949C52.403 41.3699 53.419 43.3359 55.868 43.7679C58.316 44.1999 59.943 42.6999 60.344 40.4249C60.745 38.1499 59.729 36.1829 57.281 35.7519ZM56.122 42.3269C54.681 42.0729 54.21 40.8169 54.462 39.3869C54.714 37.9579 55.586 36.9379 57.027 37.1929C58.479 37.4479 58.939 38.7019 58.687 40.1319C58.435 41.5619 57.573 42.5829 56.122 42.3269Z" fill="#090909"/>
<path d="M67.446 37.6888L66.59 42.5418C66.422 43.4958 65.737 44.0228 64.686 43.8368C63.646 43.6538 63.172 42.9228 63.34 41.9688L64.196 37.1158L62.582 36.8318L61.72 41.7168C61.384 43.6238 62.363 44.9128 64.421 45.2758C66.501 45.6428 67.862 44.7658 68.198 42.8588L69.06 37.9738L67.446 37.6888Z" fill="#090909"/>
<path d="M74.621 38.955L70.981 38.313L69.618 46.047L71.232 46.332L71.746 43.418L73.836 43.787L74.362 46.884L75.987 47.171L75.403 43.705C76.209 43.445 76.746 42.803 76.916 41.839C77.182 40.333 76.333 39.256 74.621 38.955ZM72.345 40.016L73.981 40.305C75.043 40.492 75.392 40.855 75.266 41.57C75.151 42.22 74.729 42.525 73.786 42.359L71.988 42.042L72.345 40.016Z" fill="#090909"/>
<path d="M82.206 40.292L80.842 48.027L82.457 48.311L83.82 40.577L82.206 40.292Z" fill="#090909"/>
<path d="M89.04 41.497L85.812 40.928L84.448 48.662L87.676 49.232C90.049 49.65 91.535 48.315 91.944 45.997C92.355 43.667 91.413 41.915 89.04 41.497ZM87.725 47.755L86.316 47.506L87.172 42.653L88.58 42.901C90.14 43.176 90.523 44.361 90.287 45.704C90.052 47.037 89.285 48.03 87.725 47.755Z" fill="#090909"/>
<path d="M94.705 48.985L95.026 47.165L98.222 47.729L98.47 46.321L95.274 45.757L95.561 44.132L99.667 44.856L99.921 43.415L94.201 42.407L92.837 50.142L98.676 51.171L98.93 49.73L94.705 48.985Z" fill="#090909"/>
<path d="M105.291 52.3379L106.927 52.6259L105.821 44.4559L103.318 44.0149L99.495 51.3159L101.088 51.5959L102.085 49.6159L105.031 50.1359L105.291 52.3379ZM104.031 45.7369L104.508 45.8219L104.846 48.6509L102.745 48.2809L104.031 45.7369Z" fill="#090909"/>
<path d="M118.124 48.814C118.208 47.388 117.169 46.312 115.49 46.016C113.616 45.685 112.392 46.542 112.167 47.82C111.963 48.979 112.539 49.829 113.777 50.282L115.204 50.802C115.824 51.023 116.192 51.344 116.085 51.951C115.976 52.569 115.339 52.825 114.494 52.676C113.66 52.529 112.958 52.137 112.968 51.256L111.322 50.966C111.204 52.52 112.235 53.707 114.185 54.051C116.286 54.422 117.496 53.451 117.723 52.162C117.968 50.775 117.196 49.958 116.021 49.527L114.626 49.013C114.113 48.822 113.712 48.561 113.801 48.052C113.908 47.446 114.541 47.278 115.224 47.398C116.025 47.54 116.445 47.882 116.477 48.524L118.124 48.814Z" fill="#090909"/>
<path d="M126.017 48.0168L119.593 46.8838L119.343 48.3028L121.748 48.7268L120.634 55.0428L122.248 55.3278L123.362 49.0118L125.767 49.4358L126.017 48.0168Z" fill="#090909"/>
<path d="M130.425 56.7688L132.061 57.0578L130.955 48.8878L128.452 48.4458L124.63 55.7468L126.222 56.0278L127.219 54.0478L130.166 54.5678L130.425 56.7688ZM129.165 50.1688L129.642 50.2528L129.981 53.0828L127.879 52.7128L129.165 50.1688Z" fill="#090909"/>
<path d="M138.303 50.1828L134.663 49.5408L133.299 57.2758L134.913 57.5608L135.427 54.6468L137.518 55.0148L138.044 58.1128L139.669 58.3988L139.085 54.9338C139.89 54.6738 140.428 54.0318 140.598 53.0678C140.863 51.5618 140.015 50.4848 138.303 50.1828ZM136.027 51.2448L137.663 51.5338C138.724 51.7208 139.074 52.0838 138.948 52.7988C138.833 53.4488 138.411 53.7538 137.468 53.5878L135.67 53.2708L136.027 51.2448Z" fill="#090909"/>
<path d="M148.369 51.9579L141.945 50.8259L141.695 52.2449L144.1 52.6689L142.986 58.9839L144.6 59.2689L145.714 52.9529L148.119 53.3769L148.369 51.9579Z" fill="#090909"/>
<path d="M155.021 55.3198C155.105 53.8938 154.066 52.8178 152.387 52.5218C150.513 52.1908 149.29 53.0478 149.065 54.3258C148.86 55.4848 149.436 56.3348 150.674 56.7878L152.102 57.3078C152.722 57.5288 153.09 57.8498 152.983 58.4568C152.874 59.0748 152.237 59.3308 151.392 59.1818C150.558 59.0348 149.856 58.6428 149.866 57.7618L148.219 57.4718C148.102 59.0258 149.132 60.2128 151.082 60.5568C153.184 60.9278 154.394 59.9568 154.621 58.6678C154.866 57.2808 154.094 56.4638 152.919 56.0328L151.524 55.5188C151.01 55.3278 150.609 55.0668 150.699 54.5578C150.806 53.9518 151.439 53.7838 152.121 53.9038C152.923 54.0458 153.343 54.3878 153.375 55.0298L155.021 55.3198Z" fill="#090909"/>
<path d="M165.416 54.9639L164.885 57.9759L161.462 57.3719L161.993 54.3609L160.379 54.0759L159.015 61.8109L160.629 62.0949L161.201 58.8559L164.624 59.4599L164.053 62.6989L165.667 62.9829L167.031 55.2489L165.416 54.9639Z" fill="#090909"/>
<path d="M169.473 62.1688L169.794 60.3488L172.99 60.9128L173.238 59.5038L170.042 58.9408L170.329 57.3158L174.435 58.0398L174.689 56.5988L168.969 55.5908L167.605 63.3248L173.444 64.3548L173.698 62.9138L169.473 62.1688Z" fill="#090909"/>
<path d="M179.971 57.5309L176.331 56.8889L174.968 64.6229L176.582 64.9079L177.096 61.9939L179.186 62.3629L179.712 65.4599L181.337 65.7469L180.753 62.2819C181.559 62.0209 182.096 61.3789 182.266 60.4149C182.532 58.9089 181.683 57.8319 179.971 57.5309ZM177.695 58.5919L179.331 58.8809C180.393 59.0679 180.742 59.4309 180.616 60.1459C180.501 60.7959 180.079 61.1009 179.136 60.9349L177.338 60.6179L177.695 58.5919Z" fill="#090909"/>
<path d="M184.844 64.8788L185.165 63.0588L188.36 63.6228L188.609 62.2148L185.413 61.6508L185.699 60.0258L189.805 60.7498L190.059 59.3088L184.339 58.3008L182.976 66.0348L188.814 67.0648L189.069 65.6238L184.844 64.8788Z" fill="#090909"/>
</g>
<defs>
<filter id="filter0_d_1_100" x="0.24939" y="0.959229" width="234.848" height="113.985" filterUnits="userSpaceOnUse" color-interpolation-filters="sRGB">
<feFlood flood-opacity="0" result="BackgroundImageFix"/>
<feColorMatrix in="SourceAlpha" type="matrix" values="0 0 0 0 0 0 0 0 0 0 0 0 0 0 0 0 0 0 127 0" result="hardAlpha"/>
<feOffset dy="8"/>
<feGaussianBlur stdDeviation="16"/>
<feColorMatrix type="matrix" values="0 0 0 0 0.0196078 0 0 0 0 0 0 0 0 0 0.219608 0 0 0 0.08 0"/>
<feBlend mode="normal" in2="BackgroundImageFix" result="effect1_dropShadow_1_100"/>
<feBlend mode="normal" in="SourceGraphic" in2="effect1_dropShadow_1_100" result="shape"/>
</filter>
</defs>
</svg>
