<svg width="16" height="15" viewBox="0 0 16 15" fill="none" xmlns="http://www.w3.org/2000/svg">
<g clip-path="url(#clip0_1_31)">
<path d="M3.3738 14.4733L3.37384 14.4732L3.36771 14.4687C3.32216 14.4349 3.30338 14.4034 3.29455 14.3509C3.28286 14.2814 3.2876 14.1521 3.36179 13.9396H3.3618L3.36275 13.9368L4.86851 9.54076C4.94049 9.33063 4.86521 9.09821 4.68371 8.97017L0.836461 6.2562L0.836467 6.25619L0.833925 6.25442C0.643485 6.12184 0.55576 6.0175 0.520532 5.95123C0.49555 5.90424 0.495395 5.87871 0.509153 5.83904L0.510135 5.83615C0.523013 5.79825 0.542152 5.77049 0.599248 5.74203C0.671109 5.70622 0.806953 5.6705 1.03899 5.67346L1.04236 5.67348L5.76136 5.70177C5.97913 5.70307 6.1727 5.56327 6.23993 5.35613L7.67323 0.940157C7.74639 0.71931 7.82186 0.605668 7.87633 0.551868C7.91726 0.511449 7.94856 0.5 7.99779 0.5C8.05322 0.5 8.08626 0.513343 8.12674 0.553054C8.18111 0.606384 8.25636 0.719241 8.32956 0.940201C8.32969 0.940619 8.32983 0.941037 8.32997 0.941455L9.76284 5.35613C9.83007 5.56327 10.0236 5.70307 10.2414 5.70177L14.9604 5.67349L14.9638 5.67345C15.1958 5.6705 15.3317 5.70622 15.4035 5.74204C15.4592 5.76978 15.4788 5.79686 15.4916 5.83331C15.5052 5.87639 15.5033 5.90607 15.4785 5.95314C15.4438 6.01918 15.3577 6.12294 15.1689 6.2544L15.1688 6.25439L15.1663 6.2562L11.3191 8.97017C11.1376 9.09821 11.0623 9.33063 11.1343 9.54076L12.64 13.9368L12.641 13.9396C12.7152 14.1521 12.7199 14.2814 12.7082 14.3509C12.6994 14.4034 12.6806 14.4349 12.6351 14.4687L12.6336 14.4698C12.5971 14.4971 12.5688 14.506 12.5108 14.4964C12.4313 14.4831 12.3002 14.4314 12.1072 14.2941C12.1069 14.2938 12.1065 14.2936 12.1062 14.2934L8.28995 11.5456C8.11531 11.4198 7.8798 11.42 7.70527 11.5459L3.89657 14.2934C3.89615 14.2937 3.89573 14.294 3.89532 14.2942C3.7037 14.4305 3.57076 14.4828 3.48965 14.4963C3.4287 14.5064 3.40326 14.4958 3.3738 14.4733Z" stroke="#FF9D48" stroke-linejoin="round"/>
<mask id="mask0_1_31" style="mask-type:alpha" maskUnits="userSpaceOnUse" x="0" y="0" width="16" height="16">
<path d="M3.3738 14.4733L3.37384 14.4732L3.36771 14.4687C3.32216 14.4349 3.30338 14.4034 3.29455 14.3509C3.28286 14.2814 3.2876 14.1521 3.36179 13.9396H3.3618L3.36275 13.9368L4.86851 9.54076C4.94049 9.33063 4.86521 9.09821 4.68371 8.97017L0.836461 6.2562L0.836467 6.25619L0.833925 6.25442C0.643485 6.12184 0.55576 6.0175 0.520532 5.95123C0.49555 5.90424 0.495395 5.87871 0.509153 5.83904L0.510135 5.83615C0.523013 5.79825 0.542152 5.77049 0.599248 5.74203C0.671109 5.70622 0.806953 5.6705 1.03899 5.67346L1.04236 5.67348L5.76136 5.70177C5.97913 5.70307 6.1727 5.56327 6.23993 5.35613L7.67321 0.940216C7.74638 0.71933 7.82185 0.605672 7.87633 0.551868C7.91726 0.511449 7.94856 0.5 7.99779 0.5C8.05322 0.5 8.08626 0.513343 8.12674 0.553054C8.18111 0.606385 8.25636 0.719246 8.32956 0.940216C8.3297 0.940629 8.32983 0.941042 8.32997 0.941455L9.76284 5.35613C9.83007 5.56327 10.0236 5.70307 10.2414 5.70177L14.9604 5.67349L14.9638 5.67345C15.1958 5.6705 15.3317 5.70622 15.4035 5.74204C15.4592 5.76978 15.4788 5.79685 15.4916 5.83329C15.5052 5.87638 15.5033 5.90606 15.4785 5.95314C15.4438 6.01918 15.3577 6.12294 15.1689 6.2544L15.1688 6.25439L15.1663 6.2562L11.3191 8.97017C11.1376 9.09821 11.0623 9.33063 11.1343 9.54076L12.64 13.9368L12.641 13.9396C12.7152 14.1521 12.7199 14.2814 12.7082 14.3509C12.6994 14.4034 12.6806 14.4349 12.6351 14.4687L12.6336 14.4698C12.5971 14.4971 12.5688 14.506 12.5108 14.4964C12.4313 14.4831 12.3002 14.4314 12.1072 14.2941C12.1069 14.2938 12.1066 14.2936 12.1062 14.2934L8.28995 11.5456C8.11531 11.4198 7.8798 11.42 7.70527 11.5459L3.89657 14.2934C3.89616 14.2936 3.89576 14.2939 3.89535 14.2942C3.70371 14.4305 3.57076 14.4828 3.48965 14.4963C3.4287 14.5064 3.40326 14.4958 3.3738 14.4733Z" fill="white" stroke="white" stroke-linejoin="round"/>
</mask>
<g mask="url(#mask0_1_31)">
<path d="M7.88128 0.75H-0.8125V15.5H7.88128V0.75Z" fill="#FF9D48" stroke="#FF9D48" stroke-width="1.5"/>
</g>
</g>
<defs>
<clipPath id="clip0_1_31">
<rect width="16" height="15" fill="white"/>
</clipPath>
</defs>
</svg>
