<svg width="50" height="13" viewBox="0 0 50 13" fill="none" xmlns="http://www.w3.org/2000/svg">
<path d="M0.0267243 3.88669C0.040547 3.34529 0.148363 2.81039 0.345106 2.30579C0.529496 1.84079 0.81353 1.42189 1.17723 1.07839C1.56627 0.723594 2.02449 0.453165 2.5231 0.284045C3.12669 0.0859145 3.76023 -0.00945567 4.39562 0.00298433C5.10288 -0.0200557 5.80875 0.0905237 6.47593 0.327354C6.95424 0.503934 7.39526 0.768494 7.77618 1.10739C8.06764 1.36709 8.29894 1.68719 8.45396 2.04549C8.56638 2.30679 8.64056 2.58279 8.67466 2.86569C8.68061 2.91769 8.67386 2.97039 8.65501 3.01929C8.63615 3.06809 8.60574 3.11169 8.56638 3.14629C8.48901 3.21659 8.38803 3.25519 8.28348 3.25449H7.11454C7.02323 3.25869 6.93336 3.23069 6.86066 3.17529C6.80432 3.12999 6.75816 3.07329 6.7252 3.00899C6.67624 2.92329 6.62555 2.83869 6.57315 2.75509C6.46607 2.59989 6.33405 2.46349 6.18243 2.35149C5.96911 2.19289 5.73359 2.06669 5.48346 1.97689C5.13537 1.85589 4.76809 1.79969 4.39976 1.81099C3.76902 1.77949 3.1498 1.98829 2.66686 2.39519C2.44923 2.59419 2.27527 2.83609 2.15599 3.10579C2.03671 3.37549 1.97469 3.66689 1.97388 3.96179C1.95317 4.35389 1.94349 4.74639 1.94485 5.13899C1.94485 5.55689 1.94485 5.94999 1.97388 6.31629C2.00106 7.11519 2.23421 7.69529 2.66686 8.05519C3.16027 8.43569 3.77332 8.62749 4.39562 8.59609C4.72635 8.59859 5.05609 8.55949 5.37703 8.47949C5.65809 8.41089 5.92118 8.28319 6.14925 8.10539C6.37272 7.92249 6.54643 7.68609 6.6547 7.41889C6.78372 7.08709 6.845 6.73369 6.83578 6.37849V6.25589H5.07385C5.02248 6.25669 4.9715 6.24679 4.92421 6.22669C4.87691 6.20659 4.83434 6.17689 4.79924 6.13929C4.76252 6.10419 4.7334 6.06189 4.71366 6.01509C4.69393 5.96819 4.68401 5.91789 4.68451 5.86699V4.84089C4.68558 4.73779 4.72688 4.63919 4.79962 4.56619C4.87235 4.49309 4.97076 4.45129 5.07385 4.44969H8.40189C8.50506 4.45129 8.60354 4.49309 8.67628 4.56629C8.74903 4.63949 8.79028 4.73819 8.79123 4.84139V6.42819C8.79725 6.97239 8.70419 7.51299 8.51662 8.02379C8.33637 8.49689 8.05197 8.92339 7.68449 9.27159C7.29102 9.64319 6.82297 9.92679 6.31144 10.1037C5.06602 10.4935 3.7312 10.4935 2.48578 10.1037C1.98891 9.93939 1.53332 9.66979 1.15005 9.31349C0.790603 8.96159 0.512283 8.53539 0.334509 8.06479C0.141286 7.55449 0.0358181 7.01519 0.0225762 6.46969C0.0225762 6.28679 0.00598983 6.08499 0.00184303 5.86429C-0.00230378 5.64399 0.00184303 5.41499 0.00184303 5.18419V4.50599C0.00184303 4.28339 0.0142826 4.08989 0.0225762 3.89869M13.2389 4.33589C12.9944 4.32909 12.7511 4.37089 12.5229 4.45899C12.3386 4.53179 12.17 4.63869 12.0257 4.77499C11.8952 4.89879 11.7894 5.04629 11.7138 5.20949C11.6471 5.35349 11.6016 5.50639 11.5788 5.66339H14.8405C14.8196 5.50889 14.7833 5.35679 14.7322 5.20949C14.6782 5.04739 14.5893 4.89909 14.4719 4.77499C14.3383 4.63639 14.1756 4.52849 13.9959 4.45899C13.754 4.36859 13.4966 4.32679 13.2385 4.33589H13.2389ZM9.70215 6.50149C9.69846 5.98359 9.7814 5.46939 9.94773 4.97869C10.0989 4.52009 10.3393 4.09589 10.655 3.73049C10.9656 3.37789 11.3469 3.09459 11.7742 2.89879C12.232 2.69419 12.7287 2.59119 13.2302 2.59699C13.731 2.59069 14.2274 2.69129 14.6861 2.89239C15.1161 3.07969 15.5028 3.35369 15.8219 3.69729C16.1348 4.03629 16.3779 4.43349 16.5375 4.86629C16.707 5.31639 16.7932 5.79379 16.7913 6.27479V6.92399C16.7897 7.02719 16.7479 7.12569 16.6749 7.19859C16.6019 7.27149 16.5033 7.31319 16.4002 7.31469H11.5783C11.5737 7.51789 11.6198 7.71929 11.7138 7.89939C11.806 8.06299 11.9322 8.20489 12.0843 8.31549C12.2441 8.43389 12.4248 8.52189 12.6164 8.57539C12.8197 8.63189 13.0297 8.66059 13.2408 8.66059C13.4942 8.66799 13.7476 8.63619 13.9918 8.56709C14.1623 8.51549 14.3235 8.43529 14.4677 8.32979C14.5488 8.26759 14.6359 8.21409 14.7281 8.16989C14.8156 8.13719 14.9092 8.12199 15.0027 8.12609H16.1569C16.2629 8.12749 16.3642 8.16939 16.4398 8.24269C16.4782 8.27669 16.508 8.31929 16.5268 8.36699C16.5456 8.41469 16.5529 8.46619 16.5481 8.51729C16.5157 8.70589 16.4388 8.88409 16.3237 9.03699C16.1546 9.28119 15.9431 9.49229 15.6994 9.66139C15.3795 9.88389 15.0293 10.0591 14.6594 10.1816C14.2004 10.3311 13.7192 10.4012 13.2366 10.3889C12.7374 10.3947 12.2421 10.2994 11.7806 10.1088C11.3504 9.93069 10.9651 9.65919 10.6527 9.31399C10.3375 8.95299 10.0973 8.53289 9.94589 8.07819C9.77651 7.56859 9.6935 7.03429 9.7003 6.49729M20.2493 7.54139C20.2355 7.80129 20.3207 8.05609 20.4885 8.25509C20.6465 8.43389 20.9418 8.52329 21.3768 8.52329H22.2568C22.3598 8.52449 22.4582 8.56579 22.5312 8.63839C22.6041 8.71099 22.6459 8.80919 22.6476 8.91219V9.86499C22.646 9.96829 22.6043 10.0669 22.5313 10.1399C22.4582 10.2129 22.3596 10.2547 22.2564 10.2562H21.1874C20.2816 10.2562 19.5886 10.0369 19.1071 9.59869C18.6261 9.16099 18.3833 8.48919 18.3791 7.58519V4.47969H17.418C17.367 4.48029 17.3164 4.47029 17.2695 4.45019C17.2226 4.43009 17.1804 4.40049 17.1457 4.36309C17.1079 4.32859 17.078 4.28639 17.0579 4.23929C17.0378 4.19229 17.028 4.14149 17.0291 4.09039V3.13609C17.0285 3.08509 17.0386 3.03459 17.0587 2.98769C17.0787 2.94079 17.1084 2.89859 17.1457 2.86379C17.1807 2.82689 17.223 2.79749 17.2698 2.77739C17.3166 2.75739 17.367 2.74709 17.418 2.74729H18.3727V0.392784C18.3742 0.290004 18.4157 0.191864 18.4884 0.119184C18.5611 0.0465038 18.6592 0.004984 18.762 0.003444H19.86C19.9627 0.004984 20.0607 0.0464346 20.1334 0.119025C20.2061 0.191605 20.2477 0.289624 20.2493 0.392324V2.74679H22.1214C22.2211 2.75259 22.315 2.79599 22.3841 2.86819C22.4532 2.94049 22.4923 3.03619 22.4937 3.13609V4.09079C22.4921 4.19349 22.4507 4.29159 22.3781 4.36429C22.3055 4.43689 22.2075 4.47849 22.1048 4.48019H20.2323L20.2493 7.54189V7.54139ZM29.7377 6.48669L28.1481 2.37039L26.5608 6.48669H29.7377ZM28.9429 0.146735C29.0061 0.142165 29.0696 0.150694 29.1294 0.171784C29.1891 0.192874 29.2439 0.226074 29.2903 0.269294C29.3834 0.377114 29.4538 0.502444 29.4981 0.637894L33.0348 9.76549C33.0445 9.79769 33.0491 9.83139 33.0491 9.86499C33.0477 9.96819 33.0061 10.0668 32.9331 10.1399C32.8602 10.2129 32.7616 10.2546 32.6584 10.2562H31.618C31.5457 10.2638 31.4726 10.2568 31.4029 10.2358C31.3333 10.2148 31.2686 10.18 31.2126 10.1336C31.1445 10.0651 31.0908 9.98359 31.0545 9.89399L30.4302 8.29249H25.8682L25.2439 9.89399C25.2077 9.98359 25.1539 10.0651 25.0859 10.1336C25.0299 10.1801 24.9652 10.2149 24.8956 10.236C24.8259 10.257 24.7528 10.2639 24.6804 10.2562H23.64C23.5372 10.2539 23.4392 10.2119 23.3667 10.139C23.2942 10.0661 23.2528 9.96789 23.2511 9.86499C23.2504 9.83119 23.2554 9.79759 23.2659 9.76549L26.8022 0.637894C26.8464 0.502444 26.9174 0.377114 27.0105 0.269294C27.0567 0.225834 27.1114 0.192484 27.1712 0.171384C27.2311 0.150284 27.2946 0.141885 27.3579 0.146735H28.9429ZM39.2256 6.90509C39.2546 6.63679 39.2546 6.36619 39.2256 6.09789C39.1694 5.47399 38.9758 5.02059 38.6492 4.74789C38.3132 4.46899 37.8877 4.32119 37.4512 4.33179C37.016 4.31799 36.5913 4.46629 36.2592 4.74789C36.0921 4.90099 35.9569 5.08559 35.8616 5.29129C35.7662 5.49689 35.7125 5.71929 35.7035 5.94579C35.6814 6.12799 35.6717 6.31149 35.6745 6.49499C35.6718 6.67889 35.6814 6.86229 35.7035 7.04429C35.7289 7.49579 35.9279 7.92019 36.2592 8.22839C36.5868 8.51869 37.013 8.67349 37.4512 8.66059C37.8877 8.67119 38.3132 8.52339 38.6492 8.24449C38.9758 7.97219 39.1694 7.52109 39.2256 6.89449V6.90509ZM37.888 10.4C37.6186 10.4027 37.3499 10.374 37.0872 10.3143C36.8726 10.2664 36.6634 10.1968 36.4629 10.1065C36.3035 10.0262 36.1534 9.92849 36.0155 9.81529C35.9076 9.72979 35.8068 9.63589 35.7141 9.53419V12.6088C35.7125 12.712 35.6707 12.8106 35.5977 12.8836C35.5247 12.9566 35.4262 12.9983 35.323 13H34.2268C34.1235 12.9987 34.0247 12.9571 33.9517 12.884C33.8786 12.8109 33.837 12.7122 33.8356 12.6088V3.13609C33.8381 3.03339 33.8802 2.93559 33.9531 2.86309C34.026 2.79059 34.1241 2.74909 34.2268 2.74729H35.323C35.4258 2.74889 35.524 2.79029 35.5969 2.86279C35.6699 2.93529 35.7119 3.03329 35.7141 3.13609V3.46929C35.9271 3.23359 36.1843 3.04209 36.4712 2.90579C36.6717 2.81529 36.8808 2.74549 37.0955 2.69749C37.3582 2.63789 37.6269 2.60929 37.8963 2.61219C38.3473 2.60569 38.794 2.70159 39.2025 2.89279C39.5822 3.07249 39.9213 3.32829 40.1987 3.64389C40.4778 3.96409 40.6983 4.33089 40.8502 4.72759C41.0082 5.13579 41.0985 5.56709 41.1161 6.00479C41.1266 6.14809 41.1308 6.31669 41.1308 6.51019C41.1308 6.70379 41.1308 6.87239 41.1161 7.01569C41.0983 7.45319 41.0085 7.88469 40.8502 8.29289C40.6983 8.68959 40.4777 9.05639 40.1987 9.37659C39.9212 9.69219 39.5823 9.94769 39.2025 10.1276C38.7908 10.3172 38.3412 10.4104 37.888 10.4ZM47.3883 6.90509C47.4174 6.63679 47.4174 6.36619 47.3883 6.09789C47.3303 5.47399 47.1391 5.02059 46.8101 4.74789C46.4745 4.46829 46.0487 4.32049 45.6121 4.33179C45.177 4.31799 44.7522 4.46629 44.4201 4.74789C44.253 4.90099 44.1178 5.08559 44.0225 5.29129C43.9271 5.49689 43.8734 5.71929 43.8645 5.94579C43.8435 6.12809 43.8338 6.31149 43.8354 6.49499C43.8336 6.67889 43.8433 6.86229 43.8645 7.04429C43.8898 7.49579 44.0889 7.92019 44.4201 8.22839C44.7479 8.51899 45.1742 8.67359 45.6121 8.66059C46.0487 8.67189 46.4745 8.52399 46.8101 8.24449C47.1391 7.97219 47.3303 7.52109 47.3883 6.89449V6.90509ZM46.0448 10.3894C45.7754 10.3922 45.5067 10.3636 45.244 10.3041C45.0294 10.2558 44.8202 10.186 44.6196 10.0959C44.4584 10.0188 44.3063 9.92389 44.1663 9.81289C44.0578 9.72739 43.9562 9.63349 43.8626 9.53189V12.6088C43.8628 12.6601 43.8526 12.7109 43.8326 12.7581C43.8125 12.8053 43.7831 12.848 43.7461 12.8834C43.711 12.9204 43.6687 12.9497 43.6219 12.9698C43.5751 12.9898 43.5247 13.0001 43.4737 13H42.3753C42.2723 12.9983 42.174 12.9565 42.1014 12.8834C42.0287 12.8104 41.9875 12.7118 41.9864 12.6088V3.13609C41.9876 3.03339 42.029 2.93509 42.1016 2.86249C42.1743 2.78979 42.2725 2.74839 42.3753 2.74729H43.4737C43.5761 2.74969 43.6736 2.79149 43.746 2.86389C43.8184 2.93629 43.8602 3.03379 43.8626 3.13609V3.46929C43.9562 3.36789 44.058 3.27339 44.1663 3.18819C44.3063 3.07759 44.4584 2.98219 44.6196 2.90529C44.8203 2.81529 45.0294 2.74569 45.244 2.69749C45.5067 2.63799 45.7754 2.60939 46.0448 2.61219C46.4965 2.60569 46.9439 2.70159 47.3533 2.89279C47.7325 3.07359 48.0713 3.32909 48.3495 3.64389C48.6278 3.96419 48.8476 4.33099 48.9987 4.72759C49.1572 5.13579 49.247 5.56709 49.265 6.00479C49.2751 6.14809 49.2793 6.31669 49.2793 6.51019C49.2793 6.70379 49.2793 6.87239 49.265 7.01569C49.2471 7.45319 49.1571 7.88469 48.9987 8.29289C48.8475 8.68939 48.6278 9.05629 48.3495 9.37659C48.0713 9.69139 47.7325 9.94689 47.3533 10.1276C46.944 10.319 46.4966 10.4151 46.0448 10.4087" fill="#050038"/>
</svg>
