<svg width="288" height="63" viewBox="0 0 288 63" fill="none" xmlns="http://www.w3.org/2000/svg">
<g clip-path="url(#clip0_1_279)">
<path d="M287.938 0.923096H0V62.624H287.938V0.923096Z" fill="white"/>
<path d="M0.431196 20.5242C1.27465 18.8736 3.39616 18.0558 5.14323 18.6357C6.23599 18.9814 7.12241 19.8603 7.53984 20.9205C9.87245 26.4359 12.2155 31.9475 14.5472 37.4628C14.6112 37.3453 14.6724 37.2259 14.7258 37.1027C16.5178 32.8549 18.3241 28.6118 20.1247 24.3669C20.9873 22.3715 22.3818 20.5251 24.3324 19.4944C25.4166 18.9155 26.6296 18.5984 27.8503 18.4981C31.0092 18.1533 34.2216 19.6587 36.1942 22.1078C38.0272 20.5365 40.1429 19.2002 42.5224 18.6615C43.809 18.3644 45.1453 18.4217 46.4464 18.5812C48.073 18.7923 49.6806 19.3531 50.9884 20.3618C51.6475 20.8574 52.2148 21.465 52.7277 22.1088C54.9868 19.9252 58.0378 18.4829 61.2081 18.4504C63.2284 18.4074 65.2706 18.9442 66.9709 20.0465C68.9281 21.2921 70.3761 23.3095 70.9025 25.5724C71.1604 26.6164 71.1719 27.6986 71.169 28.7675C71.169 33.3525 71.1681 37.9375 71.1699 42.5225C71.1575 43.1329 71.1347 43.7519 70.9665 44.3432C70.6723 45.4751 69.9206 46.5257 68.8268 46.9957C67.287 47.6682 65.2572 47.4161 64.1377 46.0902C63.236 45.071 63.0086 43.6506 63.0478 42.3324C63.0498 38.0664 63.0478 33.8005 63.0487 29.5345C63.0478 28.4275 62.6409 27.2965 61.8251 26.5295C61.0792 25.8159 60.0389 25.4635 59.0159 25.4558C57.8792 25.4272 56.7033 25.7873 55.8666 26.5782C55.0623 27.328 54.6306 28.4351 54.6382 29.5279C54.6382 33.9228 54.6391 38.3167 54.6373 42.7116C54.6315 43.8503 54.3689 45.0347 53.6419 45.9383C53.0678 46.6786 52.1938 47.1629 51.2701 47.2957C50.2394 47.4456 49.1247 47.2947 48.2583 46.6881C47.4779 46.1542 46.9612 45.3003 46.7186 44.3976C46.4702 43.5408 46.5113 42.64 46.5103 41.7583C46.5103 37.6825 46.5094 33.6075 46.5113 29.5317C46.5017 28.5182 46.1684 27.4857 45.4816 26.7273C44.7117 25.8618 43.533 25.4435 42.3915 25.4549C41.2424 25.4462 40.0551 25.8341 39.2413 26.668C38.4618 27.4369 38.0845 28.545 38.0864 29.6272C38.0864 34.0536 38.0854 38.4811 38.0864 42.9075C38.0787 44.025 37.7597 45.1771 37.0252 46.0395C36.4864 46.6834 35.7156 47.118 34.8922 47.268C33.7097 47.4867 32.3896 47.2852 31.4562 46.4838C30.4294 45.6116 29.9882 44.2247 29.9843 42.9104C29.9805 37.5249 29.9843 32.1404 29.9824 26.7558C29.9929 26.3346 29.7875 25.9096 29.4245 25.687C28.8696 25.3145 27.9955 25.4941 27.73 26.1369C25.2045 31.6389 22.6751 37.139 20.1534 42.6429C19.6041 43.7882 19.0242 44.9477 18.1531 45.8877C17.5188 46.5736 16.6735 47.0664 15.7517 47.2375C14.3036 47.5144 12.6865 47.3157 11.5088 46.37C10.265 45.37 9.54769 43.8971 8.89242 42.4795C6.03825 36.263 3.17455 30.0513 0.325168 23.8339C-0.13142 22.788 -0.117093 21.5338 0.431196 20.5242Z" fill="#050038"/>
<path d="M166.767 19.3982C168.645 18.8872 170.637 18.8318 172.549 19.1852C174.67 19.5759 176.683 20.5703 178.255 22.0499C181.206 24.7894 182.595 28.9102 182.532 32.8761C182.481 33.7989 181.644 34.6099 180.714 34.5917C174.232 34.5937 167.749 34.5908 161.267 34.5927C161.415 36.4706 162.026 38.3295 163.097 39.8855C164.156 41.4282 165.712 42.6241 167.481 43.2345C169.307 43.8849 171.316 43.9212 173.199 43.5067C174.992 43.1083 176.652 42.199 178.029 40.9917C178.345 40.7222 178.636 40.3975 179.041 40.258C179.741 39.9906 180.585 40.2772 181.017 40.8817C181.489 41.4969 181.448 42.4454 180.912 43.01C179.59 44.3511 178.042 45.4954 176.3 46.229C174.529 46.9827 172.595 47.2893 170.677 47.2988C168.659 47.3055 166.629 46.8872 164.808 46.0103C161.648 44.5316 159.189 41.7004 158.066 38.4088C157.248 36.0943 157.049 33.5897 157.315 31.1587C157.699 27.7907 159.208 24.5057 161.727 22.2036C163.154 20.8873 164.893 19.9102 166.767 19.3982ZM166.774 23.0481C165.135 23.7711 163.783 25.0616 162.868 26.5919C161.946 28.0992 161.442 29.8348 161.249 31.5828C161.716 31.6153 162.185 31.5924 162.654 31.599C167.941 31.601 173.228 31.5943 178.514 31.6019C178.523 31.1435 178.429 30.6925 178.358 30.2417C178.028 28.424 177.334 26.6387 176.154 25.2001C175.105 23.9039 173.616 22.9726 171.991 22.5991C170.263 22.2085 168.4 22.3183 166.774 23.0481Z" fill="#050038"/>
<path d="M74.387 19.1036C75.0557 18.9183 75.8389 19.0616 76.3375 19.563C76.6279 19.8363 76.8342 20.1878 76.968 20.5613C79.2796 27.2458 81.5844 33.9332 83.8865 40.6216C84.217 39.8258 84.4568 38.9939 84.7577 38.1858C86.7875 32.3122 88.822 26.4416 90.8624 20.5717C91.0887 19.8907 91.5998 19.2469 92.3295 19.0874C93.0451 18.9384 93.8694 19.0186 94.4367 19.5182C94.7959 19.8229 95.0185 20.2508 95.1723 20.6893C97.3463 26.9946 99.5117 33.3037 101.682 39.6109C101.81 39.9462 101.893 40.2997 102.055 40.6225C104.395 33.8826 106.745 27.1455 109.096 20.4103C109.275 19.9299 109.591 19.4781 110.057 19.2412C110.753 18.8859 111.651 18.9775 112.263 19.4628C112.832 19.8946 113.113 20.6702 112.936 21.3646C112.806 21.8756 112.608 22.3657 112.433 22.8614C109.902 29.9089 107.351 36.9507 104.816 43.9972C104.615 44.5331 104.443 45.0805 104.219 45.6077C103.916 46.2763 103.342 46.8686 102.606 47.03C101.898 47.1685 101.094 47.0606 100.549 46.5534C99.9531 46.0328 99.7725 45.2342 99.5166 44.5207C97.3635 38.3023 95.199 32.0877 93.0412 25.8712C93.0144 25.8178 92.96 25.7117 92.9333 25.6583C92.0793 27.9918 91.2884 30.3502 90.4555 32.6924C89.0351 36.7462 87.6166 40.8011 86.201 44.8578C86.0052 45.4195 85.8294 46.0222 85.3881 46.4502C84.8045 47.0797 83.8368 47.2182 83.043 46.9699C82.2693 46.7215 81.7363 46.0156 81.4775 45.2725C78.7342 37.6117 75.9736 29.9576 73.2322 22.2959C73.0803 21.8546 72.8854 21.4094 72.9093 20.9338C72.9046 20.0799 73.5761 19.3118 74.387 19.1036Z" fill="#050038"/>
<path d="M122.909 19.1214C125.084 18.9695 127.3 18.9561 129.432 19.4691C131.04 19.8521 132.594 20.5609 133.837 21.6651C135.321 22.9422 136.267 24.7562 136.689 26.6513C137.165 28.6277 137.012 30.6708 137.038 32.6835C137.038 36.8243 137.036 40.9651 137.039 45.1068C137.053 45.7229 136.779 46.3476 136.286 46.7249C135.699 47.1815 134.857 47.2227 134.189 46.9265C133.561 46.6476 133.147 45.979 133.14 45.297C133.131 44.4134 133.155 43.5298 133.13 42.6462C132.143 43.8498 130.99 44.933 129.627 45.7001C127.772 46.7728 125.622 47.2933 123.485 47.2991C121.325 47.3516 119.134 46.8635 117.243 45.8032C115.708 44.9378 114.394 43.6206 113.696 41.9871C112.973 40.3376 112.906 38.4587 113.265 36.7106C113.643 34.9052 114.719 33.2699 116.208 32.1848C118.088 30.7988 120.421 30.1808 122.716 29.9592C126.215 29.6745 129.764 30.05 133.135 31.0291C133.195 29.2495 133.041 27.3658 132.073 25.8203C131.292 24.5222 129.986 23.6023 128.557 23.1447C127.386 22.7627 126.147 22.6146 124.919 22.6385C123.247 22.6127 121.553 22.7885 119.968 23.3453C119.455 23.5135 118.97 23.7532 118.465 23.9385C117.786 24.185 116.991 23.9414 116.53 23.3988C115.832 22.628 116.003 21.2009 116.962 20.7214C118.822 19.8236 120.849 19.2743 122.909 19.1214ZM121.692 33.2967C120.345 33.6654 119.016 34.3417 118.161 35.4793C117.289 36.6065 117.029 38.1166 117.251 39.5026C117.457 40.7902 118.231 41.9546 119.298 42.6959C120.968 43.889 123.11 44.2147 125.118 44.0351C127.186 43.8527 129.244 43.1114 130.821 41.7369C132.203 40.5496 133.118 38.8044 133.183 36.9723C133.194 35.999 133.187 35.0256 133.186 34.0532C131.479 33.5394 129.723 33.2002 127.952 33.0178C125.869 32.8258 123.731 32.7474 121.692 33.2967Z" fill="#050038"/>
<path d="M141.985 21.029C141.969 19.9782 142.875 19.0029 143.932 18.981C145.025 18.9064 146.046 19.8378 146.07 20.9343C146.087 22.5019 146.07 24.0712 146.076 25.6398C146.414 25.0599 146.693 24.4457 147.088 23.8993C148.757 21.476 151.37 19.663 154.283 19.1385C155.031 19.0307 155.864 18.8893 156.55 19.3C157.756 19.9791 157.846 21.9402 156.734 22.7502C156.255 23.1428 155.622 23.1762 155.039 23.2669C152.962 23.6309 150.96 24.5794 149.471 26.0906C148.232 27.3056 147.358 28.8606 146.823 30.5046C146.248 32.2822 146.041 34.1639 146.076 36.0276C146.076 38.9887 146.075 41.9499 146.076 44.911C146.083 45.4756 145.876 46.0496 145.471 46.4489C144.978 46.9685 144.188 47.1634 143.503 46.9704C142.831 46.809 142.274 46.2665 142.079 45.6073C141.948 45.2291 141.99 44.825 141.986 44.4334C141.986 36.6322 141.987 28.831 141.985 21.029Z" fill="#050038"/>
</g>
<defs>
<clipPath id="clip0_1_279">
<rect width="287.938" height="61.7009" fill="white" transform="translate(0 0.923096)"/>
</clipPath>
</defs>
</svg>
