<svg width="54" height="64" viewBox="0 0 54 64" fill="none" xmlns="http://www.w3.org/2000/svg">
<g clip-path="url(#clip0_1_79)">
<path d="M24.4868 36.6874H30.9592V34.5268H30.2485C30.2485 35.3533 29.644 35.9626 28.7207 35.9626H27.7242V32.737H28.7987V32.0215H24.4868V32.737H25.5731V35.9626H24.4868V36.6852V36.6874Z" fill="#050038"/>
<path d="M34.072 36.6898L36.5891 36.6922L38.7261 32.7393H39.7981V32.0215H36.575V32.7393H37.5077L35.9492 35.6154L34.3719 32.7393H35.5029V32.0215H30.8275L30.8251 32.7393H31.8972L34.072 36.6898Z" fill="#050038"/>
<path d="M11.5987 32.0215H6.92327L6.92091 32.7393H7.9906L10.1677 36.6898L12.6849 36.6922L14.8219 32.7393H15.8939V32.0215H12.6707V32.7393H13.6011L12.045 35.6154L10.4676 32.7393H11.5987V32.0215Z" fill="#050038"/>
<path d="M16.5203 34.3594C16.5203 35.7338 17.6278 36.8271 19.8474 36.8271C22.0671 36.8271 23.1627 35.7338 23.1627 34.3594C23.1627 33.0041 22.0009 31.9226 19.8333 31.9226C17.6679 31.9226 16.518 33.0041 16.518 34.3594H16.5203ZM20.9902 34.3713C20.9761 35.219 20.6243 36.1022 19.8119 36.0879C19.021 36.0738 18.6738 35.2002 18.6881 34.3312C18.7046 33.4315 19.1343 32.6475 19.8758 32.6593C20.6172 32.6735 21.0068 33.4717 20.9926 34.3713H20.9902Z" fill="#050038"/>
<path d="M40.4164 34.3594C40.4164 35.7338 41.5238 36.8271 43.7435 36.8271C45.9631 36.8271 47.0588 35.7338 47.0588 34.3594C47.0588 33.0041 45.897 31.9226 43.7316 31.9226C41.5664 31.9226 40.4164 33.0041 40.4164 34.3594ZM43.7718 32.6593C44.5109 32.6735 44.9028 33.4717 44.8863 34.3713C44.8698 35.219 44.5204 36.1022 43.708 36.0879C42.917 36.0738 42.5699 35.2002 42.584 34.3312C42.6005 33.4315 43.0304 32.6475 43.7718 32.6593Z" fill="#050038"/>
<path d="M48.9336 19.5162L46.2251 22.2247C48.5463 25.8068 49.897 30.0784 49.897 34.6665C49.897 47.3161 39.6418 57.5713 26.9922 57.5713C14.3426 57.5713 4.08736 47.3161 4.08736 34.6665C4.08736 22.0169 14.3426 11.7617 26.9922 11.7617C31.5897 11.7617 35.8708 13.1171 39.46 15.4501L42.1684 12.7416C37.8614 9.75454 32.631 8.00244 26.9922 8.00244C12.267 8.00244 0.328125 19.9389 0.328125 34.6665C0.328125 49.3917 12.2646 61.3306 26.9922 61.3306C41.7174 61.3306 53.6562 49.3941 53.6562 34.6665C53.6562 29.0395 51.9112 23.8186 48.9359 19.5162H48.9336Z" fill="#050038"/>
<path d="M40.4025 9.05249V9.80103C42.0199 10.6771 43.5406 11.7113 44.9503 12.8731L41.1509 16.6724C42.5843 17.7964 43.8783 19.0904 45.0047 20.5214L48.7993 16.7268C49.9634 18.1388 50.9977 19.6619 51.8738 21.2558H52.6034V9.05249H40.4001H40.4025Z" fill="#050038"/>
</g>
<defs>
<clipPath id="clip0_1_79">
<rect width="53.3281" height="63.9938" fill="white" transform="translate(0.328125 0.00317383)"/>
</clipPath>
</defs>
</svg>
