<svg width="24" height="24" viewBox="0 0 24 24" fill="none" xmlns="http://www.w3.org/2000/svg">
<path d="M9.375 20.375C9.375 20.7458 9.26503 21.1084 9.059 21.4167C8.85298 21.725 8.56014 21.9654 8.21753 22.1073C7.87492 22.2492 7.49792 22.2863 7.1342 22.214C6.77049 22.1416 6.4364 21.963 6.17417 21.7008C5.91195 21.4386 5.73337 21.1045 5.66103 20.7408C5.58868 20.3771 5.62581 20.0001 5.76773 19.6575C5.90964 19.3149 6.14996 19.022 6.45831 18.816C6.76665 18.61 7.12916 18.5 7.5 18.5C7.99728 18.5 8.47419 18.6975 8.82582 19.0492C9.17745 19.4008 9.375 19.8777 9.375 20.375ZM17.25 18.5C16.8792 18.5 16.5166 18.61 16.2083 18.816C15.9 19.022 15.6596 19.3149 15.5177 19.6575C15.3758 20.0001 15.3387 20.3771 15.411 20.7408C15.4834 21.1045 15.662 21.4386 15.9242 21.7008C16.1864 21.963 16.5205 22.1416 16.8842 22.214C17.2479 22.2863 17.6249 22.2492 17.9675 22.1073C18.3101 21.9654 18.603 21.725 18.809 21.4167C19.015 21.1084 19.125 20.7458 19.125 20.375C19.125 19.8777 18.9275 19.4008 18.5758 19.0492C18.2242 18.6975 17.7473 18.5 17.25 18.5ZM22.0753 7.20594L19.5169 15.5216C19.3535 16.0593 19.0211 16.5301 18.569 16.864C18.1169 17.1979 17.5692 17.3771 17.0072 17.375H7.77469C7.2046 17.3732 6.65046 17.1866 6.1953 16.8433C5.74015 16.5001 5.40848 16.0186 5.25 15.4709L2.04469 4.25H1.125C0.826631 4.25 0.540483 4.13147 0.329505 3.9205C0.118526 3.70952 0 3.42337 0 3.125C0 2.82663 0.118526 2.54048 0.329505 2.3295C0.540483 2.11853 0.826631 2 1.125 2H2.32687C2.73407 2.00126 3.12988 2.13451 3.45493 2.37978C3.77998 2.62504 4.01674 2.96909 4.12969 3.36031L4.81312 5.75H21C21.1761 5.74999 21.3497 5.7913 21.5069 5.87061C21.664 5.94992 21.8004 6.06501 21.905 6.20664C22.0096 6.34826 22.0795 6.51246 22.1091 6.68602C22.1387 6.85958 22.1271 7.03766 22.0753 7.20594ZM19.4766 8H5.45531L7.41375 14.8531C7.43617 14.9315 7.48354 15.0005 7.54867 15.0495C7.6138 15.0986 7.69315 15.1251 7.77469 15.125H17.0072C17.0875 15.1252 17.1656 15.0996 17.2303 15.052C17.2949 15.0044 17.3426 14.9373 17.3662 14.8606L19.4766 8Z" fill="black"/>
</svg>
